<?xml version="1.0" standalone="no"?>
<!DOCTYPE svg PUBLIC "-//W3C//DTD SVG 20010904//EN"
 "http://www.w3.org/TR/2001/REC-SVG-20010904/DTD/svg10.dtd">
<svg version="1.0" xmlns="http://www.w3.org/2000/svg"
 width="218.000000pt" height="150.000000pt" viewBox="0 0 218.000000 150.000000"
 preserveAspectRatio="xMidYMid meet">

<g transform="translate(0.000000,150.000000) scale(0.100000,-0.100000)"
fill="#FFFFFF" stroke="none">
<path d="M1995 1479 c-148 -51 -246 -155 -324 -344 -96 -232 -122 -265 -218
-273 -29 -2 -53 -6 -53 -9 0 -2 -11 -54 -25 -115 -14 -61 -25 -112 -25 -114 0
-1 21 -6 46 -10 101 -15 242 45 333 141 61 65 94 122 141 245 67 175 110 230
187 240 l45 5 34 110 c46 149 46 145 -23 145 -32 -1 -85 -10 -118 -21z"/>
<path d="M1146 1063 c-49 -230 -91 -424 -94 -431 -3 -10 23 -12 124 -10 l127
3 88 410 c49 226 88 418 89 428 0 15 -12 17 -123 17 l-122 0 -89 -417z"/>
<path d="M175 838 c-13 -58 -175 -824 -175 -830 0 -5 56 -8 125 -8 69 0 125 2
125 4 0 6 169 802 176 833 l6 23 -126 0 c-122 0 -126 -1 -131 -22z"/>
<path d="M462 748 c-12 -62 -22 -116 -22 -120 0 -5 34 -8 75 -8 41 0 75 -2 75
-3 0 -2 -29 -141 -65 -308 -36 -167 -65 -305 -65 -306 0 -2 56 -3 125 -3 121
0 125 1 130 23 9 40 125 588 125 592 0 3 36 5 80 5 44 0 80 2 80 4 0 8 41 202
46 219 5 16 -13 17 -278 17 l-283 0 -23 -112z"/>
</g>
</svg>
