<?xml version="1.0" standalone="no"?>
<!DOCTYPE svg PUBLIC "-//W3C//DTD SVG 20010904//EN"
 "http://www.w3.org/TR/2001/REC-SVG-20010904/DTD/svg10.dtd">
<svg version="1.0" xmlns="http://www.w3.org/2000/svg"
 width="1280.000000pt" height="1280.000000pt" viewBox="0 0 1280.000000 1280.000000"
 preserveAspectRatio="xMidYMid meet">
<metadata>
Created by potrace 1.16, written by Peter Selinger 2001-2019
</metadata>
<g transform="translate(0.000000,1280.000000) scale(0.100000,-0.100000)"
fill="#FF0000" stroke="none">
<path d="M6115 11193 c-745 -67 -1442 -392 -1971 -918 -204 -204 -367 -410
-499 -635 -21 -36 -39 -66 -41 -68 -1 -2 -55 5 -120 14 -165 24 -488 24 -644
1 -262 -40 -479 -107 -705 -217 -609 -298 -1069 -855 -1249 -1511 -59 -217
-78 -349 -83 -590 -6 -229 3 -349 38 -521 l19 -97 -131 -128 c-152 -148 -229
-240 -341 -408 -200 -301 -336 -679 -379 -1054 -18 -159 -7 -515 21 -671 69
-388 230 -752 468 -1060 129 -166 343 -371 516 -495 l68 -48 298 298 299 299
-81 48 c-127 75 -224 152 -333 262 -220 223 -363 490 -431 806 -15 68 -19 128
-19 300 0 188 3 228 23 318 73 326 222 595 453 818 109 104 172 151 360 269
85 54 160 103 167 110 11 10 0 49 -66 226 -125 334 -148 454 -139 723 4 133
11 194 30 276 111 465 394 840 804 1062 235 127 479 189 746 189 209 -1 325
-25 657 -136 107 -36 197 -62 201 -57 3 4 41 90 84 192 42 102 104 238 137
304 232 455 606 823 1070 1051 179 88 303 133 490 179 196 48 349 67 559 67
271 0 490 -35 738 -117 265 -88 591 -272 790 -446 46 -40 90 -77 97 -83 11 -8
81 57 300 276 l286 286 -102 89 c-507 443 -1110 715 -1750 788 -123 15 -514
20 -635 9z"/>
<path d="M6112 6687 l-4502 -4502 288 -288 287 -287 395 395 395 395 3855 2
3855 3 125 23 c339 64 643 186 918 369 551 365 926 939 1042 1593 28 155 39
512 21 671 -91 798 -563 1492 -1271 1867 -99 52 -265 125 -312 137 -22 6 -29
15 -34 44 -16 94 -69 295 -101 381 -38 103 -113 259 -171 355 -101 169 -303
400 -464 529 -243 195 -567 343 -877 399 l-64 12 -18 50 -17 50 864 865 864
865 -288 288 -287 287 -4503 -4503z m2677 1438 c6 -39 13 -85 17 -103 l5 -33
282 2 c229 1 296 -1 354 -14 406 -91 738 -385 877 -775 53 -150 66 -248 66
-509 l0 -238 103 -29 c56 -16 174 -48 262 -72 337 -91 559 -215 780 -440 211
-214 358 -486 427 -796 20 -90 23 -130 23 -318 0 -188 -3 -228 -23 -318 -108
-483 -405 -874 -832 -1096 -199 -103 -401 -159 -637 -176 -87 -6 -1349 -10
-3428 -10 l-3290 0 2500 2500 c1374 1374 2500 2498 2502 2497 1 -2 7 -34 12
-72z"/>
</g>
</svg>
