<?xml version="1.0" standalone="no"?>
<!DOCTYPE svg PUBLIC "-//W3C//DTD SVG 1.1//EN" "http://www.w3.org/Graphics/SVG/1.1/DTD/svg11.dtd">
<!--Generator: Xara Designer (www.xara.com), SVG filter version: 6.2.0.0-->
<svg stroke-width="0.501" stroke-linejoin="bevel" fill-rule="evenodd" xmlns:xlink="http://www.w3.org/1999/xlink" xmlns="http://www.w3.org/2000/svg" version="1.1" overflow="visible" width="841.892pt" height="297.639pt" viewBox="0 0 841.892 297.639">
 <defs>
	</defs>
 <g id="Document" fill="none" stroke="black" font-family="Times New Roman" font-size="16" transform="scale(1 -1)">
  <g id="Spread" transform="translate(0 -297.639)">
   <g id="Layer 1">
    <g id="Group" fill-rule="nonzero" stroke-linejoin="miter" stroke="none" stroke-width="0.933">
     <path d="M 412.288,107.7 L 412.288,171.451 C 412.288,172.425 411.799,172.918 410.817,172.918 L 345.181,172.918 C 344.203,172.918 343.714,172.425 343.714,171.451 L 343.714,107.7 C 343.714,106.714 344.203,106.229 345.181,106.229 L 410.817,106.229 C 411.799,106.229 412.288,106.714 412.288,107.7 Z M 410.817,200.388 C 418.792,200.388 425.605,197.562 431.265,191.899 C 436.928,186.235 439.766,179.418 439.766,171.451 L 439.766,107.7 C 439.766,99.729 436.928,92.908 431.265,87.252 C 425.605,81.593 418.792,78.759 410.817,78.759 L 343.714,78.759 L 343.714,30.524 L 316.24,30.524 L 316.24,200.388 L 410.817,200.388 Z" fill="#ffffff" marker-start="none" marker-end="none"/>
     <path d="M 561.604,106.229 L 561.604,125.732 L 493.029,125.732 L 493.029,107.7 C 493.029,106.714 493.519,106.229 494.497,106.229 L 561.604,106.229 Z M 560.133,200.388 C 568.104,200.388 574.917,197.562 580.584,191.895 C 586.244,186.235 589.074,179.418 589.074,171.451 L 589.074,78.759 L 494.497,78.759 C 486.53,78.759 479.709,81.589 474.049,87.252 C 468.386,92.908 465.556,99.729 465.556,107.7 L 465.556,153.415 L 561.604,153.415 L 561.604,171.451 C 561.604,172.422 561.111,172.914 560.133,172.914 L 465.556,172.914 L 465.556,200.388 L 560.133,200.388 Z" fill="#ffffff" marker-start="none" marker-end="none"/>
     <path d="M 650.45,200.388 L 717.976,200.388 L 717.976,172.918 L 650.45,172.918 C 649.469,172.918 648.979,172.425 648.979,171.451 L 648.979,78.759 L 621.509,78.759 L 621.509,171.451 C 621.509,179.418 624.339,186.235 629.999,191.899 C 635.663,197.562 642.48,200.388 650.45,200.388 Z" fill="#ffffff" marker-start="none" marker-end="none"/>
     <path d="M 836.756,106.229 L 753.973,106.229 C 752.995,106.229 752.509,106.714 752.509,107.7 L 752.509,171.451 C 752.509,172.422 752.995,172.914 753.973,172.914 L 836.756,172.914 L 836.756,200.388 L 753.973,200.388 C 746.002,200.388 739.192,197.562 733.529,191.895 C 727.865,186.235 725.032,179.418 725.032,171.451 L 725.032,107.7 C 725.032,99.729 727.865,92.908 733.529,87.252 C 739.192,81.589 746.002,78.759 753.973,78.759 L 836.756,78.759 L 836.756,106.229 Z" fill="#ffffff" marker-start="none" marker-end="none"/>
     <path d="M 206.815,173.747 C 206.516,181.087 203.78,187.426 198.546,192.724 C 192.998,198.35 186.196,201.154 178.15,201.154 L 112.996,201.154 C 105.085,201.154 98.323,198.35 92.701,192.724 C 87.082,187.109 84.271,180.34 84.271,172.429 L 84.271,155.782 C 84.271,147.867 87.082,141.106 92.701,135.48 C 98.323,129.865 105.085,127.054 112.996,127.054 L 178.15,127.054 C 179.121,127.054 179.606,126.636 179.606,125.807 L 179.606,109.149 C 179.606,108.182 179.121,107.696 178.15,107.696 L 84.331,107.834 C 84.629,100.495 87.4,94.155 92.701,88.858 C 98.323,83.235 105.085,80.428 112.996,80.428 L 178.15,80.428 C 186.196,80.428 192.998,83.235 198.546,88.858 C 204.093,94.476 206.875,101.241 206.875,109.149 L 206.875,125.807 C 206.875,133.71 204.093,140.479 198.546,146.101 C 192.998,151.716 186.196,154.531 178.15,154.531 L 112.996,154.531 C 112.025,154.531 111.54,154.946 111.54,155.782 L 111.54,172.429 C 111.54,173.4 112.025,173.889 112.996,173.889 L 206.815,173.747 Z" fill="#ffffff" marker-start="none" marker-end="none"/>
     <path d="M 316.699,278.173 C 316.837,281.589 318.11,284.538 320.548,287.002 C 323.132,289.619 326.294,290.926 330.038,290.926 L 360.357,290.926 C 364.042,290.926 367.185,289.619 369.806,287.002 C 372.419,284.389 373.726,281.238 373.726,277.561 L 373.726,269.81 C 373.726,266.125 372.419,262.982 369.806,260.361 C 367.185,257.748 364.042,256.441 360.357,256.441 L 330.038,256.441 C 329.587,256.441 329.363,256.247 329.363,255.859 L 329.363,248.108 C 329.363,247.656 329.587,247.432 330.038,247.432 L 373.7,247.496 C 373.558,244.08 372.27,241.13 369.806,238.666 C 367.185,236.053 364.042,234.743 360.357,234.743 L 330.038,234.743 C 326.294,234.743 323.132,236.053 320.548,238.666 C 317.965,241.28 316.673,244.431 316.673,248.108 L 316.673,255.859 C 316.673,259.543 317.965,262.691 320.548,265.308 C 323.132,267.921 326.294,269.228 330.038,269.228 L 360.357,269.228 C 360.812,269.228 361.036,269.422 361.036,269.81 L 361.036,277.561 C 361.036,278.009 360.812,278.24 360.357,278.24 L 316.699,278.173 Z" fill="#ffffff" marker-start="none" marker-end="none"/>
     <path d="M 159.215,251.476 C 159.827,251.397 160.443,251.334 161.051,251.244 L 161.051,289.937 C 160.443,290 159.827,290.049 159.215,290.108 L 159.215,251.476 Z" fill="#ffffff" marker-start="none" marker-end="none"/>
     <path d="M 116.434,248.175 C 117.939,248.62 119.462,249.038 120.996,249.415 L 120.996,288.652 C 119.473,288.391 117.942,288.141 116.434,287.839 L 116.434,248.175 Z" fill="#ffffff" marker-start="none" marker-end="none"/>
     <path d="M 144.953,290.732 L 144.953,252.364 C 145.181,252.368 145.405,252.383 145.636,252.383 C 146.331,252.383 147.01,252.342 147.697,252.33 L 147.697,290.698 C 147.007,290.706 146.327,290.747 145.636,290.747 C 145.405,290.747 145.181,290.732 144.953,290.732 Z" fill="#ffffff" marker-start="none" marker-end="none"/>
     <path d="M 45.131,155.823 C 46.221,168.968 49.357,181.288 54.24,192.44 L 54.24,257.602 C 51.081,254.903 48.035,252.073 45.131,249.097 L 45.131,155.823 Z" fill="#ffffff" marker-start="none" marker-end="none"/>
     <path d="M 59.392,202.632 C 61.871,206.951 64.626,211.051 67.646,214.904 L 67.646,267.682 C 64.824,265.815 62.065,263.855 59.392,261.791 L 59.392,202.632 Z" fill="#ffffff" marker-start="none" marker-end="none"/>
     <path d="M 102.173,242.695 C 103.965,243.55 105.79,244.349 107.646,245.099 L 107.646,285.725 C 105.809,285.233 103.976,284.717 102.173,284.15 L 102.173,242.695 Z" fill="#ffffff" marker-start="none" marker-end="none"/>
     <path d="M 73.709,221.948 C 75.99,224.353 78.384,226.637 80.885,228.792 L 80.885,275.403 C 78.451,274.159 76.058,272.849 73.709,271.468 L 73.709,221.948 Z" fill="#ffffff" marker-start="none" marker-end="none"/>
     <path d="M 87.971,234.339 C 90.017,235.795 92.134,237.154 94.295,238.45 L 94.295,281.376 C 92.16,280.558 90.05,279.689 87.971,278.774 L 87.971,234.339 Z" fill="#ffffff" marker-start="none" marker-end="none"/>
     <path d="M 130.751,251.311 C 131.942,251.479 133.141,251.636 134.347,251.767 L 134.347,290.28 C 133.152,290.183 131.942,290.123 130.751,290.004 L 130.751,251.311 Z" fill="#ffffff" marker-start="none" marker-end="none"/>
     <path d="M 5.135,129.088 C 6.221,118.329 8.398,107.991 11.515,98.154 L 11.515,192.6 C 8.398,182.763 6.221,172.422 5.135,161.666 L 5.135,129.088 Z" fill="#ffffff" marker-start="none" marker-end="none"/>
     <path d="M 39.978,243.509 C 37.115,240.234 34.393,236.826 31.836,233.279 L 31.836,57.475 C 34.393,53.928 37.115,50.52 39.978,47.249 L 39.978,243.509 Z" fill="#ffffff" marker-start="none" marker-end="none"/>
     <path d="M 172.621,248.814 C 173.525,248.567 174.421,248.31 175.309,248.041 L 175.309,287.73 C 174.421,287.917 173.517,288.07 172.621,288.238 L 172.621,248.814 Z" fill="#ffffff" marker-start="none" marker-end="none"/>
     <path d="M 212.676,226.723 C 214.543,225.01 216.357,223.236 218.093,221.377 L 218.093,271.158 C 216.313,272.218 214.509,273.245 212.676,274.227 L 212.676,226.723 Z" fill="#ffffff" marker-start="none" marker-end="none"/>
     <path d="M 25.661,223.871 C 23.051,219.567 20.647,215.105 18.486,210.487 L 18.486,80.264 C 20.647,75.645 23.051,71.188 25.661,66.879 L 25.661,223.871 Z" fill="#ffffff" marker-start="none" marker-end="none"/>
     <path d="M 232.351,261.41 C 230.287,263.023 228.185,264.591 226.027,266.08 L 226.027,211.693 C 228.3,208.546 230.421,205.264 232.351,201.837 L 232.351,261.41 Z" fill="#ffffff" marker-start="none" marker-end="none"/>
     <path d="M 185.975,244.14 C 187.189,243.609 188.387,243.046 189.571,242.471 L 189.571,283.986 C 188.383,284.363 187.177,284.717 185.975,285.065 L 185.975,244.14 Z" fill="#ffffff" marker-start="none" marker-end="none"/>
     <path d="M 199.27,237.057 C 200.823,236.064 202.342,235.023 203.832,233.947 L 203.832,278.539 C 202.324,279.211 200.804,279.857 199.27,280.48 L 199.27,237.057 Z" fill="#ffffff" marker-start="none" marker-end="none"/>
     <path d="M 232.351,88.735 C 230.421,85.3 228.3,82.026 226.027,78.882 L 226.027,24.663 C 228.185,26.156 230.287,27.724 232.351,29.337 L 232.351,88.735 Z" fill="#ffffff" marker-start="none" marker-end="none"/>
     <path d="M 246.613,42.15 L 246.613,248.601 C 244.29,251.005 241.868,253.297 239.381,255.523 L 239.381,186.571 C 244.037,174.005 246.586,160.135 246.586,145.377 C 246.586,130.522 244.037,116.6 239.381,104.011 L 239.381,35.228 C 241.868,37.449 244.29,39.742 246.613,42.15 Z" fill="#ffffff" marker-start="none" marker-end="none"/>
     <path d="M 218.093,69.217 C 216.357,67.365 214.543,65.595 212.676,63.885 L 212.676,16.524 C 214.509,17.502 216.313,18.529 218.093,19.589 L 218.093,69.217 Z" fill="#ffffff" marker-start="none" marker-end="none"/>
     <path d="M 203.832,56.691 C 202.342,55.62 200.823,54.585 199.27,53.596 L 199.27,10.274 C 200.804,10.89 202.324,11.536 203.832,12.212 L 203.832,56.691 Z" fill="#ffffff" marker-start="none" marker-end="none"/>
     <path d="M 189.571,48.205 C 188.383,47.638 187.189,47.074 185.975,46.551 L 185.975,5.678 C 187.177,6.033 188.383,6.38 189.571,6.757 L 189.571,48.205 Z" fill="#ffffff" marker-start="none" marker-end="none"/>
     <path d="M 284.338,174.326 C 283.289,180.008 281.926,185.544 280.288,190.935 L 280.288,99.811 C 281.926,105.202 283.289,110.746 284.338,116.421 L 284.338,174.326 Z" fill="#ffffff" marker-start="none" marker-end="none"/>
     <path d="M 175.309,42.676 C 174.421,42.407 173.525,42.15 172.621,41.911 L 172.621,2.513 C 173.521,2.677 174.421,2.83 175.309,3.017 L 175.309,42.676 Z" fill="#ffffff" marker-start="none" marker-end="none"/>
     <path d="M 275.076,205.309 C 272.462,211.495 269.465,217.438 266.082,223.106 L 266.082,67.649 C 269.465,73.312 272.462,79.256 275.076,85.445 L 275.076,205.309 Z" fill="#ffffff" marker-start="none" marker-end="none"/>
     <path d="M 260.874,231.174 C 258.324,234.851 255.606,238.394 252.732,241.791 L 252.732,48.959 C 255.606,52.357 258.324,55.896 260.874,59.577 L 260.874,231.174 Z" fill="#ffffff" marker-start="none" marker-end="none"/>
     <path d="M 67.646,75.679 C 64.622,79.524 61.867,83.62 59.392,87.936 L 59.392,28.96 C 62.061,26.891 64.82,24.931 67.646,23.061 L 67.646,75.679 Z" fill="#ffffff" marker-start="none" marker-end="none"/>
     <path d="M 94.291,52.207 C 92.13,53.499 90.013,54.851 87.967,56.299 L 87.967,11.969 C 90.047,11.054 92.156,10.185 94.291,9.367 L 94.291,52.207 Z" fill="#ffffff" marker-start="none" marker-end="none"/>
     <path d="M 161.051,39.492 C 160.443,39.406 159.827,39.338 159.215,39.26 L 159.215,0.638 C 159.827,0.694 160.443,0.747 161.051,0.81 L 161.051,39.492 Z" fill="#ffffff" marker-start="none" marker-end="none"/>
     <path d="M 80.885,61.828 C 78.384,63.975 75.987,66.249 73.709,68.645 L 73.709,19.283 C 76.058,17.898 78.447,16.587 80.885,15.344 L 80.885,61.828 Z" fill="#ffffff" marker-start="none" marker-end="none"/>
     <path d="M 54.24,33.149 L 54.24,98.139 C 49.357,109.294 46.224,121.652 45.131,134.868 L 45.131,41.653 C 48.035,38.674 51.081,35.848 54.24,33.149 Z" fill="#ffffff" marker-start="none" marker-end="none"/>
     <path d="M 107.646,45.599 C 105.79,46.342 103.965,47.137 102.173,47.992 L 102.173,6.604 C 103.98,6.033 105.809,5.522 107.646,5.021 L 107.646,45.599 Z" fill="#ffffff" marker-start="none" marker-end="none"/>
     <path d="M 147.701,0.052 L 147.701,38.416 C 147.01,38.405 146.331,38.371 145.636,38.371 C 145.409,38.371 145.185,38.383 144.957,38.386 L 144.957,0.019 C 145.185,0.015 145.409,0 145.636,0 C 146.331,0 147.01,0.045 147.701,0.052 Z" fill="#ffffff" marker-start="none" marker-end="none"/>
     <path d="M 134.347,38.973 C 133.141,39.1 131.942,39.256 130.751,39.424 L 130.751,0.743 C 131.939,0.623 133.148,0.56 134.347,0.47 L 134.347,38.973 Z" fill="#ffffff" marker-start="none" marker-end="none"/>
     <path d="M 120.996,41.306 C 119.458,41.679 117.939,42.094 116.434,42.538 L 116.434,2.908 C 117.942,2.602 119.473,2.352 120.996,2.094 L 120.996,41.306 Z" fill="#ffffff" marker-start="none" marker-end="none"/>
    </g>
   </g>
  </g>
 </g>
</svg>
