<svg width="1220" height="370" xmlns="http://www.w3.org/2000/svg" preserveAspectRatio="xMidYMid meet" version="1.0">

 <g>
  <title>Layer 1</title>
  <g id="svg_1" fill="#FFFFFF" transform="translate(0 400) scale(0.1 -0.1)">
   <path id="svg_2" d="m4382,3367l-22,-23l0,-835l0,-835l33,-32l33,-32l295,0c274,0 297,1 312,18c22,25 21,75 -1,95c-16,15 -51,17 -280,17l-262,0l0,803l0,804l-23,21c-30,28 -58,28 -85,-1z"/>
   <path id="svg_3" d="m1992,3347l-22,-23l0,-654l0,-654l27,-28l27,-28l723,0l723,0l0,-513l0,-514l23,-21c33,-31 96,-30 125,1l22,23l0,1191l0,1191l-31,26c-39,33 -69,33 -108,0l-31,-26l0,-589l0,-589l-670,0l-670,0l0,593l0,594l-23,21c-32,30 -87,29 -115,-1z"/>
   <path id="svg_4" d="m6180,3255l0,-35l600,0l601,0l-31,-42c-45,-62 -87,-118 -360,-479c-134,-178 -308,-408 -385,-510c-77,-102 -200,-265 -272,-361c-73,-97 -133,-183 -133,-192c0,-15 65,-16 728,-16l729,0l20,23c11,12 78,99 149,192c70,94 176,232 234,308c58,77 121,160 140,187c30,41 230,306 343,453l37,49l0,-607l0,-606l142,3l142,3l61,80c99,129 399,527 528,700c66,88 132,175 146,193c65,83 124,162 161,214c22,31 44,60 50,63c7,4 10,-205 10,-624l0,-631l138,0l138,0l36,38c20,20 72,87 117,147c45,61 99,133 121,160c38,47 57,73 140,185c19,26 98,130 175,231c366,483 402,530 475,629c22,30 56,75 76,100c19,25 46,60 60,78l25,32l344,0l345,0l0,35l0,35l-1055,0l-1055,0l0,-35l0,-35l574,-2l574,-3l-249,-330c-137,-181 -267,-355 -289,-385c-22,-30 -63,-84 -90,-120c-27,-36 -68,-90 -90,-120c-22,-30 -63,-84 -90,-120c-27,-36 -68,-90 -90,-120c-40,-54 -67,-89 -183,-243c-32,-43 -62,-77 -67,-77c-6,0 -10,292 -10,790c0,678 -2,790 -14,790c-17,0 -57,-47 -164,-190c-43,-58 -143,-190 -222,-295c-79,-104 -225,-298 -324,-430c-99,-132 -183,-242 -186,-245c-4,-3 -21,-26 -38,-52c-18,-25 -38,-52 -45,-60c-7,-7 -29,-36 -49,-65c-20,-28 -44,-60 -52,-70c-8,-10 -37,-47 -63,-83l-48,-65l-3,783c-2,620 -5,783 -15,780c-10,-4 -168,-205 -287,-368c-49,-67 -85,-114 -265,-352c-77,-101 -254,-336 -393,-521l-253,-337l-484,0l-484,0l115,153c64,83 161,212 217,286c56,73 118,155 137,181c42,57 378,501 561,739c107,139 138,185 139,204c0,16 -42,17 -745,17l-745,0l0,-35z"/>
   <path id="svg_5" d="m192,2597c-21,-23 -22,-31 -22,-268c0,-244 0,-246 23,-267l23,-22l522,0l522,0l0,-155l0,-155l-518,0c-490,0 -520,-1 -535,-18c-23,-25 -22,-85 1,-105c17,-15 70,-17 563,-17l545,0l32,33l32,33l0,234l0,234l-27,28l-27,28l-513,0l-513,0l0,150l0,150l518,0c490,0 520,1 535,18c23,25 22,85 -1,105c-17,15 -72,17 -579,17l-560,0l-21,-23z"/>
  </g>
 </g>
</svg>