<?xml version="1.0" encoding="utf-8"?>
<!-- Generator: Adobe Illustrator 24.2.3, SVG Export Plug-In . SVG Version: 6.00 Build 0)  -->
<svg version="1.1" xmlns="http://www.w3.org/2000/svg" xmlns:xlink="http://www.w3.org/1999/xlink" x="0px" y="0px"
	 viewBox="0 0 290.4 72.5" style="enable-background:new 0 0 290.4 72.5;" xml:space="preserve">
<style type="text/css">
	.st0{display:none;}
	.st1{display:inline;fill:#FFFFFF;}
	.st2{display:inline;opacity:0.4;fill:url(#SVGID_1_);}
	.st3{display:inline;opacity:0.4;fill:url(#SVGID_2_);}
	.st4{display:inline;fill:url(#SVGID_3_);}
	.st5{display:none;opacity:0.8;fill:url(#SVGID_4_);}
	.st6{display:none;opacity:0.8;fill:url(#SVGID_5_);}
	.st7{display:none;fill:url(#SVGID_6_);}
	.st8{fill:#FFFFFF;}
	.st9{display:none;fill:url(#SVGID_7_);}
	.st10{display:none;fill:#3ABFEF;}
	.st11{fill:#0084B4;}
	.st12{display:none;fill:#FFFFFF;}
	.st13{display:none;fill:#FFFFFF;}
	.st14{font-family:'FrutigerLTStd-Light';}
	.st15{font-size:36px;}
	.st16{font-family:'Roboto-Regular';}
</style>
<g id="Layer_1">
	<g class="st0">
		<path class="st1" d="M87.1,28.6h-7.8v-3.2h19.2v3.2h-7.8v22h-3.6V28.6z"/>
		<path class="st1" d="M102.1,25.4h3.6v25.1h-3.6V25.4z"/>
		<path class="st1" d="M133.6,29.2c-1.8-0.7-2.8-1-4.7-1c-2,0-4.4,0.7-4.4,3.3c0,4.8,10.8,3.7,10.8,12c0,5.4-4.1,7.5-9.2,7.5
			c-1.8,0-3.5-0.5-5.1-1l0.4-3.3c1.2,0.5,3.4,1.2,5.2,1.2c2.1,0,4.9-1.2,4.9-4.1c0-5.6-10.8-4.1-10.8-11.9c0-4.5,3.5-6.8,8.1-6.8
			c1.7,0,3.6,0.3,5.4,0.9L133.6,29.2z"/>
		<path class="st1" d="M148,31.8c5.6,0,9.3,4,9.3,9.6c0,5.3-3.8,9.6-9.3,9.6c-5.5,0-9.4-4.4-9.4-9.6C138.6,35.8,142.3,31.8,148,31.8
			z M148,48.3c4,0,5.7-3.6,5.7-6.9c0-3.5-2.1-6.9-5.7-6.9c-3.6,0-5.8,3.4-5.8,6.9C142.2,44.7,144,48.3,148,48.3z"/>
		<path class="st1" d="M162.3,23.6h3.4v27h-3.4V23.6z"/>
		<path class="st1" d="M188.1,50.6h-3.3v-2.9h-0.1c-1,2.1-3.5,3.3-6,3.3c-4.8,0-6.9-3-6.9-7.9V32.2h3.4v9.5c0,4.3,0.9,6.4,3.9,6.6
			c3.9,0,5.6-3.1,5.6-7.6v-8.5h3.4V50.6z"/>
		<path class="st1" d="M203.6,35h-4.9v10c0,2.1,1.3,3.3,2.8,3.3c1,0,1.8-0.3,2.3-0.6v2.9c-0.8,0.2-1.8,0.5-2.9,0.5
			c-3.5,0-5.7-1.7-5.7-5.3V35h-4.1v-2.7h4.1V28l3.4-1.1v5.3h4.9V35z"/>
		<path class="st1" d="M211.9,28.1H208v-3.8h3.8V28.1z M208.3,32.2h3.4v18.4h-3.4V32.2z"/>
		<path class="st1" d="M226,31.8c5.6,0,9.3,4,9.3,9.6c0,5.3-3.8,9.6-9.3,9.6c-5.5,0-9.4-4.4-9.4-9.6C216.6,35.8,220.4,31.8,226,31.8
			z M226,48.3c4,0,5.7-3.6,5.7-6.9c0-3.5-2.1-6.9-5.7-6.9c-3.6,0-5.8,3.4-5.8,6.9C220.2,44.7,222,48.3,226,48.3z"/>
		<path class="st1" d="M239.8,32.2h3.3v2.9h0.1c1-2.1,3.5-3.3,6-3.3c4.8,0,6.9,3,6.9,7.9v10.9h-3.4v-9.5c0-4.3-0.9-6.4-3.9-6.6
			c-3.9,0-5.6,3.1-5.6,7.6v8.5h-3.4V32.2z"/>
		<path class="st1" d="M260.5,47c1.3,0.9,3.2,1.3,4.2,1.3c1.5,0,3.5-0.6,3.5-2.6c0-3.3-8-3.1-8-8.2c0-3.8,2.8-5.7,6.5-5.7
			c1.6,0,2.9,0.3,4.2,0.7l-0.3,3c-0.8-0.5-2.8-0.9-3.6-0.9c-1.7,0-3.2,0.7-3.2,2.2c0,3.7,8,2.7,8,8.5c0,3.9-3.1,5.7-6.4,5.7
			c-1.7,0-3.5-0.2-5-1L260.5,47z"/>
	</g>
	<g>
		<g class="st0">
			<radialGradient id="SVGID_1_" cx="44.1392" cy="37.516" r="19.6092" gradientUnits="userSpaceOnUse">
				<stop  offset="0" style="stop-color:#FFFFFF"/>
				<stop  offset="0.1205" style="stop-color:#FBFEFF"/>
				<stop  offset="0.2454" style="stop-color:#EEFAFE"/>
				<stop  offset="0.3724" style="stop-color:#DAF3FD"/>
				<stop  offset="0.5008" style="stop-color:#BCEAFB"/>
				<stop  offset="0.6304" style="stop-color:#97DEF8"/>
				<stop  offset="0.761" style="stop-color:#69CFF6"/>
				<stop  offset="0.8898" style="stop-color:#34BEF2"/>
				<stop  offset="1" style="stop-color:#00AEEF"/>
			</radialGradient>
			<ellipse class="st2" cx="44.1" cy="37.5" rx="22.7" ry="15.9"/>
			
				<radialGradient id="SVGID_2_" cx="148.9227" cy="-53.8555" r="19.6092" gradientTransform="matrix(4.489700e-11 -1 1 4.489700e-11 97.9947 186.4388)" gradientUnits="userSpaceOnUse">
				<stop  offset="0" style="stop-color:#FFFFFF"/>
				<stop  offset="0.1143" style="stop-color:#FBFEFF"/>
				<stop  offset="0.2385" style="stop-color:#EEF9FE"/>
				<stop  offset="0.3675" style="stop-color:#D8F3FD"/>
				<stop  offset="0.4997" style="stop-color:#B9E9FB"/>
				<stop  offset="0.6346" style="stop-color:#92DCF8"/>
				<stop  offset="0.7715" style="stop-color:#62CDF5"/>
				<stop  offset="0.9074" style="stop-color:#2ABBF2"/>
				<stop  offset="1" style="stop-color:#00AEEF"/>
			</radialGradient>
			<ellipse class="st3" cx="44.1" cy="37.5" rx="15.9" ry="22.7"/>
			<radialGradient id="SVGID_3_" cx="44.1392" cy="37.516" r="15.8716" gradientUnits="userSpaceOnUse">
				<stop  offset="0" style="stop-color:#FFFFFF"/>
				<stop  offset="0.1143" style="stop-color:#FBFEFF"/>
				<stop  offset="0.2385" style="stop-color:#EEF9FE"/>
				<stop  offset="0.3675" style="stop-color:#D8F3FD"/>
				<stop  offset="0.4997" style="stop-color:#B9E9FB"/>
				<stop  offset="0.6346" style="stop-color:#92DCF8"/>
				<stop  offset="0.7715" style="stop-color:#62CDF5"/>
				<stop  offset="0.9074" style="stop-color:#2ABBF2"/>
				<stop  offset="1" style="stop-color:#00AEEF"/>
			</radialGradient>
			<path class="st4" d="M31.1,24.5c-1.8,3.7-2.9,8.2-2.9,13s1.1,9.3,2.9,13c3.7,1.8,8.2,2.9,13,2.9s9.3-1.1,13-2.9
				c1.8-3.7,2.9-8.2,2.9-13s-1.1-9.3-2.9-13c-3.7-1.8-8.2-2.9-13-2.9S34.8,22.7,31.1,24.5z"/>
		</g>
		<g>
			<radialGradient id="SVGID_4_" cx="44.1392" cy="37.516" r="19.6092" gradientUnits="userSpaceOnUse">
				<stop  offset="0" style="stop-color:#00AEEF;stop-opacity:0.2"/>
				<stop  offset="1" style="stop-color:#FFFFFF"/>
			</radialGradient>
			<ellipse class="st5" cx="44.1" cy="37.5" rx="22.7" ry="15.9"/>
			
				<radialGradient id="SVGID_5_" cx="148.9227" cy="-53.8555" r="19.6092" gradientTransform="matrix(4.489700e-11 -1 1 4.489700e-11 97.9947 186.4388)" gradientUnits="userSpaceOnUse">
				<stop  offset="0" style="stop-color:#00AEEF;stop-opacity:0.2"/>
				<stop  offset="1" style="stop-color:#FFFFFF"/>
			</radialGradient>
			<ellipse class="st6" cx="44.1" cy="37.5" rx="15.9" ry="22.7"/>
			<radialGradient id="SVGID_6_" cx="44.1392" cy="37.516" r="15.8716" gradientUnits="userSpaceOnUse">
				<stop  offset="0" style="stop-color:#FFFFFF;stop-opacity:0.3"/>
				<stop  offset="1" style="stop-color:#FFFFFF"/>
			</radialGradient>
			<path class="st7" d="M31.1,24.5c-1.8,3.7-2.9,8.2-2.9,13s1.1,9.3,2.9,13c3.7,1.8,8.2,2.9,13,2.9s9.3-1.1,13-2.9
				c1.8-3.7,2.9-8.2,2.9-13s-1.1-9.3-2.9-13c-3.7-1.8-8.2-2.9-13-2.9S34.8,22.7,31.1,24.5z"/>
		</g>
		<g class="st0">
			<path class="st1" d="M66.9,37.5c0-5.4-3.8-10.1-9.7-13c1.8,3.7,2.9,8.2,2.9,13s-1.1,9.3-2.9,13C63,47.7,66.9,42.9,66.9,37.5z"/>
			<path class="st1" d="M31.1,24.5c-5.9,2.9-9.7,7.6-9.7,13c0,5.4,3.8,10.1,9.7,13c-1.8-3.7-2.9-8.2-2.9-13S29.3,28.2,31.1,24.5z"/>
			<path class="st1" d="M31.1,50.5c2.9,5.9,7.6,9.7,13,9.7s10.1-3.8,13-9.7c-3.7,1.8-8.2,2.9-13,2.9S34.8,52.3,31.1,50.5z"/>
			<path class="st1" d="M57.2,24.5c-2.9-5.9-7.6-9.7-13-9.7s-10.1,3.8-13,9.7c3.7-1.8,8.2-2.9,13-2.9S53.5,22.7,57.2,24.5z"/>
		</g>
		<g>
			<path class="st8" d="M67.4,37.5c0-5.4-4.3-10.1-10.8-13c2,3.7,3.2,8.2,3.2,13s-1.2,9.3-3.2,13C63.1,47.7,67.4,42.9,67.4,37.5z"/>
			<path class="st8" d="M31.6,24.5c-6.5,2.9-10.8,7.6-10.8,13s4.3,10.1,10.8,13c-2-3.7-3.2-8.2-3.2-13S29.7,28.2,31.6,24.5z"/>
			<path class="st8" d="M31.1,50c2.9,6.5,7.6,10.8,13,10.8s10.1-4.3,13-10.8c-3.7,2-8.2,3.2-13,3.2S34.8,52,31.1,50z"/>
			<path class="st8" d="M57.2,25c-2.9-6.5-7.6-10.8-13-10.8S34,18.5,31.1,25c3.7-2,8.2-3.2,13-3.2S53.5,23,57.2,25z"/>
		</g>
		<linearGradient id="SVGID_7_" gradientUnits="userSpaceOnUse" x1="49.0369" y1="34.6336" x2="55.0386" y2="28.632">
			<stop  offset="0" style="stop-color:#F9ED32"/>
			<stop  offset="8.489490e-02" style="stop-color:#F8E53E"/>
			<stop  offset="0.2235" style="stop-color:#F6D556"/>
			<stop  offset="0.3985" style="stop-color:#F2BA70"/>
			<stop  offset="0.6031" style="stop-color:#EF9481"/>
			<stop  offset="0.8298" style="stop-color:#ED608B"/>
			<stop  offset="1" style="stop-color:#EC008C"/>
		</linearGradient>
		<ellipse class="st9" cx="52" cy="31.6" rx="3.5" ry="4.9"/>
		<ellipse class="st10" cx="52" cy="31.6" rx="3.5" ry="4.9"/>
		<circle class="st11" cx="52" cy="31.6" r="3.5"/>
		<ellipse class="st12" cx="52" cy="31.6" rx="3.5" ry="4.9"/>
	</g>
</g>
<g id="Layer_2">
	<text transform="matrix(1 0 0 1 81.1239 51.5996)" class="st13 st14 st15">TI Solutions</text>
	<g>
		<path class="st8" d="M84.9,51.6v-1.5l2.9-0.2V27.7h-7.2l-0.2,3.9h-1.7V26H99v5.6h-1.7l-0.2-3.9h-7.2v22.1l2.9,0.2v1.5H84.9z"/>
		<path class="st8" d="M102.3,51.6v-1.5l2.9-0.2V27.8l-2.9-0.2V26h7.8v1.5l-2.9,0.2v22.1l2.9,0.2v1.5H102.3z"/>
		<path class="st8" d="M130.7,52c-1.5,0-2.9-0.2-4.4-0.7s-2.9-1.1-4.2-2.1v-5h1.8l0.3,4c1,0.6,2.1,1.1,3.2,1.4
			c1.1,0.3,2.2,0.5,3.4,0.5c1.3,0,2.5-0.2,3.5-0.6s1.8-1,2.3-1.7s0.8-1.6,0.8-2.6c0-0.9-0.2-1.8-0.7-2.5s-1.2-1.3-2.2-1.9
			s-2.4-1-4.1-1.5c-1.9-0.5-3.4-1-4.6-1.7c-1.2-0.6-2-1.4-2.6-2.3s-0.8-2-0.8-3.2c0-1.3,0.3-2.4,1-3.4s1.6-1.7,2.9-2.3
			s2.7-0.8,4.3-0.8c1.7,0,3.3,0.3,4.6,0.8s2.5,1.2,3.4,2V33h-1.7l-0.3-3.6c-0.7-0.6-1.6-1.1-2.6-1.4s-2.2-0.5-3.4-0.5
			c-1.3,0-2.3,0.2-3.2,0.6c-0.9,0.4-1.6,1-2.1,1.7s-0.7,1.5-0.7,2.4c0,0.9,0.2,1.6,0.6,2.3s1.1,1.2,2,1.7c0.9,0.5,2.3,1,4,1.4
			c2.8,0.7,4.9,1.7,6.3,2.9s2.1,2.8,2.1,4.8c0,1.4-0.4,2.5-1.1,3.6s-1.8,1.8-3.1,2.4S132.5,52,130.7,52z"/>
		<path class="st8" d="M150.9,52c-1.7,0-3.2-0.4-4.5-1.2s-2.2-1.9-2.9-3.4s-1-3.1-1-5v-0.6c0-1.9,0.3-3.5,1-5
			c0.7-1.4,1.7-2.6,2.9-3.4s2.7-1.2,4.4-1.2c1.7,0,3.2,0.4,4.4,1.2s2.2,1.9,2.9,3.4c0.7,1.4,1,3.1,1,5v0.6c0,1.9-0.3,3.5-1,5
			s-1.7,2.6-2.9,3.4S152.6,52,150.9,52z M150.9,50.2c1.3,0,2.4-0.3,3.4-1s1.7-1.6,2.2-2.8s0.8-2.5,0.8-4v-0.6c0-1.5-0.3-2.8-0.8-4
			c-0.5-1.2-1.2-2.1-2.2-2.8s-2.1-1-3.4-1s-2.4,0.3-3.4,1s-1.7,1.6-2.2,2.8c-0.5,1.2-0.7,2.5-0.7,4v0.6c0,1.5,0.2,2.8,0.7,4
			s1.2,2.1,2.2,2.8S149.6,50.2,150.9,50.2z"/>
		<path class="st8" d="M161.9,51.6v-1.5l2.9-0.2V26l-2.9-0.2v-1.5h5v25.7l2.9,0.2v1.5H161.9z"/>
		<path class="st8" d="M181.8,52c-2,0-3.5-0.7-4.6-2s-1.7-3.5-1.7-6.3v-9.2l-2.4-0.2v-1.5h2.4h2.1v11.1c0,2.3,0.4,4,1.1,5
			s1.9,1.5,3.3,1.5c1.6,0,2.9-0.4,3.8-1.1s1.5-1.8,1.9-3.1V34.4l-2.7-0.2v-1.5h2.7h2.1v17.3l2.5,0.2v1.5H188l-0.2-3.1
			c-0.6,1.1-1.4,2-2.4,2.6S183.2,52,181.8,52z"/>
		<path class="st8" d="M203,51.9c-1.3,0-2.4-0.4-3.1-1.2s-1.1-2.2-1.1-4V34.3h-3.3v-1.7h3.3v-4.9h2.1v4.9h4.4v1.7h-4.4v12.4
			c0,1.3,0.2,2.2,0.7,2.7s1.1,0.8,1.8,0.8c0.4,0,0.8,0,1.2-0.1s0.8-0.1,1.2-0.2l0.3,1.5c-0.4,0.1-0.9,0.2-1.4,0.3
			S203.5,51.9,203,51.9z"/>
		<path class="st8" d="M209.7,51.6v-1.5l2.9-0.2V34.4l-2.9-0.2v-1.5h5v17.3l2.9,0.2v1.5H209.7z M212.3,27.2v-3h2.4v3H212.3z"/>
		<path class="st8" d="M229,52c-1.7,0-3.2-0.4-4.5-1.2s-2.2-1.9-2.9-3.4s-1-3.1-1-5v-0.6c0-1.9,0.3-3.5,1-5c0.7-1.4,1.7-2.6,2.9-3.4
			s2.7-1.2,4.4-1.2c1.7,0,3.2,0.4,4.4,1.2s2.2,1.9,2.9,3.4c0.7,1.4,1,3.1,1,5v0.6c0,1.9-0.3,3.5-1,5s-1.7,2.6-2.9,3.4
			S230.7,52,229,52z M229,50.2c1.3,0,2.4-0.3,3.4-1s1.7-1.6,2.2-2.8s0.8-2.5,0.8-4v-0.6c0-1.5-0.3-2.8-0.8-4
			c-0.5-1.2-1.2-2.1-2.2-2.8s-2.1-1-3.4-1s-2.4,0.3-3.4,1s-1.7,1.6-2.2,2.8c-0.5,1.2-0.7,2.5-0.7,4v0.6c0,1.5,0.2,2.8,0.7,4
			s1.2,2.1,2.2,2.8S227.7,50.2,229,50.2z"/>
		<path class="st8" d="M240.5,51.6v-1.5l2.9-0.2V34.4l-2.9-0.2v-1.5h4.7l0.2,3.4c0.6-1.2,1.4-2.1,2.5-2.8s2.3-1,3.7-1
			c2.1,0,3.6,0.6,4.7,1.9s1.6,3.2,1.6,5.9v9.8l2.9,0.2v1.5h-7.8v-1.5l2.9-0.2v-9.8c0-2.2-0.4-3.8-1.2-4.7s-2-1.4-3.5-1.4
			c-1.6,0-2.8,0.4-3.7,1.3s-1.5,2-1.9,3.4v11l2.9,0.2v1.5H240.5z"/>
		<path class="st8" d="M270.3,52c-1.3,0-2.6-0.2-3.7-0.5s-2.2-0.9-3.2-1.6l0-3.9h1.7l0.3,2.8c0.7,0.5,1.4,0.9,2.3,1.1
			s1.7,0.4,2.7,0.4c1.6,0,2.8-0.3,3.6-1s1.2-1.5,1.2-2.5c0-0.9-0.4-1.7-1.1-2.4s-2.1-1.2-4-1.7c-2.3-0.5-3.9-1.1-4.9-2
			s-1.5-2-1.5-3.4c0-1,0.3-1.8,0.8-2.6s1.3-1.4,2.3-1.8s2.2-0.7,3.5-0.7c1.4,0,2.6,0.2,3.6,0.6s1.9,0.9,2.7,1.6l0.1,3.9h-1.7
			l-0.2-2.8c-0.5-0.5-1.1-0.9-1.8-1.2s-1.6-0.4-2.6-0.4c-1.4,0-2.5,0.3-3.3,1s-1.2,1.4-1.2,2.3c0,0.6,0.1,1.1,0.4,1.5
			s0.7,0.8,1.4,1.2s1.7,0.7,3,1c2.4,0.5,4.1,1.3,5.2,2.2s1.6,2.1,1.6,3.6c0,1.5-0.6,2.8-1.8,3.8S272.6,52,270.3,52z"/>
	</g>
	<text transform="matrix(1 0 0 1 81.1239 51.5996)" class="st13 st16 st15">TI Solutions</text>
</g>
</svg>
