<svg width="250" height="150" xmlns="http://www.w3.org/2000/svg">
 <style type="text/css">.st0{display:none;}
	.st1{display:inline;fill:#FFFFFF;}
	.st2{display:inline;opacity:0.4;fill:url(#SVGID_1_);}
	.st3{display:inline;opacity:0.4;fill:url(#SVGID_2_);}
	.st4{display:inline;fill:url(#SVGID_3_);}
	.st5{display:none;opacity:0.8;fill:url(#SVGID_4_);}
	.st6{display:none;opacity:0.8;fill:url(#SVGID_5_);}
	.st7{display:none;fill:url(#SVGID_6_);}
	.st8{fill:#FFFFFF;}
	.st9{display:none;fill:url(#SVGID_7_);}
	.st10{display:none;fill:#3ABFEF;}
	.st11{fill:#0084B4;}
	.st12{display:none;fill:#FFFFFF;}
	.st13{display:none;fill:#FFFFFF;}
	.st14{font-family:'FrutigerLTStd-Light';}
	.st15{font-size:36px;}
	.st16{font-family:'Roboto-Regular';}</style>

 <g>
  <title>background</title>
  <rect x="-1" y="-1" width="252" height="152" id="canvas_background" fill="none"/>
 </g>
 <g>
  <title>Layer 1</title>
  <g id="Layer_1">
   <g class="st0" id="svg_1">
    <path class="st1" d="m66.60003,67.09934l-7.8,0l0,-3.2l19.2,0l0,3.2l-7.8,0l0,22l-3.6,0l0,-22z" id="svg_2"/>
    <path class="st1" d="m81.60003,63.89934l3.6,0l0,25.1l-3.6,0l0,-25.1z" id="svg_3"/>
    <path class="st1" d="m113.10003,67.69934c-1.8,-0.7 -2.8,-1 -4.7,-1c-2,0 -4.4,0.7 -4.4,3.3c0,4.8 10.8,3.7 10.8,12c0,5.4 -4.1,7.5 -9.2,7.5c-1.8,0 -3.5,-0.5 -5.1,-1l0.4,-3.3c1.2,0.5 3.4,1.2 5.2,1.2c2.1,0 4.9,-1.2 4.9,-4.1c0,-5.6 -10.8,-4.1 -10.8,-11.9c0,-4.5 3.5,-6.8 8.1,-6.8c1.7,0 3.6,0.3 5.4,0.9l-0.6,3.2z" id="svg_4"/>
    <path class="st1" d="m127.50003,70.29934c5.6,0 9.3,4 9.3,9.6c0,5.3 -3.8,9.6 -9.3,9.6c-5.5,0 -9.4,-4.4 -9.4,-9.6c0,-5.6 3.7,-9.6 9.4,-9.6zm0,16.5c4,0 5.7,-3.6 5.7,-6.9c0,-3.5 -2.1,-6.9 -5.7,-6.9c-3.6,0 -5.8,3.4 -5.8,6.9c0,3.3 1.8,6.9 5.8,6.9z" id="svg_5"/>
    <path class="st1" d="m141.80003,62.09934l3.4,0l0,27l-3.4,0l0,-27z" id="svg_6"/>
    <path class="st1" d="m167.60003,89.09934l-3.3,0l0,-2.9l-0.1,0c-1,2.1 -3.5,3.3 -6,3.3c-4.8,0 -6.9,-3 -6.9,-7.9l0,-10.9l3.4,0l0,9.5c0,4.3 0.9,6.4 3.9,6.6c3.9,0 5.6,-3.1 5.6,-7.6l0,-8.5l3.4,0l0,18.4z" id="svg_7"/>
    <path class="st1" d="m183.10003,73.49934l-4.9,0l0,10c0,2.1 1.3,3.3 2.8,3.3c1,0 1.8,-0.3 2.3,-0.6l0,2.9c-0.8,0.2 -1.8,0.5 -2.9,0.5c-3.5,0 -5.7,-1.7 -5.7,-5.3l0,-10.8l-4.1,0l0,-2.7l4.1,0l0,-4.3l3.4,-1.1l0,5.3l4.9,0l0,2.8l0.1,0z" id="svg_8"/>
    <path class="st1" d="m191.40003,66.59934l-3.9,0l0,-3.8l3.8,0l0,3.8l0.1,0zm-3.6,4.1l3.4,0l0,18.4l-3.4,0l0,-18.4z" id="svg_9"/>
    <path class="st1" d="m205.50003,70.29934c5.6,0 9.3,4 9.3,9.6c0,5.3 -3.8,9.6 -9.3,9.6c-5.5,0 -9.4,-4.4 -9.4,-9.6c0,-5.6 3.8,-9.6 9.4,-9.6zm0,16.5c4,0 5.7,-3.6 5.7,-6.9c0,-3.5 -2.1,-6.9 -5.7,-6.9c-3.6,0 -5.8,3.4 -5.8,6.9c0,3.3 1.8,6.9 5.8,6.9z" id="svg_10"/>
    <path class="st1" d="m219.30003,70.69934l3.3,0l0,2.9l0.1,0c1,-2.1 3.5,-3.3 6,-3.3c4.8,0 6.9,3 6.9,7.9l0,10.9l-3.4,0l0,-9.5c0,-4.3 -0.9,-6.4 -3.9,-6.6c-3.9,0 -5.6,3.1 -5.6,7.6l0,8.5l-3.4,0l0,-18.4z" id="svg_11"/>
    <path class="st1" d="m240.00003,85.49934c1.3,0.9 3.2,1.3 4.2,1.3c1.5,0 3.5,-0.6 3.5,-2.6c0,-3.3 -8,-3.1 -8,-8.2c0,-3.8 2.8,-5.7 6.5,-5.7c1.6,0 2.9,0.3 4.2,0.7l-0.3,3c-0.8,-0.5 -2.8,-0.9 -3.6,-0.9c-1.7,0 -3.2,0.7 -3.2,2.2c0,3.7 8,2.7 8,8.5c0,3.9 -3.1,5.7 -6.4,5.7c-1.7,0 -3.5,-0.2 -5,-1l0.1,-3z" id="svg_12"/>
   </g>
   <g id="svg_13">
    <g class="st0" id="svg_14">
     <ellipse class="st2" cx="23.60003" cy="75.99934" rx="22.7" ry="15.9" id="svg_15"/>
     <ellipse class="st3" cx="23.60003" cy="75.99934" rx="15.9" ry="22.7" id="svg_16"/>
     <path class="st4" d="m10.60003,62.99934c-1.8,3.7 -2.9,8.2 -2.9,13s1.1,9.3 2.9,13c3.7,1.8 8.2,2.9 13,2.9s9.3,-1.1 13,-2.9c1.8,-3.7 2.9,-8.2 2.9,-13s-1.1,-9.3 -2.9,-13c-3.7,-1.8 -8.2,-2.9 -13,-2.9s-9.3,1.1 -13,2.9z" id="svg_17"/>
    </g>
    <g id="svg_18">
     <ellipse class="st5" cx="23.60003" cy="75.99934" rx="22.7" ry="15.9" id="svg_19"/>
     <ellipse class="st6" cx="23.60003" cy="75.99934" rx="15.9" ry="22.7" id="svg_20"/>
     <path class="st7" d="m10.60003,62.99934c-1.8,3.7 -2.9,8.2 -2.9,13s1.1,9.3 2.9,13c3.7,1.8 8.2,2.9 13,2.9s9.3,-1.1 13,-2.9c1.8,-3.7 2.9,-8.2 2.9,-13s-1.1,-9.3 -2.9,-13c-3.7,-1.8 -8.2,-2.9 -13,-2.9s-9.3,1.1 -13,2.9z" id="svg_21"/>
    </g>
    <g class="st0" id="svg_22">
     <path class="st1" d="m46.40003,75.99934c0,-5.4 -3.8,-10.1 -9.7,-13c1.8,3.7 2.9,8.2 2.9,13s-1.1,9.3 -2.9,13c5.8,-2.8 9.7,-7.6 9.7,-13z" id="svg_23"/>
     <path class="st1" d="m10.60003,62.99934c-5.9,2.9 -9.7,7.6 -9.7,13c0,5.4 3.8,10.1 9.7,13c-1.8,-3.7 -2.9,-8.2 -2.9,-13s1.1,-9.3 2.9,-13z" id="svg_24"/>
     <path class="st1" d="m10.60003,88.99934c2.9,5.9 7.6,9.7 13,9.7s10.1,-3.8 13,-9.7c-3.7,1.8 -8.2,2.9 -13,2.9s-9.3,-1.1 -13,-2.9z" id="svg_25"/>
     <path class="st1" d="m36.70003,62.99934c-2.9,-5.9 -7.6,-9.7 -13,-9.7s-10.1,3.8 -13,9.7c3.7,-1.8 8.2,-2.9 13,-2.9s9.3,1.1 13,2.9z" id="svg_26"/>
    </g>
    <g id="svg_27">
     <path class="st8" d="m46.90003,75.99934c0,-5.4 -4.3,-10.1 -10.8,-13c2,3.7 3.2,8.2 3.2,13s-1.2,9.3 -3.2,13c6.5,-2.8 10.8,-7.6 10.8,-13z" id="svg_28"/>
     <path class="st8" d="m11.10003,62.99934c-6.5,2.9 -10.8,7.6 -10.8,13s4.3,10.1 10.8,13c-2,-3.7 -3.2,-8.2 -3.2,-13s1.3,-9.3 3.2,-13z" id="svg_29"/>
     <path class="st8" d="m10.60003,88.49934c2.9,6.5 7.6,10.8 13,10.8s10.1,-4.3 13,-10.8c-3.7,2 -8.2,3.2 -13,3.2s-9.3,-1.2 -13,-3.2z" id="svg_30"/>
     <path class="st8" d="m36.70003,63.49934c-2.9,-6.5 -7.6,-10.8 -13,-10.8s-10.2,4.3 -13.1,10.8c3.7,-2 8.2,-3.2 13,-3.2s9.4,1.2 13.1,3.2z" id="svg_31"/>
    </g>
    <ellipse class="st9" cx="31.50003" cy="70.09934" rx="3.5" ry="4.9" id="svg_32"/>
    <ellipse class="st10" cx="31.50003" cy="70.09934" rx="3.5" ry="4.9" id="svg_33"/>
    <circle class="st11" cx="31.50003" cy="70.09934" r="3.5" id="svg_34"/>
    <ellipse class="st12" cx="31.50003" cy="70.09934" rx="3.5" ry="4.9" id="svg_35"/>
   </g>
  </g>
  <g id="Layer_2">
   <text transform="matrix(1,0,0,1,81.1239,51.5996) " class="st13 st14 st15" id="svg_36" y="38.24933" x="-28.49996">TI Solutions</text>
   <g id="svg_37">
    <path class="st8" d="m56.40004,89.84933l0,-1.5l2.9,-0.2l0,-22.2l-7.2,0l-0.2,3.9l-1.7,0l0,-5.6l20.3,0l0,5.6l-1.7,0l-0.2,-3.9l-7.2,0l0,22.1l2.9,0.2l0,1.5l-7.9,0l0,0.1z" id="svg_38"/>
    <path class="st8" d="m73.80004,89.84933l0,-1.5l2.9,-0.2l0,-22.1l-2.9,-0.2l0,-1.6l7.8,0l0,1.5l-2.9,0.2l0,22.1l2.9,0.2l0,1.5l-7.8,0l0,0.1z" id="svg_39"/>
    <path class="st8" d="m102.20004,90.24933c-1.5,0 -2.9,-0.2 -4.4,-0.7s-2.9,-1.1 -4.2,-2.1l0,-5l1.8,0l0.3,4c1,0.6 2.1,1.1 3.2,1.4c1.1,0.3 2.2,0.5 3.4,0.5c1.3,0 2.5,-0.2 3.5,-0.6s1.8,-1 2.3,-1.7s0.8,-1.6 0.8,-2.6c0,-0.9 -0.2,-1.8 -0.7,-2.5s-1.2,-1.3 -2.2,-1.9s-2.4,-1 -4.1,-1.5c-1.9,-0.5 -3.4,-1 -4.6,-1.7c-1.2,-0.6 -2,-1.4 -2.6,-2.3s-0.8,-2 -0.8,-3.2c0,-1.3 0.3,-2.4 1,-3.4s1.6,-1.7 2.9,-2.3s2.7,-0.8 4.3,-0.8c1.7,0 3.3,0.3 4.6,0.8s2.5,1.2 3.4,2l0,4.6l-1.7,0l-0.3,-3.6c-0.7,-0.6 -1.6,-1.1 -2.6,-1.4s-2.2,-0.5 -3.4,-0.5c-1.3,0 -2.3,0.2 -3.2,0.6c-0.9,0.4 -1.6,1 -2.1,1.7s-0.7,1.5 -0.7,2.4c0,0.9 0.2,1.6 0.6,2.3s1.1,1.2 2,1.7c0.9,0.5 2.3,1 4,1.4c2.8,0.7 4.9,1.7 6.3,2.9s2.1,2.8 2.1,4.8c0,1.4 -0.4,2.5 -1.1,3.6s-1.8,1.8 -3.1,2.4s-2.9,0.7 -4.7,0.7z" id="svg_40"/>
    <path class="st8" d="m122.40004,90.24933c-1.7,0 -3.2,-0.4 -4.5,-1.2s-2.2,-1.9 -2.9,-3.4s-1,-3.1 -1,-5l0,-0.6c0,-1.9 0.3,-3.5 1,-5c0.7,-1.4 1.7,-2.6 2.9,-3.4s2.7,-1.2 4.4,-1.2c1.7,0 3.2,0.4 4.4,1.2s2.2,1.9 2.9,3.4c0.7,1.4 1,3.1 1,5l0,0.6c0,1.9 -0.3,3.5 -1,5s-1.7,2.6 -2.9,3.4s-2.6,1.2 -4.3,1.2zm0,-1.8c1.3,0 2.4,-0.3 3.4,-1s1.7,-1.6 2.2,-2.8s0.8,-2.5 0.8,-4l0,-0.6c0,-1.5 -0.3,-2.8 -0.8,-4c-0.5,-1.2 -1.2,-2.1 -2.2,-2.8s-2.1,-1 -3.4,-1s-2.4,0.3 -3.4,1s-1.7,1.6 -2.2,2.8c-0.5,1.2 -0.7,2.5 -0.7,4l0,0.6c0,1.5 0.2,2.8 0.7,4s1.2,2.1 2.2,2.8s2.1,1 3.4,1z" id="svg_41"/>
    <path class="st8" d="m133.40004,89.84933l0,-1.5l2.9,-0.2l0,-23.9l-2.9,-0.2l0,-1.5l5,0l0,25.7l2.9,0.2l0,1.5l-7.9,0l0,-0.1z" id="svg_42"/>
    <path class="st8" d="m153.30004,90.24933c-2,0 -3.5,-0.7 -4.6,-2s-1.7,-3.5 -1.7,-6.3l0,-9.2l-2.4,-0.2l0,-1.5l2.4,0l2.1,0l0,11.1c0,2.3 0.4,4 1.1,5s1.9,1.5 3.3,1.5c1.6,0 2.9,-0.4 3.8,-1.1s1.5,-1.8 1.9,-3.1l0,-11.8l-2.7,-0.2l0,-1.5l2.7,0l2.1,0l0,17.3l2.5,0.2l0,1.5l-4.3,0l-0.2,-3.1c-0.6,1.1 -1.4,2 -2.4,2.6s-2.2,0.8 -3.6,0.8z" id="svg_43"/>
    <path class="st8" d="m174.50004,90.14933c-1.3,0 -2.4,-0.4 -3.1,-1.2s-1.1,-2.2 -1.1,-4l0,-12.4l-3.3,0l0,-1.7l3.3,0l0,-4.9l2.1,0l0,4.9l4.4,0l0,1.7l-4.4,0l0,12.4c0,1.3 0.2,2.2 0.7,2.7s1.1,0.8 1.8,0.8c0.4,0 0.8,0 1.2,-0.1s0.8,-0.1 1.2,-0.2l0.3,1.5c-0.4,0.1 -0.9,0.2 -1.4,0.3s-1.2,0.2 -1.7,0.2z" id="svg_44"/>
    <path class="st8" d="m181.20004,89.84933l0,-1.5l2.9,-0.2l0,-15.5l-2.9,-0.2l0,-1.5l5,0l0,17.3l2.9,0.2l0,1.5l-7.9,0l0,-0.1zm2.6,-24.4l0,-3l2.4,0l0,3l-2.4,0z" id="svg_45"/>
    <path class="st8" d="m200.50004,90.24933c-1.7,0 -3.2,-0.4 -4.5,-1.2s-2.2,-1.9 -2.9,-3.4s-1,-3.1 -1,-5l0,-0.6c0,-1.9 0.3,-3.5 1,-5c0.7,-1.4 1.7,-2.6 2.9,-3.4s2.7,-1.2 4.4,-1.2c1.7,0 3.2,0.4 4.4,1.2s2.2,1.9 2.9,3.4c0.7,1.4 1,3.1 1,5l0,0.6c0,1.9 -0.3,3.5 -1,5s-1.7,2.6 -2.9,3.4s-2.6,1.2 -4.3,1.2zm0,-1.8c1.3,0 2.4,-0.3 3.4,-1s1.7,-1.6 2.2,-2.8s0.8,-2.5 0.8,-4l0,-0.6c0,-1.5 -0.3,-2.8 -0.8,-4c-0.5,-1.2 -1.2,-2.1 -2.2,-2.8s-2.1,-1 -3.4,-1s-2.4,0.3 -3.4,1s-1.7,1.6 -2.2,2.8c-0.5,1.2 -0.7,2.5 -0.7,4l0,0.6c0,1.5 0.2,2.8 0.7,4s1.2,2.1 2.2,2.8s2.1,1 3.4,1z" id="svg_46"/>
    <path class="st8" d="m212.00004,89.84933l0,-1.5l2.9,-0.2l0,-15.5l-2.9,-0.2l0,-1.5l4.7,0l0.2,3.4c0.6,-1.2 1.4,-2.1 2.5,-2.8s2.3,-1 3.7,-1c2.1,0 3.6,0.6 4.7,1.9s1.6,3.2 1.6,5.9l0,9.8l2.9,0.2l0,1.5l-7.8,0l0,-1.5l2.9,-0.2l0,-9.8c0,-2.2 -0.4,-3.8 -1.2,-4.7s-2,-1.4 -3.5,-1.4c-1.6,0 -2.8,0.4 -3.7,1.3s-1.5,2 -1.9,3.4l0,11l2.9,0.2l0,1.5l-8,0l0,0.2z" id="svg_47"/>
    <path class="st8" d="m241.80004,90.24933c-1.3,0 -2.6,-0.2 -3.7,-0.5s-2.2,-0.9 -3.2,-1.6l0,-3.9l1.7,0l0.3,2.8c0.7,0.5 1.4,0.9 2.3,1.1s1.7,0.4 2.7,0.4c1.6,0 2.8,-0.3 3.6,-1s1.2,-1.5 1.2,-2.5c0,-0.9 -0.4,-1.7 -1.1,-2.4s-2.1,-1.2 -4,-1.7c-2.3,-0.5 -3.9,-1.1 -4.9,-2s-1.5,-2 -1.5,-3.4c0,-1 0.3,-1.8 0.8,-2.6s1.3,-1.4 2.3,-1.8s2.2,-0.7 3.5,-0.7c1.4,0 2.6,0.2 3.6,0.6s1.9,0.9 2.7,1.6l0.1,3.9l-1.7,0l-0.2,-2.8c-0.5,-0.5 -1.1,-0.9 -1.8,-1.2s-1.6,-0.4 -2.6,-0.4c-1.4,0 -2.5,0.3 -3.3,1s-1.2,1.4 -1.2,2.3c0,0.6 0.1,1.1 0.4,1.5s0.7,0.8 1.4,1.2s1.7,0.7 3,1c2.4,0.5 4.1,1.3 5.2,2.2s1.6,2.1 1.6,3.6c0,1.5 -0.6,2.8 -1.8,3.8s-3.1,1.5 -5.4,1.5z" id="svg_48"/>
   </g>
   <text transform="matrix(1,0,0,1,81.1239,51.5996) " class="st13 st16 st15" id="svg_49" y="38.24933" x="-28.49996">TI Solutions</text>
  </g>
 </g>
</svg>