<svg width="275" height="165" fill="none" stroke="none" stroke-linecap="square" stroke-miterlimit="10" xmlns="http://www.w3.org/2000/svg">
 <clipPath id="p.0">
  <path id="svg_1" clip-rule="nonzero" d="m0,0l960,0l0,540l-960,0l0,-540z"/>
 </clipPath>

 <g>
  <title>background</title>
  <rect fill="none" id="canvas_background" height="167" width="277" y="-1" x="-1"/>
 </g>
 <g>
  <title>Layer 1</title>
  <g stroke="null" id="svg_2" clip-path="url(#p.0)">
   <path stroke="null" id="svg_4" fill-rule="evenodd" d="m6.2021,81.18373l0,0c0,-26.59665 21.56084,-48.15749 48.15747,-48.15749l0,0c12.77217,0 25.02121,5.07373 34.05249,14.10501c9.03128,9.03128 14.105,21.28032 14.105,34.05248l0,0c0,26.59663 -21.56084,48.15747 -48.15749,48.15747l0,0c-26.59663,0 -48.15747,-21.56084 -48.15747,-48.15747z" fill-opacity="0" fill="#b7b9bb"/>
   <path stroke="#b7b9bb" id="svg_5" fill-rule="evenodd" d="m6.2021,81.18373l0,0c0,-26.59665 21.56084,-48.15749 48.15747,-48.15749l0,0c12.77217,0 25.02121,5.07373 34.05249,14.10501c9.03128,9.03128 14.105,21.28032 14.105,34.05248l0,0c0,26.59663 -21.56084,48.15747 -48.15749,48.15747l0,0c-26.59663,0 -48.15747,-21.56084 -48.15747,-48.15747z" stroke-linejoin="round" stroke-width="4"/>
   <path stroke="null" id="svg_6" fill-rule="evenodd" d="m15.19948,81.17323l0,0c0,-21.62174 17.52788,-39.14961 39.1496,-39.14961l0,0c10.38313,0 20.34099,4.12468 27.68295,11.46665c7.34198,7.34198 11.46666,17.29983 11.46666,27.68296l0,0c0,21.62172 -17.52788,39.1496 -39.14961,39.1496l0,0c-21.62172,0 -39.1496,-17.52788 -39.1496,-39.1496z" fill-opacity="0" fill="#b7b9bb"/>
   <path stroke="#b7b9bb" id="svg_7" fill-rule="evenodd" d="m15.19948,81.17323l0,0c0,-21.62174 17.52788,-39.14961 39.1496,-39.14961l0,0c10.38313,0 20.34099,4.12468 27.68295,11.46665c7.34198,7.34198 11.46666,17.29983 11.46666,27.68296l0,0c0,21.62172 -17.52788,39.1496 -39.14961,39.1496l0,0c-21.62172,0 -39.1496,-17.52788 -39.1496,-39.1496z" stroke-linejoin="round" stroke-width="4"/>
   <path stroke="null" id="svg_8" fill-rule="evenodd" d="m6.19685,74.28871l87.30708,0l0,58.04724l-87.30708,0l0,-58.04724z" fill-opacity="0" fill="#b7b9bb"/>
   <path stroke="null" id="svg_9" fill-rule="nonzero" d="m68.91588,59.31783l0,5.32813l-15.875,0l0,42.24999l-6.3125,0l0,-42.24999l-15.89063,0l0,-5.32813l38.07813,0z" fill="#b7b9bb"/>
   <path stroke="null" id="svg_10" fill-rule="evenodd" d="m105.7638,48.91338l265.70074,0l0,69.29134l-265.70074,0l0,-69.29134z" fill-opacity="0" fill="#b7b9bb"/>
   <path visibility="hidden" stroke="null" id="svg_11" fill-rule="nonzero" d="m130.04504,58.5678l0,2.14063l-6.35938,0l0,16.89063l-2.51562,0l0,-16.89063l-6.35938,0l0,-2.14063l15.23438,0zm11.18152,0q2.48437,0 4.0625,1.3125q1.59375,1.3125 1.59375,3.67188q0,1.875 -0.82813,3.10937q-0.8125,1.23438 -2.46875,1.70313l0,0.0625q1.4375,0.28125 2.125,1.34375q0.6875,1.0625 0.78125,3.64063q0.0625,1.65625 0.3125,2.60937q0.25,0.95313 0.75,1.57813l-2.82812,0q-0.23438,-0.3125 -0.3125,-0.60938q-0.0625,-0.3125 -0.125,-0.84375l-0.10938,-2.09375q-0.04687,-1.48437 -0.64062,-3q-0.57813,-1.51563 -2.59375,-1.59375l-6.26563,0l0,8.14063l-2.53125,0l0,-19.03126l9.07813,0zm-1.14063,8.78125q2.10938,0 3.1875,-0.82812q1.09375,-0.82813 1.09375,-2.57813q0,-1.53125 -0.875,-2.375q-0.85937,-0.85937 -2.42187,-0.85937l-6.39063,0l0,6.64062l5.40625,0zm23.46421,-8.78125l0,2.14063l-10.60938,0l0,6.03125l9.89063,0l0,2.14062l-9.89063,0l0,6.57813l10.70313,0l0,2.14063l-13.23438,0l0,-19.03126l13.14063,0zm11.11084,0l7.4375,19.03126l-2.79688,0l-2.07812,-5.73438l-8.04688,0l-2.14062,5.73438l-2.60938,0l7.4375,-19.03126l2.79688,0zm-1.46875,2.29688l-3.21875,8.875l6.45312,0l-3.17187,-8.875l-0.0625,0zm21.89169,-2.29688l0,2.14063l-6.35938,0l0,16.89063l-2.51562,0l0,-16.89063l-6.35938,0l0,-2.14063l15.23438,0zm5.61902,0l6,15.98438l6.03125,-15.98438l3.45312,0l0,19.03126l-2.39062,0l0,-15.84376l-0.04688,0l-5.95312,15.84376l-2.15625,0l-5.95313,-15.84376l-0.04687,0l0,15.84376l-2.39063,0l0,-19.03126l3.45313,0zm32.84509,0l0,2.14063l-10.60937,0l0,6.03125l9.89062,0l0,2.14062l-9.89062,0l0,6.57813l10.70312,0l0,2.14063l-13.23437,0l0,-19.03126l13.14062,0zm5.81394,0l10.01562,15.43751l0.0625,0l0,-15.43751l2.39063,0l0,19.03126l-2.76563,0l-9.95312,-15.28126l-0.04688,0l0,15.28126l-2.39062,0l0,-19.03126l2.6875,0zm29.78155,0l0,2.14063l-6.35937,0l0,16.89063l-2.51563,0l0,-16.89063l-6.35937,0l0,-2.14063l15.23437,0z" fill="#b7b9bb"/>
   <path stroke="null" id="svg_12" fill-rule="nonzero" d="m125.31067,87.5678q2.60938,0 4.15625,1.42188q1.54688,1.42187 1.54688,4.20312q0,2.79688 -1.54688,4.21875q-1.54687,1.40625 -3.98437,1.40625l-6.10938,0l0,7.78125l-2.53125,0l0,-19.03125l8.46875,0zm-0.70312,9.10938q1.8125,0 2.84375,-0.84375q1.04687,-0.85938 1.04687,-2.64063q0,-1.75 -1.03125,-2.60937q-1.03125,-0.875 -3.01562,-0.875l-5.07813,0l0,6.96875l5.23438,0zm12.0375,-9.10938l0,16.89063l10.07813,0l0,2.14062l-12.60938,0l0,-19.03125l2.53125,0zm20.26245,0l7.4375,19.03125l-2.79687,0l-2.07813,-5.73437l-8.04687,0l-2.14063,5.73437l-2.60937,0l7.4375,-19.03125l2.79687,0zm-1.46875,2.29688l-3.21875,8.875l6.45313,0l-3.17188,-8.875l-0.0625,0zm13.44376,-2.29688l10.01562,15.4375l0.0625,0l0,-15.4375l2.39063,0l0,19.03125l-2.76563,0l-9.95312,-15.28125l-0.04688,0l0,15.28125l-2.39062,0l0,-19.03125l2.6875,0zm19.2503,0l10.01563,15.4375l0.0625,0l0,-15.4375l2.39062,0l0,19.03125l-2.76562,0l-9.95313,-15.28125l-0.04687,0l0,15.28125l-2.39063,0l0,-19.03125l2.6875,0zm19.21903,0l0,19.03125l-2.53125,0l0,-19.03125l2.53125,0zm6.92959,0l10.01563,15.4375l0.0625,0l0,-15.4375l2.39062,0l0,19.03125l-2.76562,0l-9.95313,-15.28125l-0.04687,0l0,15.28125l-2.39063,0l0,-19.03125l2.6875,0zm24.71906,-0.45312q3.375,0 5.53125,1.625q2.15625,1.60937 2.64062,4.6875l-2.53125,0q-0.375,-2.01563 -1.85937,-3.09375q-1.46875,-1.07813 -3.79688,-1.07813q-3.04687,0 -4.78125,2.25q-1.73437,2.25 -1.73437,5.8125q0,3.26563 1.79687,5.4375q1.79688,2.17188 4.71875,2.17188q2.73438,0 4.42188,-1.64063q1.70312,-1.65625 1.70312,-4.28125l0,-0.29687l-6.09375,0l0,-2.125l8.34375,0l0,10.01562l-1.59375,0l-0.67187,-2.375q-1.03125,1.35938 -2.64063,2.09375q-1.60937,0.73438 -3.46875,0.73438q-3.89062,0 -6.48437,-2.78125q-2.57813,-2.79688 -2.57813,-6.82813q0,-4.5 2.4375,-7.40625q2.45313,-2.92187 6.64063,-2.92187z" fill="#b7b9bb"/>
   <path stroke="null" id="svg_13" fill-rule="evenodd" d="m56.13911,82.29921l11.49606,0l0,24.18898l-11.49606,0l0,-24.18898z" fill="#b7b9bb"/>
   <path stroke="null" id="svg_14" fill-rule="evenodd" d="m57.4567,73.36452l0,0c0,-2.45266 1.98123,-4.44094 4.4252,-4.44094l0,0c1.17363,0 2.2992,0.46789 3.12908,1.30072c0.82989,0.83285 1.29611,1.96241 1.29611,3.14022l0,0c0,2.45267 -1.98123,4.44095 -4.42519,4.44095l0,0c-2.44397,0 -4.4252,-1.98828 -4.4252,-4.44095z" fill-opacity="0" fill="#b7b9bb"/>
   <path stroke="#b7b9bb" id="svg_15" fill-rule="evenodd" d="m57.4567,73.36452l0,0c0,-2.45266 1.98123,-4.44094 4.4252,-4.44094l0,0c1.17363,0 2.2992,0.46789 3.12908,1.30072c0.82989,0.83285 1.29611,1.96241 1.29611,3.14022l0,0c0,2.45267 -1.98123,4.44095 -4.42519,4.44095l0,0c-2.44397,0 -4.4252,-1.98828 -4.4252,-4.44095z" stroke-linejoin="round" stroke-width="4"/>
  </g>
 </g>
</svg>
