<?xml version="1.0"?>
<svg width="240" height="105" xmlns="http://www.w3.org/2000/svg" xmlns:svg="http://www.w3.org/2000/svg" xmlns:xlink="http://www.w3.org/1999/xlink">
 <clipPath id="p.0">
  <path clip-rule="nonzero" d="m0,0l960,0l0,540l-960,0l0,-540z" id="svg_1"/>
 </clipPath>
 <defs>
  <symbol height="150.000000pt" id="svg_3" preserveAspectRatio="xMidYMid meet" viewBox="0 0 218.000000 150.000000" width="218.000000pt" xmlns="http://www.w3.org/2000/svg">
   <g fill="#FFFFFF" id="svg_11" transform="translate(0.000000,150.000000) scale(0.100000,-0.100000)">
    <path d="m1995,1479c-148,-51 -246,-155 -324,-344c-96,-232 -122,-265 -218,-273c-29,-2 -53,-6 -53,-9c0,-2 -11,-54 -25,-115c-14,-61 -25,-112 -25,-114c0,-1 21,-6 46,-10c101,-15 242,45 333,141c61,65 94,122 141,245c67,175 110,230 187,240l45,5l34,110c46,149 46,145 -23,145c-32,-1 -85,-10 -118,-21z" id="svg_12"/>
    <path d="m1146,1063c-49,-230 -91,-424 -94,-431c-3,-10 23,-12 124,-10l127,3l88,410c49,226 88,418 89,428c0,15 -12,17 -123,17l-122,0l-89,-417z" id="svg_16"/>
    <path d="m175,838c-13,-58 -175,-824 -175,-830c0,-5 56,-8 125,-8c69,0 125,2 125,4c0,6 169,802 176,833l6,23l-126,0c-122,0 -126,-1 -131,-22z" id="svg_17"/>
    <path d="m462,748c-12,-62 -22,-116 -22,-120c0,-5 34,-8 75,-8c41,0 75,-2 75,-3c0,-2 -29,-141 -65,-308c-36,-167 -65,-305 -65,-306c0,-2 56,-3 125,-3c121,0 125,1 130,23c9,40 125,588 125,592c0,3 36,5 80,5c44,0 80,2 80,4c0,8 41,202 46,219c5,16 -13,17 -278,17l-283,0l-23,-112z" id="svg_18"/>
   </g>
  </symbol>
 </defs>
 <g class="layer">
  <title>background</title>
  <rect fill="none" height="167" id="canvas_background" width="277" x="-1" y="-1"/>
 </g>
 <g class="layer">
  <title>Layer 1</title>
  <g clip-path="url(#p.0)" id="svg_2">
   <path d="m6.2,43.18l0,0c0,-26.59 21.56,-48.15 48.16,-48.15l0,0c12.77,0 25.02,5.07 34.05,14.1c9.03,9.03 14.11,21.28 14.11,34.05l0,0c0,26.6 -21.56,48.16 -48.16,48.16l0,0c-26.6,0 -48.16,-21.56 -48.16,-48.16z" fill="#FFFFFF" fill-opacity="0" fill-rule="evenodd" id="svg_4"/>
   <path d="m15.2,53.17l0,0c0,-21.62 17.53,-39.15 39.15,-39.15l0,0c10.38,0 20.34,4.13 27.68,11.47c7.34,7.34 11.47,17.3 11.47,27.68l0,0c0,21.62 -17.53,39.15 -39.15,39.15l0,0c-21.62,0 -39.15,-17.53 -39.15,-39.15z" fill="#FFFFFF" fill-opacity="0" fill-rule="evenodd" id="svg_6"/>
   <path d="m68.92,31.32l0,5.33l-15.88,0l0,42.25l-6.31,0l0,-42.25l-15.89,0l0,-5.33l38.08,0z" fill="#FFFFFF" fill-rule="nonzero" id="svg_9"/>
   <path d="m56.14,54.3l11.5,0l0,24.19l-11.5,0l0,-24.19z" fill="#FFFFFF" fill-rule="evenodd" id="svg_13" transform="matrix(1 0 0 1 0 0)"/>
   <use id="svg_10" transform="matrix(1 0 0 1 0 0) matrix(0.386973 0 0 0.396574 -58.7878 -72.8904)" x="458.23" xlink:href="#svg_3" y="220.55"/>
   <circle cx="53" cy="51" r="40" stroke="#FFFFFF" stroke-width="3" fill="none" id="svg_19"/>
   <circle cx="53" cy="51" r="46" stroke="#FFFFFF" stroke-width="3" fill="none" id="svg_20"/>
   <circle cx="61.9" cy="47" r="4.1" stroke="#FFFFFF" stroke-width="3" fill="none" id="svg_21"/>
  </g>
 </g>
</svg>