<?xml version="1.0" encoding="utf-8"?>
<!-- Generator: Adobe Illustrator 26.3.1, SVG Export Plug-In . SVG Version: 6.00 Build 0)  -->
<svg version="1.1" xmlns="http://www.w3.org/2000/svg" xmlns:xlink="http://www.w3.org/1999/xlink" x="0px" y="0px"
	 viewBox="0 0 109.29 45.49" style="enable-background:new 0 0 109.29 45.49;" xml:space="preserve">
<style type="text/css">
	.st0{fill:#FFFFFF;stroke:#FFFFFF;stroke-width:0.25;stroke-miterlimit:10;}
	.st1{fill:#FFFFFF;}
	.st2{fill-rule:evenodd;clip-rule:evenodd;fill:#FFFFFF;}
</style>
<g id="Layer_1">
</g>
<g id="Layer_2">
	<g>
		<path class="st0" d="M12.08,28.25v-1.2l1.24-0.24v-8.42h-2.29l-0.17,1.45H9.39v-2.96h9.84v2.96h-1.48l-0.17-1.45h-2.29v8.42
			l1.24,0.24v1.2H12.08z"/>
		<path class="st0" d="M20.44,28.25v-1.2l1.24-0.24v-8.49l-1.24-0.23v-1.21h4.44v1.21l-1.23,0.23v8.49l1.23,0.24v1.2H20.44z"/>
		<path class="st0" d="M26.72,28.25v-1.2l1.24-0.24v-8.49l-1.24-0.23v-1.21h1.24h4.09c0.85,0,1.58,0.15,2.18,0.44
			c0.61,0.3,1.07,0.71,1.39,1.24c0.32,0.53,0.48,1.15,0.48,1.85c0,0.71-0.16,1.33-0.48,1.86c-0.32,0.53-0.79,0.94-1.39,1.23
			c-0.61,0.29-1.33,0.44-2.18,0.44h-2.12v2.87l1.24,0.24v1.2H26.72z M29.93,22.41h2.12c0.7,0,1.22-0.19,1.57-0.56
			c0.35-0.37,0.52-0.85,0.52-1.42c0-0.58-0.17-1.07-0.52-1.45c-0.35-0.38-0.87-0.58-1.57-0.58h-2.12V22.41z"/>
	</g>
	<g>
		<g>
			<g>
				<path class="st1" d="M45.66,22.74c0-5.31-4.2-9.99-10.61-12.82c4.1,7.12,4.1,18.52,0,25.64C41.46,32.74,45.66,28.05,45.66,22.74
					z"/>
				<path class="st1" d="M10.44,9.92c-13.92,5.58-13.92,20.06,0,25.64C6.33,28.44,6.33,17.04,10.44,9.92z"/>
				<path class="st1" d="M9.92,35.05c5.58,13.92,20.06,13.92,25.64,0C28.44,39.15,17.04,39.15,9.92,35.05z"/>
				<path class="st1" d="M35.56,10.44c-5.58-13.92-20.06-13.92-25.64,0C17.04,6.33,28.44,6.33,35.56,10.44z"/>
			</g>
		</g>
		<g>
			<path class="st2" d="M107.33,6.85c-0.21-0.09-0.46-0.14-0.75-0.14c-1.19,0.06-2.16,0.58-2.9,1.55c-0.74,0.98-1.33,2.09-1.78,3.34
				c-0.45,1.25-0.84,2.31-1.18,3.19c-0.6,1.53-1.47,2.99-2.59,4.39c-1.19,1.36-2.55,2.41-4.09,3.15c-1.53,0.74-2.84,1-4.4,1.02
				c-0.56,0-1.29-0.14-1.76-0.29l1.3-6.21c0.51,0.09,1.03,0.16,1.39,0.15c1.04-0.04,2.24-0.58,3.04-1.67
				c0.64-0.87,1.1-1.86,1.46-2.92c0.51-1.38,1.09-2.79,1.74-4.25c0.65-1.45,1.49-2.79,2.54-4.01c1.19-1.31,2.53-2.32,4.02-3.02
				c1.48-0.7,2.99-1.06,4.52-1.07c0.48,0,0.95,0.04,1.4,0.13L107.33,6.85z"/>
			<polygon class="st2" points="59.03,39.47 52.57,39.51 57.21,17.04 63.67,17.01 			"/>
			<polygon class="st2" points="86.55,23.08 80.08,23.11 84.72,0.71 91.18,0.67 			"/>
			<polygon class="st1" points="71.12,39.4 64.66,39.44 68.02,23.18 63.94,23.2 65.23,17 79.85,16.92 78.57,23.12 74.48,23.14 			
				"/>
		</g>
	</g>
</g>
</svg>
