<?xml version="1.0" encoding="utf-8"?>
<!-- Generator: Adobe Illustrator 16.0.4, SVG Export Plug-In . SVG Version: 6.00 Build 0)  -->
<!DOCTYPE svg PUBLIC "-//W3C//DTD SVG 1.1//EN" "http://www.w3.org/Graphics/SVG/1.1/DTD/svg11.dtd">
<svg version="1.1" id="Layer_1" xmlns="http://www.w3.org/2000/svg" xmlns:xlink="http://www.w3.org/1999/xlink" x="0px" y="0px"
	 width="1493.79px" height="204.09px" viewBox="0 0 1493.79 204.09" enable-background="new 0 0 1493.79 204.09"
	 xml:space="preserve">
<path fill="#FFFFFF" d="M458.238,6.936h145.333L458.238,199.16V6.936z M453.52,2.006L304.487,199.16l-0.01-197.154L155.377,199.16
	H36.736L185.817,2.006H0v4.929h149.091L0.02,204.09h184.665L299.763,51.896V204.09h33.974L453.52,45.688V204.09h33.993
	L636.583,6.936h83.931V2.006H453.52z"/>
<g>
	<path fill="#FFFFFF" d="M1428.202,203.426h7.501v-70.132c0-6.165,4.164-9.157,7.495-9.157c4.379,0,6.246,1.664,6.246,6.987v72.302
		h7.501v-74.462c0-7.496-3.969-9.824-11.04-9.824c-4.793,0-8.542,3.005-9.783,5.165h-0.419V83.151h-7.501V203.426z M1389.059,175.45
		v19.142c0,2.172-1.035,4.502-5.828,4.502c-4.783,0-6.039-2.33-6.039-4.828v-64.468c0-3.322,1.256-5.661,6.039-5.661
		c4.793,0,5.828,2.339,5.828,5.661v16.157h7.5v-16.821c0-6.169-3.532-9.994-13.328-9.994c-9.994,0-13.532,3.825-13.532,9.994v64.962
		c0,5.661,3.538,9.994,13.532,9.994c9.796,0,13.328-4.333,13.328-9.994V175.45H1389.059z M1332.212,157.784h-13.108v-27.986
		c0-3.322,1.873-5.661,6.454-5.661c4.794,0,6.654,2.339,6.654,5.661V157.784z M1332.212,175.607v17.825
		c0,3.331-1.451,5.661-6.654,5.661c-4.99,0-6.454-2.33-6.454-5.661v-30.653h20.616v-33.646c0-6.169-4.385-9.994-14.162-9.994
		c-9.368,0-13.948,3.825-13.948,9.994v64.962c0,5.661,4.58,9.994,13.948,9.994c9.777,0,14.162-4.333,14.162-9.994v-18.488H1332.212z
		 M1260.182,124.8h6.452v71.132c0,6.155,3.748,8.158,10.403,8.158h6.248v-4.996h-4.777c-2.713,0-4.384-1.329-4.384-4.671V124.8
		h9.161v-4.997h-9.161v-18.151l-7.49,3.331v14.82h-6.452V124.8z M1200.01,193.264c0,3.997-4.384,5.83-7.713,5.83
		c-3.949,0-6.039-1.992-6.039-5.83v-63.466c0-3.502,1.879-5.661,6.665-5.661c4.583,0,7.087,4.332,7.087,7.661V193.264z
		 M1178.77,193.591c0,6.505,4.158,10.499,11.446,10.499c6.036,0,7.501-1.665,9.171-3.836h0.623v3.172h7.49V83.151h-7.49v40.153
		h-0.417c-1.67-2.499-5.209-4.164-9.797-4.164c-7.487,0-11.026,3.331-11.026,9.824V193.591z M1138.369,157.784h-13.113v-27.986
		c0-3.322,1.877-5.661,6.452-5.661c4.794,0,6.661,2.339,6.661,5.661V157.784z M1138.369,175.607v17.825
		c0,3.331-1.452,5.661-6.661,5.661c-5,0-6.452-2.33-6.452-5.661v-30.653h20.614v-33.646c0-6.169-4.379-9.994-14.162-9.994
		c-9.368,0-13.952,3.825-13.952,9.994v64.962c0,5.661,4.584,9.994,13.952,9.994c9.783,0,14.162-4.333,14.162-9.994v-18.488H1138.369
		z M1035.928,203.426h7.5V134.14c0-7.011,4.162-10.003,7.493-10.003c4.378,0,6.246,1.664,6.246,6.165v73.124h7.499v-70.132
		c0-6.165,4.16-9.157,7.492-9.157c4.378,0,6.254,1.664,6.254,6.987v72.302h7.491v-74.462c0-7.496-3.951-9.824-11.038-9.824
		c-5.611,0-9.782,3.005-11.031,5.501h-0.409c-0.638-2.834-2.712-5.501-9.798-5.501c-4.783,0-8.541,3.005-9.783,5.165h-0.416v-4.502
		h-7.5V203.426z M950.357,203.426h7.5v-70.132c0-6.165,4.158-9.157,7.489-9.157c4.377,0,6.245,1.664,6.245,6.987v72.302h7.5v-74.462
		c0-7.496-3.962-9.824-11.039-9.824c-4.794,0-8.535,3.005-9.777,5.165h-0.418V83.151h-7.5V203.426z M911.212,175.45v19.142
		c0,2.172-1.04,4.502-5.835,4.502c-4.78,0-6.035-2.33-6.035-4.828v-64.468c0-3.322,1.255-5.661,6.035-5.661
		c4.795,0,5.835,2.339,5.835,5.661v16.157h7.501v-16.821c0-6.169-3.538-9.994-13.336-9.994c-9.987,0-13.526,3.825-13.526,9.994
		v64.962c0,5.661,3.539,9.994,13.526,9.994c9.798,0,13.336-4.333,13.336-9.994V175.45H911.212z M852.708,97.478h9.158v-8.666h-9.158
		V97.478z M853.534,203.426h7.494v-83.623h-7.494V203.426z M806.483,203.426h7.496v-70.132c0-6.165,4.169-9.157,10.83-9.157v-4.997
		c-5.419,0-9.159,3.005-10.42,5.165h-0.41v-4.502h-7.496V203.426z M771.916,203.426v-83.623h-7.491v70.131
		c0,6.167-4.168,9.16-7.5,9.16c-4.366,0-6.245-1.665-6.245-6.999v-72.292h-7.489v74.463c0,7.482,3.95,9.824,11.027,9.824
		c4.794,0,8.536-2.993,9.791-5.165h0.416v4.501H771.916z M689.052,203.426h25.824v-5.009h-18.538l18.538-71.288v-7.326h-24.581
		v4.997h17.284l-18.527,71.964V203.426z"/>
</g>
</svg>
