<?xml version="1.0" encoding="UTF-8" standalone="no"?>
<!DOCTYPE svg PUBLIC "-//W3C//DTD SVG 1.1//EN"
 "http://www.w3.org/Graphics/SVG/1.1/DTD/svg11.dtd">
<!-- Generated by graphviz version 2.43.0 (0)
 -->
<!-- Title: %3 Pages: 1 -->
<svg width="992pt" height="1260pt"
 viewBox="0.00 0.00 992.00 1260.00" xmlns="http://www.w3.org/2000/svg" xmlns:xlink="http://www.w3.org/1999/xlink">
<g id="graph0" class="graph" transform="scale(1 1) rotate(0) translate(4 1256)">
<title>%3</title>
<polygon fill="white" stroke="transparent" points="-4,4 -4,-1256 988,-1256 988,4 -4,4"/>
<!-- file_meta_data -->
<g id="node1" class="node">
<title>file_meta_data</title>
<polygon fill="none" stroke="black" points="8.5,-600 8.5,-626 201.5,-626 201.5,-600 8.5,-600"/>
<text text-anchor="start" x="52.52" y="-609.2" font-family="Helvetica,sans-Serif" font-weight="bold" font-size="16.00">file_meta_data</text>
<polygon fill="none" stroke="black" points="8.5,-576 8.5,-600 201.5,-600 201.5,-576 8.5,-576"/>
<text text-anchor="start" x="13.5" y="-584.8" font-family="Helvetica,sans-Serif" text-decoration="underline" font-size="14.00">file_uuid</text>
<text text-anchor="start" x="65.65" y="-584.8" font-family="Helvetica,sans-Serif" font-size="14.00"> [VARCHAR]</text>
<polygon fill="none" stroke="black" points="8.5,-552 8.5,-576 201.5,-576 201.5,-552 8.5,-552"/>
<text text-anchor="start" x="13.5" y="-560.8" font-family="Helvetica,sans-Serif" font-size="14.00">location_id</text>
<text text-anchor="start" x="80.44" y="-560.8" font-family="Helvetica,sans-Serif" font-size="14.00"> [VARCHAR]</text>
<polygon fill="none" stroke="black" points="8.5,-528 8.5,-552 201.5,-552 201.5,-528 8.5,-528"/>
<text text-anchor="start" x="13.5" y="-536.8" font-family="Helvetica,sans-Serif" font-size="14.00">location</text>
<text text-anchor="start" x="61.75" y="-536.8" font-family="Helvetica,sans-Serif" font-size="14.00"> [VARCHAR]</text>
<polygon fill="none" stroke="black" points="8.5,-504 8.5,-528 201.5,-528 201.5,-504 8.5,-504"/>
<text text-anchor="start" x="13.5" y="-512.8" font-family="Helvetica,sans-Serif" font-size="14.00">bucket_name</text>
<text text-anchor="start" x="97.55" y="-512.8" font-family="Helvetica,sans-Serif" font-size="14.00"> [VARCHAR]</text>
<polygon fill="none" stroke="black" points="8.5,-480 8.5,-504 201.5,-504 201.5,-480 8.5,-480"/>
<text text-anchor="start" x="13.5" y="-488.8" font-family="Helvetica,sans-Serif" font-size="14.00">object_name</text>
<text text-anchor="start" x="93.67" y="-488.8" font-family="Helvetica,sans-Serif" font-size="14.00"> [VARCHAR]</text>
<polygon fill="none" stroke="black" points="8.5,-456 8.5,-480 201.5,-480 201.5,-456 8.5,-456"/>
<text text-anchor="start" x="13.5" y="-464.8" font-family="Helvetica,sans-Serif" font-size="14.00">project_id</text>
<text text-anchor="start" x="74.2" y="-464.8" font-family="Helvetica,sans-Serif" font-size="14.00"> [VARCHAR]</text>
<polygon fill="none" stroke="black" points="8.5,-432 8.5,-456 201.5,-456 201.5,-432 8.5,-432"/>
<text text-anchor="start" x="13.5" y="-440.8" font-family="Helvetica,sans-Serif" font-size="14.00">project_name</text>
<text text-anchor="start" x="98.33" y="-440.8" font-family="Helvetica,sans-Serif" font-size="14.00"> [VARCHAR]</text>
<polygon fill="none" stroke="black" points="8.5,-408 8.5,-432 201.5,-432 201.5,-408 8.5,-408"/>
<text text-anchor="start" x="13.5" y="-416.8" font-family="Helvetica,sans-Serif" font-size="14.00">node_id</text>
<text text-anchor="start" x="63.33" y="-416.8" font-family="Helvetica,sans-Serif" font-size="14.00"> [VARCHAR]</text>
<polygon fill="none" stroke="black" points="8.5,-384 8.5,-408 201.5,-408 201.5,-384 8.5,-384"/>
<text text-anchor="start" x="13.5" y="-392.8" font-family="Helvetica,sans-Serif" font-size="14.00">node_name</text>
<text text-anchor="start" x="87.45" y="-392.8" font-family="Helvetica,sans-Serif" font-size="14.00"> [VARCHAR]</text>
<polygon fill="none" stroke="black" points="8.5,-360 8.5,-384 201.5,-384 201.5,-360 8.5,-360"/>
<text text-anchor="start" x="13.5" y="-368.8" font-family="Helvetica,sans-Serif" font-size="14.00">file_name</text>
<text text-anchor="start" x="74.2" y="-368.8" font-family="Helvetica,sans-Serif" font-size="14.00"> [VARCHAR]</text>
<polygon fill="none" stroke="black" points="8.5,-336 8.5,-360 201.5,-360 201.5,-336 8.5,-336"/>
<text text-anchor="start" x="13.5" y="-344.8" font-family="Helvetica,sans-Serif" font-size="14.00">user_id</text>
<text text-anchor="start" x="59.42" y="-344.8" font-family="Helvetica,sans-Serif" font-size="14.00"> [VARCHAR]</text>
<polygon fill="none" stroke="black" points="8.5,-312 8.5,-336 201.5,-336 201.5,-312 8.5,-312"/>
<text text-anchor="start" x="13.5" y="-320.8" font-family="Helvetica,sans-Serif" font-size="14.00">user_name</text>
<text text-anchor="start" x="83.54" y="-320.8" font-family="Helvetica,sans-Serif" font-size="14.00"> [VARCHAR]</text>
<polygon fill="none" stroke="black" points="8.5,-288 8.5,-312 201.5,-312 201.5,-288 8.5,-288"/>
<text text-anchor="start" x="13.5" y="-296.8" font-family="Helvetica,sans-Serif" font-size="14.00">file_id</text>
<text text-anchor="start" x="50.08" y="-296.8" font-family="Helvetica,sans-Serif" font-size="14.00"> [VARCHAR]</text>
<polygon fill="none" stroke="black" points="8.5,-264 8.5,-288 201.5,-288 201.5,-264 8.5,-264"/>
<text text-anchor="start" x="13.5" y="-272.8" font-family="Helvetica,sans-Serif" font-size="14.00">raw_file_path</text>
<text text-anchor="start" x="96.78" y="-272.8" font-family="Helvetica,sans-Serif" font-size="14.00"> [VARCHAR]</text>
<polygon fill="none" stroke="black" points="8.5,-240 8.5,-264 201.5,-264 201.5,-240 8.5,-240"/>
<text text-anchor="start" x="13.31" y="-248.8" font-family="Helvetica,sans-Serif" font-size="14.00">display_file_path</text>
<text text-anchor="start" x="117.6" y="-248.8" font-family="Helvetica,sans-Serif" font-size="14.00"> [VARCHAR]</text>
<polygon fill="none" stroke="black" points="8.5,-216 8.5,-240 201.5,-240 201.5,-216 8.5,-216"/>
<text text-anchor="start" x="13.5" y="-224.8" font-family="Helvetica,sans-Serif" font-size="14.00">created_at</text>
<text text-anchor="start" x="79.66" y="-224.8" font-family="Helvetica,sans-Serif" font-size="14.00"> [VARCHAR]</text>
<polygon fill="none" stroke="black" points="8.5,-192 8.5,-216 201.5,-216 201.5,-192 8.5,-192"/>
<text text-anchor="start" x="13.5" y="-200.8" font-family="Helvetica,sans-Serif" font-size="14.00">last_modified</text>
<text text-anchor="start" x="95.99" y="-200.8" font-family="Helvetica,sans-Serif" font-size="14.00"> [VARCHAR]</text>
<polygon fill="none" stroke="black" points="8.5,-168 8.5,-192 201.5,-192 201.5,-168 8.5,-168"/>
<text text-anchor="start" x="13.5" y="-176.8" font-family="Helvetica,sans-Serif" font-size="14.00">file_size</text>
<text text-anchor="start" x="64.08" y="-176.8" font-family="Helvetica,sans-Serif" font-size="14.00"> [INTEGER]</text>
</g>
<!-- groups -->
<g id="node2" class="node">
<title>groups</title>
<polygon fill="none" stroke="black" points="26.5,-820 26.5,-846 182.5,-846 182.5,-820 26.5,-820"/>
<text text-anchor="start" x="80.04" y="-829.2" font-family="Helvetica,sans-Serif" font-weight="bold" font-size="16.00">groups</text>
<polygon fill="none" stroke="black" points="26.5,-796 26.5,-820 182.5,-820 182.5,-796 26.5,-796"/>
<text text-anchor="start" x="31.5" y="-804.8" font-family="Helvetica,sans-Serif" text-decoration="underline" font-size="14.00">gid</text>
<text text-anchor="start" x="50.18" y="-804.8" font-family="Helvetica,sans-Serif" font-size="14.00"> [BIGINT]</text>
<polygon fill="none" stroke="black" points="26.5,-772 26.5,-796 182.5,-796 182.5,-772 26.5,-772"/>
<text text-anchor="start" x="31.5" y="-780.8" font-family="Helvetica,sans-Serif" font-size="14.00">name</text>
<text text-anchor="start" x="66.52" y="-780.8" font-family="Helvetica,sans-Serif" font-size="14.00"> [VARCHAR]</text>
<polygon fill="none" stroke="black" points="26.5,-748 26.5,-772 182.5,-772 182.5,-748 26.5,-748"/>
<text text-anchor="start" x="31.1" y="-756.8" font-family="Helvetica,sans-Serif" font-size="14.00">description</text>
<text text-anchor="start" x="98.81" y="-756.8" font-family="Helvetica,sans-Serif" font-size="14.00"> [VARCHAR]</text>
<polygon fill="none" stroke="black" points="26.5,-724 26.5,-748 182.5,-748 182.5,-724 26.5,-724"/>
<text text-anchor="start" x="31.5" y="-732.8" font-family="Helvetica,sans-Serif" font-size="14.00">type</text>
<text text-anchor="start" x="57.96" y="-732.8" font-family="Helvetica,sans-Serif" font-size="14.00"> [VARCHAR(8)]</text>
<polygon fill="none" stroke="black" points="26.5,-700 26.5,-724 182.5,-724 182.5,-700 26.5,-700"/>
<text text-anchor="start" x="31.5" y="-708.8" font-family="Helvetica,sans-Serif" font-size="14.00">thumbnail</text>
<text text-anchor="start" x="92.2" y="-708.8" font-family="Helvetica,sans-Serif" font-size="14.00"> [VARCHAR]</text>
<polygon fill="none" stroke="black" points="26.5,-676 26.5,-700 182.5,-700 182.5,-676 26.5,-676"/>
<text text-anchor="start" x="31.5" y="-684.8" font-family="Helvetica,sans-Serif" font-size="14.00">created</text>
<text text-anchor="start" x="78.2" y="-684.8" font-family="Helvetica,sans-Serif" font-size="14.00"> [DATETIME]</text>
<polygon fill="none" stroke="black" points="26.5,-652 26.5,-676 182.5,-676 182.5,-652 26.5,-652"/>
<text text-anchor="start" x="31.5" y="-660.8" font-family="Helvetica,sans-Serif" font-size="14.00">modified</text>
<text text-anchor="start" x="84.42" y="-660.8" font-family="Helvetica,sans-Serif" font-size="14.00"> [DATETIME]</text>
</g>
<!-- user_to_groups -->
<g id="node3" class="node">
<title>user_to_groups</title>
<polygon fill="none" stroke="black" points="590.5,-1176 590.5,-1202 743.5,-1202 743.5,-1176 590.5,-1176"/>
<text text-anchor="start" x="611.41" y="-1185.2" font-family="Helvetica,sans-Serif" font-weight="bold" font-size="16.00">user_to_groups</text>
<polygon fill="none" stroke="black" points="590.5,-1152 590.5,-1176 743.5,-1176 743.5,-1152 590.5,-1152"/>
<text text-anchor="start" x="595.5" y="-1160.8" font-family="Helvetica,sans-Serif" font-size="14.00">uid</text>
<text text-anchor="start" x="614.18" y="-1160.8" font-family="Helvetica,sans-Serif" font-size="14.00"> [BIGINT]</text>
<polygon fill="none" stroke="black" points="590.5,-1128 590.5,-1152 743.5,-1152 743.5,-1128 590.5,-1128"/>
<text text-anchor="start" x="595.5" y="-1136.8" font-family="Helvetica,sans-Serif" font-size="14.00">gid</text>
<text text-anchor="start" x="614.18" y="-1136.8" font-family="Helvetica,sans-Serif" font-size="14.00"> [BIGINT]</text>
<polygon fill="none" stroke="black" points="590.5,-1104 590.5,-1128 743.5,-1128 743.5,-1104 590.5,-1104"/>
<text text-anchor="start" x="595.03" y="-1112.8" font-family="Helvetica,sans-Serif" font-size="14.00">access_rights</text>
<text text-anchor="start" x="680.62" y="-1112.8" font-family="Helvetica,sans-Serif" font-size="14.00"> [JSONB]</text>
<polygon fill="none" stroke="black" points="590.5,-1080 590.5,-1104 743.5,-1104 743.5,-1080 590.5,-1080"/>
<text text-anchor="start" x="595.5" y="-1088.8" font-family="Helvetica,sans-Serif" font-size="14.00">created</text>
<text text-anchor="start" x="642.2" y="-1088.8" font-family="Helvetica,sans-Serif" font-size="14.00"> [DATETIME]</text>
<polygon fill="none" stroke="black" points="590.5,-1056 590.5,-1080 743.5,-1080 743.5,-1056 590.5,-1056"/>
<text text-anchor="start" x="595.5" y="-1064.8" font-family="Helvetica,sans-Serif" font-size="14.00">modified</text>
<text text-anchor="start" x="648.42" y="-1064.8" font-family="Helvetica,sans-Serif" font-size="14.00"> [DATETIME]</text>
</g>
<!-- groups&#45;&#45;user_to_groups -->
<g id="edge1" class="edge">
<title>groups&#45;&#45;user_to_groups</title>
<path fill="none" stroke="#7f7f7f" stroke-dasharray="5,2" d="M190.65,-756.61C274.96,-768.35 403.01,-798.06 485,-873 545.69,-928.48 508.18,-977.58 558,-1043 565.02,-1052.22 573.24,-1061.04 581.96,-1069.27"/>
<text text-anchor="start" x="551.02" y="-1058.07" font-family="Times,serif" font-size="14.00">{0,1}</text>
<text text-anchor="start" x="190.65" y="-745.41" font-family="Times,serif" font-size="14.00">0..N</text>
</g>
<!-- users -->
<g id="node4" class="node">
<title>users</title>
<polygon fill="none" stroke="black" points="290.5,-688 290.5,-714 477.5,-714 477.5,-688 290.5,-688"/>
<text text-anchor="start" x="364.44" y="-697.2" font-family="Helvetica,sans-Serif" font-weight="bold" font-size="16.00">users</text>
<polygon fill="none" stroke="black" points="290.5,-664 290.5,-688 477.5,-688 477.5,-664 290.5,-664"/>
<text text-anchor="start" x="295.5" y="-672.8" font-family="Helvetica,sans-Serif" text-decoration="underline" font-size="14.00">id</text>
<text text-anchor="start" x="306.4" y="-672.8" font-family="Helvetica,sans-Serif" font-size="14.00"> [BIGINT]</text>
<polygon fill="none" stroke="black" points="290.5,-640 290.5,-664 477.5,-664 477.5,-640 290.5,-640"/>
<text text-anchor="start" x="295.5" y="-648.8" font-family="Helvetica,sans-Serif" font-size="14.00">name</text>
<text text-anchor="start" x="330.52" y="-648.8" font-family="Helvetica,sans-Serif" font-size="14.00"> [VARCHAR]</text>
<polygon fill="none" stroke="black" points="290.5,-616 290.5,-640 477.5,-640 477.5,-616 290.5,-616"/>
<text text-anchor="start" x="295.5" y="-624.8" font-family="Helvetica,sans-Serif" font-size="14.00">email</text>
<text text-anchor="start" x="328.96" y="-624.8" font-family="Helvetica,sans-Serif" font-size="14.00"> [VARCHAR]</text>
<polygon fill="none" stroke="black" points="290.5,-592 290.5,-616 477.5,-616 477.5,-592 290.5,-592"/>
<text text-anchor="start" x="295.42" y="-600.8" font-family="Helvetica,sans-Serif" font-size="14.00">password_hash</text>
<text text-anchor="start" x="393.48" y="-600.8" font-family="Helvetica,sans-Serif" font-size="14.00"> [VARCHAR]</text>
<polygon fill="none" stroke="black" points="290.5,-568 290.5,-592 477.5,-592 477.5,-568 290.5,-568"/>
<text text-anchor="start" x="295.5" y="-576.8" font-family="Helvetica,sans-Serif" font-size="14.00">primary_gid</text>
<text text-anchor="start" x="368.64" y="-576.8" font-family="Helvetica,sans-Serif" font-size="14.00"> [BIGINT]</text>
<polygon fill="none" stroke="black" points="290.5,-544 290.5,-568 477.5,-568 477.5,-544 290.5,-544"/>
<text text-anchor="start" x="295.5" y="-552.8" font-family="Helvetica,sans-Serif" font-size="14.00">status</text>
<text text-anchor="start" x="332.85" y="-552.8" font-family="Helvetica,sans-Serif" font-size="14.00"> [VARCHAR(20)]</text>
<polygon fill="none" stroke="black" points="290.5,-520 290.5,-544 477.5,-544 477.5,-520 290.5,-520"/>
<text text-anchor="start" x="295.5" y="-528.8" font-family="Helvetica,sans-Serif" font-size="14.00">role</text>
<text text-anchor="start" x="318.84" y="-528.8" font-family="Helvetica,sans-Serif" font-size="14.00"> [VARCHAR(9)]</text>
<polygon fill="none" stroke="black" points="290.5,-496 290.5,-520 477.5,-520 477.5,-496 290.5,-496"/>
<text text-anchor="start" x="295.5" y="-504.8" font-family="Helvetica,sans-Serif" font-size="14.00">created_at</text>
<text text-anchor="start" x="361.66" y="-504.8" font-family="Helvetica,sans-Serif" font-size="14.00"> [DATETIME]</text>
<polygon fill="none" stroke="black" points="290.5,-472 290.5,-496 477.5,-496 477.5,-472 290.5,-472"/>
<text text-anchor="start" x="295.5" y="-480.8" font-family="Helvetica,sans-Serif" font-size="14.00">modified</text>
<text text-anchor="start" x="348.42" y="-480.8" font-family="Helvetica,sans-Serif" font-size="14.00"> [DATETIME]</text>
<polygon fill="none" stroke="black" points="290.5,-448 290.5,-472 477.5,-472 477.5,-448 290.5,-448"/>
<text text-anchor="start" x="295.5" y="-456.8" font-family="Helvetica,sans-Serif" font-size="14.00">created_ip</text>
<text text-anchor="start" x="360.88" y="-456.8" font-family="Helvetica,sans-Serif" font-size="14.00"> [VARCHAR]</text>
</g>
<!-- groups&#45;&#45;users -->
<g id="edge2" class="edge">
<title>groups&#45;&#45;users</title>
<path fill="none" stroke="#7f7f7f" stroke-dasharray="5,2" d="M190.87,-697.22C219.64,-679.77 252.02,-660.14 281.86,-642.04"/>
<text text-anchor="start" x="250.92" y="-630.84" font-family="Times,serif" font-size="14.00">{0,1}</text>
<text text-anchor="start" x="190.87" y="-686.02" font-family="Times,serif" font-size="14.00">0..N</text>
</g>
<!-- users&#45;&#45;user_to_groups -->
<g id="edge4" class="edge">
<title>users&#45;&#45;user_to_groups</title>
<path fill="none" stroke="#7f7f7f" stroke-dasharray="5,2" d="M467.54,-718.2C487.89,-756.54 507.86,-798.97 522,-840 551.85,-926.63 511.22,-964.21 558,-1043 564.41,-1053.79 572.71,-1063.77 581.85,-1072.82"/>
<text text-anchor="start" x="550.91" y="-1075.62" font-family="Times,serif" font-size="14.00">{0,1}</text>
<text text-anchor="start" x="443.43" y="-721" font-family="Times,serif" font-size="14.00">0..N</text>
</g>
<!-- projects -->
<g id="node5" class="node">
<title>projects</title>
<polygon fill="none" stroke="black" points="566.5,-1004 566.5,-1030 767.5,-1030 767.5,-1004 566.5,-1004"/>
<text text-anchor="start" x="638.99" y="-1013.2" font-family="Helvetica,sans-Serif" font-weight="bold" font-size="16.00">projects</text>
<polygon fill="none" stroke="black" points="566.5,-980 566.5,-1004 767.5,-1004 767.5,-980 566.5,-980"/>
<text text-anchor="start" x="571.5" y="-988.8" font-family="Helvetica,sans-Serif" text-decoration="underline" font-size="14.00">id</text>
<text text-anchor="start" x="582.4" y="-988.8" font-family="Helvetica,sans-Serif" font-size="14.00"> [BIGINT]</text>
<polygon fill="none" stroke="black" points="566.5,-956 566.5,-980 767.5,-980 767.5,-956 566.5,-956"/>
<text text-anchor="start" x="571.5" y="-964.8" font-family="Helvetica,sans-Serif" font-size="14.00">type</text>
<text text-anchor="start" x="597.96" y="-964.8" font-family="Helvetica,sans-Serif" font-size="14.00"> [VARCHAR(8)]</text>
<polygon fill="none" stroke="black" points="566.5,-932 566.5,-956 767.5,-956 767.5,-932 566.5,-932"/>
<text text-anchor="start" x="571.5" y="-940.8" font-family="Helvetica,sans-Serif" font-size="14.00">uuid</text>
<text text-anchor="start" x="597.97" y="-940.8" font-family="Helvetica,sans-Serif" font-size="14.00"> [VARCHAR]</text>
<polygon fill="none" stroke="black" points="566.5,-908 566.5,-932 767.5,-932 767.5,-908 566.5,-908"/>
<text text-anchor="start" x="571.5" y="-916.8" font-family="Helvetica,sans-Serif" font-size="14.00">name</text>
<text text-anchor="start" x="606.52" y="-916.8" font-family="Helvetica,sans-Serif" font-size="14.00"> [VARCHAR]</text>
<polygon fill="none" stroke="black" points="566.5,-884 566.5,-908 767.5,-908 767.5,-884 566.5,-884"/>
<text text-anchor="start" x="571.5" y="-892.8" font-family="Helvetica,sans-Serif" font-size="14.00">description</text>
<text text-anchor="start" x="639.2" y="-892.8" font-family="Helvetica,sans-Serif" font-size="14.00"> [VARCHAR]</text>
<polygon fill="none" stroke="black" points="566.5,-860 566.5,-884 767.5,-884 767.5,-860 566.5,-860"/>
<text text-anchor="start" x="571.5" y="-868.8" font-family="Helvetica,sans-Serif" font-size="14.00">thumbnail</text>
<text text-anchor="start" x="632.2" y="-868.8" font-family="Helvetica,sans-Serif" font-size="14.00"> [VARCHAR]</text>
<polygon fill="none" stroke="black" points="566.5,-836 566.5,-860 767.5,-860 767.5,-836 566.5,-836"/>
<text text-anchor="start" x="571.5" y="-844.8" font-family="Helvetica,sans-Serif" font-size="14.00">prj_owner</text>
<text text-anchor="start" x="632.98" y="-844.8" font-family="Helvetica,sans-Serif" font-size="14.00"> [BIGINT]</text>
<polygon fill="none" stroke="black" points="566.5,-812 566.5,-836 767.5,-836 767.5,-812 566.5,-812"/>
<text text-anchor="start" x="571.5" y="-820.8" font-family="Helvetica,sans-Serif" font-size="14.00">creation_date</text>
<text text-anchor="start" x="656.34" y="-820.8" font-family="Helvetica,sans-Serif" font-size="14.00"> [DATETIME]</text>
<polygon fill="none" stroke="black" points="566.5,-788 566.5,-812 767.5,-812 767.5,-788 566.5,-788"/>
<text text-anchor="start" x="571.02" y="-796.8" font-family="Helvetica,sans-Serif" font-size="14.00">last_change_date</text>
<text text-anchor="start" x="681.56" y="-796.8" font-family="Helvetica,sans-Serif" font-size="14.00"> [DATETIME]</text>
<polygon fill="none" stroke="black" points="566.5,-764 566.5,-788 767.5,-788 767.5,-764 566.5,-764"/>
<text text-anchor="start" x="571.5" y="-772.8" font-family="Helvetica,sans-Serif" font-size="14.00">access_rights</text>
<text text-anchor="start" x="657.09" y="-772.8" font-family="Helvetica,sans-Serif" font-size="14.00"> [JSONB]</text>
<polygon fill="none" stroke="black" points="566.5,-740 566.5,-764 767.5,-764 767.5,-740 566.5,-740"/>
<text text-anchor="start" x="571.5" y="-748.8" font-family="Helvetica,sans-Serif" font-size="14.00">workbench</text>
<text text-anchor="start" x="639.2" y="-748.8" font-family="Helvetica,sans-Serif" font-size="14.00"> [Null]</text>
<polygon fill="none" stroke="black" points="566.5,-716 566.5,-740 767.5,-740 767.5,-716 566.5,-716"/>
<text text-anchor="start" x="571.5" y="-724.8" font-family="Helvetica,sans-Serif" font-size="14.00">classifiers</text>
<text text-anchor="start" x="632.96" y="-724.8" font-family="Helvetica,sans-Serif" font-size="14.00"> [VARCHAR[]]</text>
<polygon fill="none" stroke="black" points="566.5,-692 566.5,-716 767.5,-716 767.5,-692 566.5,-692"/>
<text text-anchor="start" x="571.5" y="-700.8" font-family="Helvetica,sans-Serif" font-size="14.00">dev</text>
<text text-anchor="start" x="594.07" y="-700.8" font-family="Helvetica,sans-Serif" font-size="14.00"> [JSONB]</text>
<polygon fill="none" stroke="black" points="566.5,-668 566.5,-692 767.5,-692 767.5,-668 566.5,-668"/>
<text text-anchor="start" x="571.5" y="-676.8" font-family="Helvetica,sans-Serif" font-size="14.00">published</text>
<text text-anchor="start" x="631.44" y="-676.8" font-family="Helvetica,sans-Serif" font-size="14.00"> [BOOLEAN]</text>
</g>
<!-- users&#45;&#45;projects -->
<g id="edge5" class="edge">
<title>users&#45;&#45;projects</title>
<path fill="none" stroke="#7f7f7f" stroke-dasharray="5,2" d="M485.15,-677C508.78,-699.53 534.04,-723.62 557.95,-746.42"/>
<text text-anchor="start" x="527.01" y="-735.22" font-family="Times,serif" font-size="14.00">{0,1}</text>
<text text-anchor="start" x="485.15" y="-665.8" font-family="Times,serif" font-size="14.00">0..N</text>
</g>
<!-- tokens -->
<g id="node7" class="node">
<title>tokens</title>
<polygon fill="none" stroke="black" points="579.5,-616 579.5,-642 754.5,-642 754.5,-616 579.5,-616"/>
<text text-anchor="start" x="643.43" y="-625.2" font-family="Helvetica,sans-Serif" font-weight="bold" font-size="16.00">tokens</text>
<polygon fill="none" stroke="black" points="579.5,-592 579.5,-616 754.5,-616 754.5,-592 579.5,-592"/>
<text text-anchor="start" x="584.5" y="-600.8" font-family="Helvetica,sans-Serif" text-decoration="underline" font-size="14.00">token_id</text>
<text text-anchor="start" x="637.43" y="-600.8" font-family="Helvetica,sans-Serif" font-size="14.00"> [BIGINT]</text>
<polygon fill="none" stroke="black" points="579.5,-568 579.5,-592 754.5,-592 754.5,-568 579.5,-568"/>
<text text-anchor="start" x="584.5" y="-576.8" font-family="Helvetica,sans-Serif" font-size="14.00">user_id</text>
<text text-anchor="start" x="630.42" y="-576.8" font-family="Helvetica,sans-Serif" font-size="14.00"> [BIGINT]</text>
<polygon fill="none" stroke="black" points="579.5,-544 579.5,-568 754.5,-568 754.5,-544 579.5,-544"/>
<text text-anchor="start" x="584.26" y="-552.8" font-family="Helvetica,sans-Serif" font-size="14.00">token_service</text>
<text text-anchor="start" x="670.64" y="-552.8" font-family="Helvetica,sans-Serif" font-size="14.00"> [VARCHAR]</text>
<polygon fill="none" stroke="black" points="579.5,-520 579.5,-544 754.5,-544 754.5,-520 579.5,-520"/>
<text text-anchor="start" x="584.5" y="-528.8" font-family="Helvetica,sans-Serif" font-size="14.00">token_data</text>
<text text-anchor="start" x="653.78" y="-528.8" font-family="Helvetica,sans-Serif" font-size="14.00"> [Null]</text>
</g>
<!-- users&#45;&#45;tokens -->
<g id="edge6" class="edge">
<title>users&#45;&#45;tokens</title>
<path fill="none" stroke="#7f7f7f" stroke-dasharray="5,2" d="M485.15,-581C513.03,-581 543.18,-581 570.71,-581"/>
<text text-anchor="start" x="539.77" y="-569.8" font-family="Times,serif" font-size="14.00">{0,1}</text>
<text text-anchor="start" x="485.15" y="-569.8" font-family="Times,serif" font-size="14.00">0..N</text>
</g>
<!-- api_keys -->
<g id="node8" class="node">
<title>api_keys</title>
<polygon fill="none" stroke="black" points="579.5,-468 579.5,-494 754.5,-494 754.5,-468 579.5,-468"/>
<text text-anchor="start" x="635.43" y="-477.2" font-family="Helvetica,sans-Serif" font-weight="bold" font-size="16.00">api_keys</text>
<polygon fill="none" stroke="black" points="579.5,-444 579.5,-468 754.5,-468 754.5,-444 579.5,-444"/>
<text text-anchor="start" x="584.5" y="-452.8" font-family="Helvetica,sans-Serif" text-decoration="underline" font-size="14.00">id</text>
<text text-anchor="start" x="595.4" y="-452.8" font-family="Helvetica,sans-Serif" font-size="14.00"> [BIGINT]</text>
<polygon fill="none" stroke="black" points="579.5,-420 579.5,-444 754.5,-444 754.5,-420 579.5,-420"/>
<text text-anchor="start" x="584.26" y="-428.8" font-family="Helvetica,sans-Serif" font-size="14.00">display_name</text>
<text text-anchor="start" x="670.65" y="-428.8" font-family="Helvetica,sans-Serif" font-size="14.00"> [VARCHAR]</text>
<polygon fill="none" stroke="black" points="579.5,-396 579.5,-420 754.5,-420 754.5,-396 579.5,-396"/>
<text text-anchor="start" x="584.5" y="-404.8" font-family="Helvetica,sans-Serif" font-size="14.00">user_id</text>
<text text-anchor="start" x="630.42" y="-404.8" font-family="Helvetica,sans-Serif" font-size="14.00"> [BIGINT]</text>
<polygon fill="none" stroke="black" points="579.5,-372 579.5,-396 754.5,-396 754.5,-372 579.5,-372"/>
<text text-anchor="start" x="584.5" y="-380.8" font-family="Helvetica,sans-Serif" font-size="14.00">api_key</text>
<text text-anchor="start" x="632.75" y="-380.8" font-family="Helvetica,sans-Serif" font-size="14.00"> [VARCHAR]</text>
<polygon fill="none" stroke="black" points="579.5,-348 579.5,-372 754.5,-372 754.5,-348 579.5,-348"/>
<text text-anchor="start" x="584.5" y="-356.8" font-family="Helvetica,sans-Serif" font-size="14.00">api_secret</text>
<text text-anchor="start" x="649.09" y="-356.8" font-family="Helvetica,sans-Serif" font-size="14.00"> [VARCHAR]</text>
</g>
<!-- users&#45;&#45;api_keys -->
<g id="edge7" class="edge">
<title>users&#45;&#45;api_keys</title>
<path fill="none" stroke="#7f7f7f" stroke-dasharray="5,2" d="M485.15,-523.69C513.03,-507.82 543.18,-490.65 570.71,-474.97"/>
<text text-anchor="start" x="539.77" y="-463.77" font-family="Times,serif" font-size="14.00">{0,1}</text>
<text text-anchor="start" x="485.15" y="-512.49" font-family="Times,serif" font-size="14.00">0..N</text>
</g>
<!-- confirmations -->
<g id="node9" class="node">
<title>confirmations</title>
<polygon fill="none" stroke="black" points="588.5,-296 588.5,-322 745.5,-322 745.5,-296 588.5,-296"/>
<text text-anchor="start" x="619.43" y="-305.2" font-family="Helvetica,sans-Serif" font-weight="bold" font-size="16.00">confirmations</text>
<polygon fill="none" stroke="black" points="588.5,-272 588.5,-296 745.5,-296 745.5,-272 588.5,-272"/>
<text text-anchor="start" x="593.5" y="-280.8" font-family="Helvetica,sans-Serif" text-decoration="underline" font-size="14.00">code</text>
<text text-anchor="start" x="623.86" y="-280.8" font-family="Helvetica,sans-Serif" font-size="14.00"> [TEXT]</text>
<polygon fill="none" stroke="black" points="588.5,-248 588.5,-272 745.5,-272 745.5,-248 588.5,-248"/>
<text text-anchor="start" x="593.5" y="-256.8" font-family="Helvetica,sans-Serif" font-size="14.00">user_id</text>
<text text-anchor="start" x="639.42" y="-256.8" font-family="Helvetica,sans-Serif" font-size="14.00"> [BIGINT]</text>
<polygon fill="none" stroke="black" points="588.5,-224 588.5,-248 745.5,-248 745.5,-224 588.5,-224"/>
<text text-anchor="start" x="593.5" y="-232.8" font-family="Helvetica,sans-Serif" font-size="14.00">action</text>
<text text-anchor="start" x="630.86" y="-232.8" font-family="Helvetica,sans-Serif" font-size="14.00"> [VARCHAR(14)]</text>
<polygon fill="none" stroke="black" points="588.5,-200 588.5,-224 745.5,-224 745.5,-200 588.5,-200"/>
<text text-anchor="start" x="593.5" y="-208.8" font-family="Helvetica,sans-Serif" font-size="14.00">data</text>
<text text-anchor="start" x="620.75" y="-208.8" font-family="Helvetica,sans-Serif" font-size="14.00"> [TEXT]</text>
<polygon fill="none" stroke="black" points="588.5,-176 588.5,-200 745.5,-200 745.5,-176 588.5,-176"/>
<text text-anchor="start" x="593.21" y="-184.8" font-family="Helvetica,sans-Serif" font-size="14.00">created_at</text>
<text text-anchor="start" x="659.37" y="-184.8" font-family="Helvetica,sans-Serif" font-size="14.00"> [DATETIME]</text>
</g>
<!-- users&#45;&#45;confirmations -->
<g id="edge8" class="edge">
<title>users&#45;&#45;confirmations</title>
<path fill="none" stroke="#7f7f7f" stroke-dasharray="5,2" d="M470.99,-443.89C496.99,-406.9 526.93,-368.01 558,-335 564.8,-327.78 572.22,-320.64 579.88,-313.74"/>
<text text-anchor="start" x="548.94" y="-302.54" font-family="Times,serif" font-size="14.00">{0,1}</text>
<text text-anchor="start" x="446.88" y="-432.69" font-family="Times,serif" font-size="14.00">0..N</text>
</g>
<!-- tags -->
<g id="node10" class="node">
<title>tags</title>
<polygon fill="none" stroke="black" points="588.5,-124 588.5,-150 744.5,-150 744.5,-124 588.5,-124"/>
<text text-anchor="start" x="651.38" y="-133.2" font-family="Helvetica,sans-Serif" font-weight="bold" font-size="16.00">tags</text>
<polygon fill="none" stroke="black" points="588.5,-100 588.5,-124 744.5,-124 744.5,-100 588.5,-100"/>
<text text-anchor="start" x="593.5" y="-108.8" font-family="Helvetica,sans-Serif" text-decoration="underline" font-size="14.00">id</text>
<text text-anchor="start" x="604.4" y="-108.8" font-family="Helvetica,sans-Serif" font-size="14.00"> [BIGINT]</text>
<polygon fill="none" stroke="black" points="588.5,-76 588.5,-100 744.5,-100 744.5,-76 588.5,-76"/>
<text text-anchor="start" x="593.5" y="-84.8" font-family="Helvetica,sans-Serif" font-size="14.00">user_id</text>
<text text-anchor="start" x="639.42" y="-84.8" font-family="Helvetica,sans-Serif" font-size="14.00"> [BIGINT]</text>
<polygon fill="none" stroke="black" points="588.5,-52 588.5,-76 744.5,-76 744.5,-52 588.5,-52"/>
<text text-anchor="start" x="593.5" y="-60.8" font-family="Helvetica,sans-Serif" font-size="14.00">name</text>
<text text-anchor="start" x="628.52" y="-60.8" font-family="Helvetica,sans-Serif" font-size="14.00"> [VARCHAR]</text>
<polygon fill="none" stroke="black" points="588.5,-28 588.5,-52 744.5,-52 744.5,-28 588.5,-28"/>
<text text-anchor="start" x="593.1" y="-36.8" font-family="Helvetica,sans-Serif" font-size="14.00">description</text>
<text text-anchor="start" x="660.81" y="-36.8" font-family="Helvetica,sans-Serif" font-size="14.00"> [VARCHAR]</text>
<polygon fill="none" stroke="black" points="588.5,-4 588.5,-28 744.5,-28 744.5,-4 588.5,-4"/>
<text text-anchor="start" x="593.5" y="-12.8" font-family="Helvetica,sans-Serif" font-size="14.00">color</text>
<text text-anchor="start" x="623.84" y="-12.8" font-family="Helvetica,sans-Serif" font-size="14.00"> [VARCHAR]</text>
</g>
<!-- users&#45;&#45;tags -->
<g id="edge9" class="edge">
<title>users&#45;&#45;tags</title>
<path fill="none" stroke="#7f7f7f" stroke-dasharray="5,2" d="M422.2,-443.54C450.32,-357.32 494.84,-246.99 558,-163 564.54,-154.31 572.14,-145.99 580.24,-138.19"/>
<text text-anchor="start" x="549.3" y="-126.99" font-family="Times,serif" font-size="14.00">{0,1}</text>
<text text-anchor="start" x="398.09" y="-432.34" font-family="Times,serif" font-size="14.00">0..N</text>
</g>
<!-- study_tags -->
<g id="node6" class="node">
<title>study_tags</title>
<polygon fill="none" stroke="black" points="856,-474 856,-500 976,-500 976,-474 856,-474"/>
<text text-anchor="start" x="877.31" y="-483.2" font-family="Helvetica,sans-Serif" font-weight="bold" font-size="16.00">study_tags</text>
<polygon fill="none" stroke="black" points="856,-450 856,-474 976,-474 976,-450 856,-450"/>
<text text-anchor="start" x="860.76" y="-458.8" font-family="Helvetica,sans-Serif" font-size="14.00">study_id</text>
<text text-anchor="start" x="912.9" y="-458.8" font-family="Helvetica,sans-Serif" font-size="14.00"> [BIGINT]</text>
<polygon fill="none" stroke="black" points="856,-426 856,-450 976,-450 976,-426 856,-426"/>
<text text-anchor="start" x="861" y="-434.8" font-family="Helvetica,sans-Serif" font-size="14.00">tag_id</text>
<text text-anchor="start" x="899.14" y="-434.8" font-family="Helvetica,sans-Serif" font-size="14.00"> [BIGINT]</text>
</g>
<!-- projects&#45;&#45;study_tags -->
<g id="edge3" class="edge">
<title>projects&#45;&#45;study_tags</title>
<path fill="none" stroke="#7f7f7f" stroke-dasharray="5,2" d="M775.16,-681.1C817,-615.84 861.35,-546.68 888.61,-504.16"/>
<text text-anchor="start" x="857.67" y="-506.96" font-family="Times,serif" font-size="14.00">{0,1}</text>
<text text-anchor="start" x="775.16" y="-669.9" font-family="Times,serif" font-size="14.00">0..N</text>
</g>
<!-- tags&#45;&#45;study_tags -->
<g id="edge11" class="edge">
<title>tags&#45;&#45;study_tags</title>
<path fill="none" stroke="#7f7f7f" stroke-dasharray="5,2" d="M752.65,-138.73C760.72,-146.41 768.35,-154.55 775,-163 839.3,-244.78 882.66,-360.88 902.55,-421.9"/>
<text text-anchor="start" x="871.61" y="-410.7" font-family="Times,serif" font-size="14.00">{0,1}</text>
<text text-anchor="start" x="752.65" y="-127.53" font-family="Times,serif" font-size="14.00">0..N</text>
</g>
<!-- comp_pipeline -->
<g id="node11" class="node">
<title>comp_pipeline</title>
<polygon fill="none" stroke="black" points="22.5,-1090 22.5,-1116 186.5,-1116 186.5,-1090 22.5,-1090"/>
<text text-anchor="start" x="52.91" y="-1099.2" font-family="Helvetica,sans-Serif" font-weight="bold" font-size="16.00">comp_pipeline</text>
<polygon fill="none" stroke="black" points="22.5,-1066 22.5,-1090 186.5,-1090 186.5,-1066 22.5,-1066"/>
<text text-anchor="start" x="27.5" y="-1074.8" font-family="Helvetica,sans-Serif" text-decoration="underline" font-size="14.00">project_id</text>
<text text-anchor="start" x="88.2" y="-1074.8" font-family="Helvetica,sans-Serif" font-size="14.00"> [VARCHAR]</text>
<polygon fill="none" stroke="black" points="22.5,-1042 22.5,-1066 186.5,-1066 186.5,-1042 22.5,-1042"/>
<text text-anchor="start" x="27.07" y="-1050.8" font-family="Helvetica,sans-Serif" font-size="14.00">dag_adjacency_list</text>
<text text-anchor="start" x="146.15" y="-1050.8" font-family="Helvetica,sans-Serif" font-size="14.00"> [Null]</text>
<polygon fill="none" stroke="black" points="22.5,-1018 22.5,-1042 186.5,-1042 186.5,-1018 22.5,-1018"/>
<text text-anchor="start" x="27.5" y="-1026.8" font-family="Helvetica,sans-Serif" font-size="14.00">state</text>
<text text-anchor="start" x="57.85" y="-1026.8" font-family="Helvetica,sans-Serif" font-size="14.00"> [VARCHAR]</text>
</g>
<!-- comp_tasks -->
<g id="node12" class="node">
<title>comp_tasks</title>
<polygon fill="none" stroke="black" points="291.5,-1222 291.5,-1248 475.5,-1248 475.5,-1222 291.5,-1222"/>
<text text-anchor="start" x="340.82" y="-1231.2" font-family="Helvetica,sans-Serif" font-weight="bold" font-size="16.00">comp_tasks</text>
<polygon fill="none" stroke="black" points="291.5,-1198 291.5,-1222 475.5,-1222 475.5,-1198 291.5,-1198"/>
<text text-anchor="start" x="296.5" y="-1206.8" font-family="Helvetica,sans-Serif" text-decoration="underline" font-size="14.00">task_id</text>
<text text-anchor="start" x="340.86" y="-1206.8" font-family="Helvetica,sans-Serif" font-size="14.00"> [INTEGER]</text>
<polygon fill="none" stroke="black" points="291.5,-1174 291.5,-1198 475.5,-1198 475.5,-1174 291.5,-1174"/>
<text text-anchor="start" x="296.5" y="-1182.8" font-family="Helvetica,sans-Serif" font-size="14.00">project_id</text>
<text text-anchor="start" x="357.2" y="-1182.8" font-family="Helvetica,sans-Serif" font-size="14.00"> [VARCHAR]</text>
<polygon fill="none" stroke="black" points="291.5,-1150 291.5,-1174 475.5,-1174 475.5,-1150 291.5,-1150"/>
<text text-anchor="start" x="296.5" y="-1158.8" font-family="Helvetica,sans-Serif" font-size="14.00">node_id</text>
<text text-anchor="start" x="346.33" y="-1158.8" font-family="Helvetica,sans-Serif" font-size="14.00"> [VARCHAR]</text>
<polygon fill="none" stroke="black" points="291.5,-1126 291.5,-1150 475.5,-1150 475.5,-1126 291.5,-1126"/>
<text text-anchor="start" x="296.09" y="-1134.8" font-family="Helvetica,sans-Serif" font-size="14.00">node_class</text>
<text text-anchor="start" x="366.92" y="-1134.8" font-family="Helvetica,sans-Serif" font-size="14.00"> [VARCHAR(13)]</text>
<polygon fill="none" stroke="black" points="291.5,-1102 291.5,-1126 475.5,-1126 475.5,-1102 291.5,-1102"/>
<text text-anchor="start" x="296.5" y="-1110.8" font-family="Helvetica,sans-Serif" font-size="14.00">job_id</text>
<text text-anchor="start" x="333.87" y="-1110.8" font-family="Helvetica,sans-Serif" font-size="14.00"> [VARCHAR]</text>
<polygon fill="none" stroke="black" points="291.5,-1078 291.5,-1102 475.5,-1102 475.5,-1078 291.5,-1078"/>
<text text-anchor="start" x="296.5" y="-1086.8" font-family="Helvetica,sans-Serif" font-size="14.00">internal_id</text>
<text text-anchor="start" x="361.1" y="-1086.8" font-family="Helvetica,sans-Serif" font-size="14.00"> [INTEGER]</text>
<polygon fill="none" stroke="black" points="291.5,-1054 291.5,-1078 475.5,-1078 475.5,-1054 291.5,-1054"/>
<text text-anchor="start" x="296.5" y="-1062.8" font-family="Helvetica,sans-Serif" font-size="14.00">schema</text>
<text text-anchor="start" x="345.52" y="-1062.8" font-family="Helvetica,sans-Serif" font-size="14.00"> [Null]</text>
<polygon fill="none" stroke="black" points="291.5,-1030 291.5,-1054 475.5,-1054 475.5,-1030 291.5,-1030"/>
<text text-anchor="start" x="296.5" y="-1038.8" font-family="Helvetica,sans-Serif" font-size="14.00">inputs</text>
<text text-anchor="start" x="333.86" y="-1038.8" font-family="Helvetica,sans-Serif" font-size="14.00"> [Null]</text>
<polygon fill="none" stroke="black" points="291.5,-1006 291.5,-1030 475.5,-1030 475.5,-1006 291.5,-1006"/>
<text text-anchor="start" x="296.5" y="-1014.8" font-family="Helvetica,sans-Serif" font-size="14.00">outputs</text>
<text text-anchor="start" x="342.42" y="-1014.8" font-family="Helvetica,sans-Serif" font-size="14.00"> [Null]</text>
<polygon fill="none" stroke="black" points="291.5,-982 291.5,-1006 475.5,-1006 475.5,-982 291.5,-982"/>
<text text-anchor="start" x="296.5" y="-990.8" font-family="Helvetica,sans-Serif" font-size="14.00">image</text>
<text text-anchor="start" x="334.63" y="-990.8" font-family="Helvetica,sans-Serif" font-size="14.00"> [Null]</text>
<polygon fill="none" stroke="black" points="291.5,-958 291.5,-982 475.5,-982 475.5,-958 291.5,-958"/>
<text text-anchor="start" x="296.5" y="-966.8" font-family="Helvetica,sans-Serif" font-size="14.00">state</text>
<text text-anchor="start" x="326.85" y="-966.8" font-family="Helvetica,sans-Serif" font-size="14.00"> [INTEGER]</text>
<polygon fill="none" stroke="black" points="291.5,-934 291.5,-958 475.5,-958 475.5,-934 291.5,-934"/>
<text text-anchor="start" x="296.5" y="-942.8" font-family="Helvetica,sans-Serif" font-size="14.00">submit</text>
<text text-anchor="start" x="337.73" y="-942.8" font-family="Helvetica,sans-Serif" font-size="14.00"> [DATETIME]</text>
<polygon fill="none" stroke="black" points="291.5,-910 291.5,-934 475.5,-934 475.5,-910 291.5,-910"/>
<text text-anchor="start" x="296.5" y="-918.8" font-family="Helvetica,sans-Serif" font-size="14.00">start</text>
<text text-anchor="start" x="323.73" y="-918.8" font-family="Helvetica,sans-Serif" font-size="14.00"> [DATETIME]</text>
<polygon fill="none" stroke="black" points="291.5,-886 291.5,-910 475.5,-910 475.5,-886 291.5,-886"/>
<text text-anchor="start" x="296.5" y="-894.8" font-family="Helvetica,sans-Serif" font-size="14.00">end</text>
<text text-anchor="start" x="319.86" y="-894.8" font-family="Helvetica,sans-Serif" font-size="14.00"> [DATETIME]</text>
</g>
<!-- comp_pipeline&#45;&#45;comp_tasks -->
<g id="edge10" class="edge">
<title>comp_pipeline&#45;&#45;comp_tasks</title>
<path fill="none" stroke="#7f7f7f" stroke-dasharray="5,2" d="M194.67,-1067C222.98,-1067 254.45,-1067 283.42,-1067"/>
<text text-anchor="start" x="252.48" y="-1055.8" font-family="Times,serif" font-size="14.00">{0,1}</text>
<text text-anchor="start" x="194.67" y="-1055.8" font-family="Times,serif" font-size="14.00">0..N</text>
</g>
</g>
</svg>
