<?xml version="1.0" encoding="UTF-8"?>
<svg width="540px" height="540px" viewBox="0 0 540 540" version="1.1" xmlns="http://www.w3.org/2000/svg" xmlns:xlink="http://www.w3.org/1999/xlink">
    <title>s4l/safari-pinned-tab</title>
    <defs>
        <path d="M278.40625,109.87449 C280.394033,110.055165 288.046765,111.237113 292.84759,112.399554 C299.915309,114.112009 306.66921,116.727501 313.294466,119.801337 C323.724516,124.638339 333.306675,130.758707 341.803141,138.410142 C346.112774,142.293396 350.098842,146.60574 354.067369,150.906381 C360.860253,158.267205 364.035464,167.149345 366.238035,176.400111 C368.159925,184.470883 368.520522,192.869323 369.47562,201.139036 C370.719195,211.901365 370.354699,222.681248 370.61199,233.45528 C370.748433,239.189468 368.970783,244.578434 367.288642,249.949847 C367.027452,250.782669 366.169814,251.46141 367.017706,252.276679 C367.988397,253.212873 369.18909,252.774032 370.031135,252.146002 C371.600224,250.973809 372.978292,249.548064 374.463566,248.256896 C377.82005,245.335191 380.644409,246.208972 382.04002,250.458902 C383.451225,254.757593 383.523345,258.477013 381.005007,262.824464 C377.350298,269.135971 378.00912,276.799108 376.582322,283.836166 C375.746125,287.961271 375.857228,292.279465 374.151697,296.223182 C372.383793,300.313179 370.939452,304.483143 369.882998,308.832544 C367.966956,316.72973 360.813473,320.197548 353.283799,317.086654 C351.979799,316.548342 351.250806,316.813597 350.751817,318.151574 C349.6057,321.215659 348.900098,324.400669 348.007374,327.534968 C344.953013,338.273892 342.703661,349.192254 340.347105,360.093062 C338.980732,366.412371 338.24979,372.803845 337.56173,379.218724 C337.15825,382.971301 337.127064,386.918919 336.101796,390.425745 C333.756935,398.445807 336.456546,404.490109 342.345013,409.317359 C351.221569,416.594316 361.899165,420.90861 372.038789,425.975759 C380.849073,430.377821 390.821067,431.548064 400.305766,434.081638 C410.170555,436.716634 420.228313,435.68097 430.12234,437.272499 C437.823542,438.511006 445.809324,436.925327 453.654765,438.542212 C457.568714,439.34968 461.410543,440.02842 464.782621,442.218724 C470.733461,446.082474 476.419213,450.400669 482.588361,453.864586 C489.895829,457.970187 495.078693,463.913068 499.407817,470.819448 C502.230226,475.322931 502.561587,480.803566 504.672546,485.476734 C508.9315,494.906938 509.436337,504.967122 510.845593,514.879075 C511.794842,521.555308 513.724528,528.110616 513.556899,534.942881 C513.553001,535.073558 513.825886,535.210086 513.970125,535.342714 C513.83953,535.528002 514.272247,535.968794 513.669951,535.949289 C512.870789,535.923934 512.071626,535.943438 511.272463,535.943438 C353.106424,535.943438 194.940385,535.937587 36.772397,536 C34.5074523,536 33.8427826,535.485093 34.0299037,533.230426 C34.2501608,530.548621 34.0825315,527.833658 34.0825315,525.132349 C35.6828065,524.324882 35.480092,522.643633 35.9439964,521.286152 C37.320116,517.246865 36.696379,512.967679 37.4292699,508.858178 C38.2771623,504.099192 40.2497303,499.681527 42.0488215,495.25411 C44.5866511,489.003065 45.8711593,482.305378 51.5978439,477.388409 C57.0224059,472.730844 61.5659396,467.037615 67.6707647,463.066592 C73.0154104,459.590972 78.0988663,455.678462 83.6208872,452.520758 C88.6224777,449.661466 94.3257721,448.945667 100.101186,449.082196 C102.935291,449.148509 105.814227,449.271385 108.6035,448.877403 C112.197784,448.370298 115.723847,447.467261 119.353216,447.020619 C123.832427,446.470605 128.453928,447.207857 132.755763,446.275564 C142.833013,444.091112 152.738735,441.069936 162.164959,436.823906 C168.123596,434.14015 173.937993,431.222346 179.397641,427.403455 C186.480953,422.449429 193.765031,417.787963 200.228505,412.02647 C204.748648,407.996935 208.647004,403.251602 207.341055,396.721649 C205.947392,389.750906 205.890866,382.610476 203.994316,375.702145 C202.165987,369.041516 201.743016,362.076623 200.38249,355.287267 C199.17205,349.254667 199.394256,342.954862 196.076756,337.39426 C194.994962,335.582335 194.26402,333.544163 193.585706,331.476734 C191.782717,325.962942 190.882197,320.199498 188.566573,314.810532 C187.360032,312.005851 186.116457,312.275007 184.044481,313.414043 C182.758023,314.12204 181.309784,315.387852 179.900528,314.787127 C175.588947,312.947896 171.76466,310.371413 169.669294,305.910839 C167.034005,300.307328 166.388827,294.159654 165.016606,288.222625 C164.314902,285.189746 163.198023,282.203678 163.77498,278.868487 C164.455243,274.930621 164.81779,270.688493 163.375398,266.990527 C161.007147,260.916969 162.739966,254.669824 161.714699,248.594316 C161.601647,247.929228 161.726394,247.176372 161.923261,246.519086 C162.634711,244.145444 163.913372,242.09557 166.283572,241.173029 C168.780469,240.199777 170.616594,241.56701 172.185682,243.39844 C173.080355,244.443856 174.130962,245.376149 174.89504,246.507384 C175.479793,247.371413 176.045055,248.448036 177.087865,248.015046 C177.984487,247.640568 177.565413,246.341599 177.413378,245.559487 C176.015817,238.342992 174.807327,231.155754 174.830717,223.726665 C174.844361,219.112009 174.493509,214.427138 175.253688,209.921705 C175.719542,207.159933 176.084038,204.532739 175.81895,201.767066 C175.725389,200.791864 176.00802,199.785456 176.00802,198.7927 C176.00802,194.999164 178.276863,191.757593 178.204744,187.811925 C178.079996,180.852884 180.348839,174.233213 182.298017,167.590137 C184.243297,160.960713 189.810149,156.576205 192.437641,150.360267 C193.969694,146.736417 197.445079,144.596824 200.351303,142.0691 C203.259476,139.539426 205.894765,136.676233 208.906244,134.283087 C215.808283,128.800502 223.891524,125.301477 231.812983,121.702981 C243.586017,116.353023 255.916667,112.620824 268.763548,110.612984 C271.526155,110.181216 276.418467,109.693816 278.40625,109.87449 Z" id="path-1"></path>
        <path d="M244.183424,0.0634885298 C246.41661,0.186959997 254.046765,1.42747014 258.84759,2.58991093 C265.915309,4.30236565 272.66921,6.91785743 279.294466,9.99169416 C289.724516,14.8286961 299.306675,20.9490639 307.803141,28.6004988 C312.112774,32.4837532 316.098842,36.7960965 320.067369,41.0967373 C326.860253,48.4575621 330.035464,57.339702 332.238035,66.5904682 C334.159925,74.66124 334.520522,83.0596797 335.47562,91.3293927 C336.719195,102.091722 336.354699,112.871605 336.61199,123.645637 C336.748433,129.379825 334.970783,134.768791 333.288642,140.140203 C333.027452,140.973026 332.169814,141.651767 333.017706,142.467035 C333.988397,143.403229 335.18909,142.964389 336.031135,142.336358 C337.600224,141.164166 338.978292,139.73842 340.463566,138.447253 C343.82005,135.525548 346.644409,136.399329 348.04002,140.649259 C349.451225,144.947949 349.523345,148.66737 347.005007,153.01482 C343.350298,159.326328 344.00912,166.989465 342.582322,174.026523 C341.746125,178.151627 341.857228,182.469822 340.151697,186.413539 C338.383793,190.503536 336.939452,194.6735 335.882998,199.022901 C333.966956,206.920086 326.813473,210.387905 319.283799,207.27701 C317.979799,206.738699 317.250806,207.003954 316.751817,208.341931 C315.6057,211.406016 314.900098,214.591025 314.007374,217.725325 C310.953013,228.464249 308.703661,239.382611 306.347105,250.283419 C304.980732,256.602728 304.24979,262.994202 303.56173,269.409081 C303.15825,273.161658 303.127064,277.109276 302.101796,280.616102 C299.756935,288.636163 302.456546,294.680465 308.345013,299.507715 C317.221569,306.784673 327.899165,311.098966 338.038789,316.166116 C346.849073,320.568178 356.821067,321.73842 366.305766,324.271995 C376.170555,326.906991 386.228313,325.871326 396.12234,327.462856 C403.823542,328.701363 411.809324,327.115684 419.654765,328.732569 C423.568714,329.540036 427.410543,330.218777 430.782621,332.409081 C436.733461,336.272831 442.419213,340.591025 448.588361,344.054943 C455.895829,348.160543 461.078693,354.103424 465.407817,361.009805 C468.230226,365.513288 468.561587,370.993923 470.672546,375.667091 C474.9315,385.097295 475.436337,395.157478 476.845593,405.069432 C477.794842,411.745665 479.724528,418.300973 479.556899,425.133238 C479.553001,425.263915 479.825886,425.400443 479.970125,425.533071 C479.83953,425.718359 480.272247,426.15915 479.669951,426.139646 C478.870789,426.114291 478.071626,426.133795 477.272463,426.133795 C319.106424,426.133795 160.940385,426.127944 2.77239697,426.190357 C0.507452276,426.190357 -0.15721738,425.67545 0.0299036964,423.420783 C0.250160797,420.738978 0.0825314991,418.024015 0.0825314991,415.322706 C1.68280654,414.515238 1.48009204,412.83399 1.94399637,411.476509 C3.32011595,407.437222 2.69637903,403.158036 3.42926991,399.048535 C4.27716229,394.289549 6.2497303,389.871884 8.04882148,385.444467 C10.5866511,379.193422 11.8711593,372.495734 17.5978439,367.578766 C23.0224059,362.921201 27.5659396,357.227972 33.6707647,353.256949 C39.0154104,349.781329 44.0988663,345.868819 49.6208872,342.711115 C54.6224777,339.851822 60.3257721,339.136024 66.1011862,339.272552 C68.9352908,339.338866 71.8142266,339.461742 74.6035001,339.06776 C78.1977841,338.560655 81.7238469,337.657618 85.3532161,337.210975 C89.8324268,336.660961 94.4539276,337.398214 98.7557632,336.465921 C108.833013,334.281468 118.738735,331.260293 128.164959,327.014263 C134.123596,324.330507 139.937993,321.412703 145.397641,317.593812 C152.480953,312.639786 159.765031,307.97832 166.228505,302.216827 C170.748648,298.187292 174.647004,293.441959 173.341055,286.912006 C171.947392,279.941262 171.890866,272.800833 169.994316,265.892502 C168.165987,259.231872 167.743016,252.26698 166.38249,245.477623 C165.17205,239.445024 165.394256,233.145219 162.076756,227.584617 C160.994962,225.772692 160.26402,223.734519 159.585706,221.667091 C157.782717,216.153299 156.882197,210.389855 154.566573,205.000889 C153.360032,202.196208 152.116457,202.465364 150.044481,203.6044 C148.758023,204.312396 147.309784,205.578209 145.900528,204.977484 C141.588947,203.138253 137.76466,200.561769 135.669294,196.101195 C133.034005,190.497685 132.388827,184.350011 131.016606,178.412981 C130.314902,175.380103 129.198023,172.394035 129.77498,169.058844 C130.455243,165.120978 130.81779,160.878849 129.375398,157.180883 C127.007147,151.107325 128.739966,144.860181 127.714699,138.784673 C127.601647,138.119585 127.726394,137.366729 127.923261,136.709443 C128.634711,134.335801 129.913372,132.285927 132.283572,131.363385 C134.780469,130.390134 136.616594,131.757367 138.185682,133.588796 C139.080355,134.634213 140.130962,135.566506 140.89504,136.69774 C141.479793,137.561769 142.045055,138.638392 143.087865,138.205403 C143.984487,137.830925 143.565413,136.531956 143.413378,135.749844 C142.015817,128.533349 140.807327,121.34611 140.830717,113.917022 C140.844361,109.302366 140.493509,104.617495 141.253688,100.112062 C141.719542,97.3502899 142.084038,94.7230957 141.81895,91.9574228 C141.725389,90.9822208 142.00802,89.9758123 142.00802,88.9830567 C142.00802,85.1895208 144.276863,81.9479494 144.204744,78.0022821 C144.079996,71.0432405 146.348839,64.4235693 148.298017,57.7804933 C150.243297,51.15107 155.810149,46.7665618 158.437641,40.5506242 C159.969694,36.9267736 163.445079,34.7871804 166.351303,32.2594568 C169.259476,29.7297828 171.894765,26.8665897 174.906244,24.4734439 C181.808283,18.9908583 189.891524,15.4918335 197.812983,11.8933381 C209.586017,6.54337986 221.929183,2.87330587 234.763548,0.803340854 C240.298573,-0.0893647311 241.950238,-0.0599829376 244.183424,0.0634885298 Z" id="path-3"></path>
    </defs>
    <g id="s4l/safari-pinned-tab" stroke="none" stroke-width="1" fill="none" fill-rule="evenodd">
        <mask id="mask-2" fill="white">
            <use xlink:href="#path-1"></use>
        </mask>
        <use id="Path-Copy" stroke="#000000" stroke-width="10" fill="#000000" fill-rule="nonzero" xlink:href="#path-1"></use>
        <g id="Rectangle" mask="url(#mask-2)">
            <g transform="translate(34, 109.8096)">
                <mask id="mask-4" fill="white">
                    <use xlink:href="#path-3"></use>
                </mask>
                <use id="Path" stroke="none" fill="#000000" fill-rule="nonzero" xlink:href="#path-3"></use>
                <rect id="Rectangle" stroke="none" fill="#103CDF" fill-rule="evenodd" mask="url(#mask-4)" x="-34" y="-118.809643" width="270" height="293"></rect>
                <rect id="Rectangle-Copy" stroke="none" fill="#0ABDFF" fill-rule="evenodd" mask="url(#mask-4)" x="236" y="-118.809643" width="270" height="293"></rect>
                <rect id="Rectangle-Copy-2" stroke="none" fill="#FF001E" fill-rule="evenodd" mask="url(#mask-4)" x="236" y="174.190357" width="270" height="270"></rect>
                <rect id="Rectangle-Copy-3" stroke="none" fill="#F2FF1A" fill-rule="evenodd" mask="url(#mask-4)" x="-34" y="174.190357" width="270" height="270"></rect>
            </g>
        </g>
    </g>
</svg>