<svg width="540px" height="540px" viewBox="0 0 540 540" version="1.1" xmlns="http://www.w3.org/2000/svg" xmlns:xlink="http://www.w3.org/1999/xlink">
    <g id="tis/safari-pinned-tab" stroke="none" stroke-width="1" fill="none" fill-rule="evenodd">
        <g id="Group" transform="translate(20, 19)" fill="#003366" fill-rule="nonzero">
            <g id="Text" transform="translate(92, 189)" stroke="#003366" stroke-width="0.25">
                <polygon id="Path" points="29.5243902 125 29.5243902 111.807388 43.1341463 109.168865 43.1341463 16.6007036 18 16.6007036 16.1341463 32.5417766 0 32.5417766 0 0 108 0 108 32.5417766 91.7560976 32.5417766 89.8902439 16.6007036 64.7560976 16.6007036 64.7560976 109.168865 78.3658537 111.807388 78.3658537 125"></polygon>
                <polygon id="Path" points="121 125 121 111.807388 134.684685 109.168865 134.684685 15.8311346 121 13.3025506 121 0 170 0 170 13.3025506 156.425676 15.8311346 156.425676 109.168865 170 111.807388 170 125"></polygon>
                <path d="M190,125 L190,111.807388 L203.616205,109.168865 L203.616205,15.8311346 L190,13.3025506 L190,0 L203.616205,0 L248.527719,0 C257.861407,0 265.877399,1.64907652 272.465885,4.83729112 C279.164179,8.13544415 284.215352,12.64292 287.729211,18.469657 C291.24307,24.296394 293,31.112577 293,38.8082674 C293,46.6138962 291.24307,53.4300792 287.729211,59.2568162 C284.215352,65.0835532 279.054371,69.591029 272.465885,72.7792436 C265.767591,75.9674582 257.861407,77.6165347 248.527719,77.6165347 L225.248401,77.6165347 L225.248401,109.168865 L238.864606,111.807388 L238.864606,125 L190,125 Z M225.248401,60.7959543 L248.527719,60.7959543 C256.214286,60.7959543 261.924307,58.707124 265.767591,54.6394019 C269.610874,50.5716799 271.477612,45.294635 271.477612,39.0281442 C271.477612,32.651715 269.610874,27.2647318 265.767591,23.0870712 C261.924307,18.9094107 256.214286,16.710642 248.527719,16.710642 L225.248401,16.710642 L225.248401,60.7959543 L225.248401,60.7959543 Z" id="Shape"></path>
            </g>
            <g id="Flower">
                <path d="M500,250 C500,191.598284 454.081056,140.125585 384,109 C428.825636,187.308892 428.825636,312.691108 384,391 C454.081056,359.984399 500,308.401716 500,250 Z" id="Path"></path>
                <path d="M114,109 C-38,170.371295 -38,329.628705 114,391 C69.1206897,312.691108 69.1206897,187.308892 114,109 Z" id="Path"></path>
                <path d="M109,386 C170.153666,539.333333 328.846334,539.333333 390,386 C311.968799,431.162835 187.031201,431.162835 109,386 Z" id="Path"></path>
                <path d="M390,115 C328.846334,-38.3333333 170.153666,-38.3333333 109,115 C187.031201,69.7270115 311.968799,69.7270115 390,115 Z" id="Path"></path>
            </g>
        </g>
    </g>
</svg>
