<?xml version="1.0" encoding="UTF-8"?>
<svg width="540px" height="540px" viewBox="0 0 540 540" version="1.1" xmlns="http://www.w3.org/2000/svg" xmlns:xlink="http://www.w3.org/1999/xlink">
    <title>safari-pinned-tab</title>
    <g id="safari-pinned-tab" stroke="none" stroke-width="1" fill="none" fill-rule="evenodd">
        <g id="Text" transform="translate(102.3984, 202.5429)" fill="#000000" fill-rule="nonzero" stroke="#000000" stroke-width="0.25">
            <polygon id="Path" points="31.5069324 133.220708 31.5069324 119.160475 46.030574 116.348428 46.030574 17.6924599 19.2086874 17.6924599 17.217543 34.6819081 0 34.6819081 0 0 115.252124 0 115.252124 34.6819081 97.9174552 34.6819081 95.9263108 17.6924599 69.1044241 17.6924599 69.1044241 116.348428 83.6280658 119.160475 83.6280658 133.220708"></polygon>
            <polygon id="Path" points="129.424388 133.220708 129.424388 119.160475 143.948029 116.348428 143.948029 16.8722796 129.424388 14.1774016 129.424388 0 181.428395 0 181.428395 14.1774016 167.021879 16.8722796 167.021879 116.348428 181.428395 119.160475 181.428395 133.220708"></polygon>
            <path d="M202.979605,133.220708 L202.979605,119.160475 L217.503247,116.348428 L217.503247,16.8722796 L202.979605,14.1774016 L202.979605,0 L217.503247,0 L265.407839,0 C275.363561,0 283.91377,1.75752913 290.941338,5.15541877 C298.086033,8.67047703 303.473835,13.47439 307.221872,19.6843262 C310.969909,25.8942625 312.843927,33.1587162 312.843927,41.3605188 C312.843927,49.67949 310.969909,56.9439437 307.221872,63.15388 C303.473835,69.3638162 297.968907,74.1677292 290.941338,77.5656188 C283.796644,80.9635085 275.363561,82.7210376 265.407839,82.7210376 L240.577097,82.7210376 L240.577097,116.348428 L255.100739,119.160475 L255.100739,133.220708 L202.979605,133.220708 Z M240.577097,64.7942405 L265.407839,64.7942405 C273.606669,64.7942405 279.697229,62.5680369 283.796644,58.2327984 C287.896059,53.8975599 289.887203,48.2734667 289.887203,41.594856 C289.887203,34.7990767 287.896059,29.0578149 283.796644,24.6054078 C279.697229,20.1530007 273.606669,17.8096285 265.407839,17.8096285 L240.577097,17.8096285 L240.577097,64.7942405 L240.577097,64.7942405 Z" id="Shape"></path>
        </g>
        <g id="Flower" transform="translate(2.8983, 1.8828)" fill="#000000" fill-rule="nonzero">
            <path d="M534.797967,266.441416 C534.797967,204.224885 485.604987,149.389976 410.52713,116.23126 C458.548848,199.655309 458.548848,333.227523 410.52713,416.651572 C485.604987,383.610024 534.797967,328.657947 534.797967,266.441416 Z" id="Path"></path>
            <path d="M122.279693,116.23126 C-40.7598976,181.611343 -40.7598976,351.271488 122.279693,416.651572 C74.1408483,333.227523 74.1408483,199.655309 122.279693,116.23126 Z" id="Path"></path>
            <path d="M116.189133,410.675973 C181.545521,573.774676 351.144176,573.774676 416.500563,410.675973 C333.10675,458.715102 199.582947,458.715102 116.189133,410.675973 Z" id="Path"></path>
            <path d="M416.500563,122.324027 C351.144176,-40.7746758 181.545521,-40.7746758 116.189133,122.324027 C199.582947,74.1677292 333.10675,74.1677292 416.500563,122.324027 Z" id="Path"></path>
        </g>
    </g>
</svg>