<?xml version="1.0" encoding="UTF-8" standalone="no"?>
<svg
   width="64"
   height="64"
   viewBox="0 0 64 64"
   version="1.1"
   id="svg3"
   xmlns="http://www.w3.org/2000/svg"
   xmlns:svg="http://www.w3.org/2000/svg"
   xmlns:rdf="http://www.w3.org/1999/02/22-rdf-syntax-ns#">
  <defs
     id="defs1">
    <style
       id="style1">
      .z43Main100 {
        fill: #000000;
      }

      .z43Accent100 {
        fill: #000000;
      }
    </style>
    <clipPath
       clipPathUnits="userSpaceOnUse"
       id="clipPath5">
      <use
         x="0"
         y="0"
         id="use5" />
    </clipPath>
  </defs>
  <title
     id="title1">ModelsDownload</title>
  <g
     id="animal_group"
     transform="matrix(1.2765772,0,0,1.3487798,1.3021433,-6.4767167)">
    <path
       d="m 8.9281367,18.725208 c -0.7415234,0 -1.3771148,0.635591 -1.3771148,1.377115 0,0.741523 0.6355914,1.377115 1.3771148,1.377115 0.7415237,0 1.3771153,-0.635592 1.3771153,-1.377115 0.105931,-0.741524 -0.5296596,-1.377115 -1.3771153,-1.377115 z"
       class="z43Main100"
       id="animal1"
       style="stroke-width:1.05932" />
    <path
       class="z43Main100"
       id="animal2"
       d="M 11.18858,5.9389584 C 10.923751,5.9124754 10.657633,5.9403991 10.392803,6.046336 9.8631444,6.2581996 9.0906305,6.6303802 8.8787669,7.1600392 8.0313125,8.9608798 7.9249291,10.973516 8.6664517,12.774356 c 0,0.211864 0.4557021,0.262088 0.4557021,0.473951 -1.6949088,1.271182 -6.9910163,5.826287 -8.89778877,11.016945 -0.3177954,0.847455 -0.2119966,1.801793 0.31766241,2.543316 0.63559086,0.741523 1.48315036,1.16428 2.33060476,1.16428 l 6.0787894,-0.05526 1.3776174,2.119941 c -0.7007096,0 -1.4192002,0.05527 -1.4192002,0.05527 -3.7076131,0 -4.8729402,3.282723 -4.978872,5.083564 L 3.8256196,36.839568 H 19.73305 c 0.13017,-0.681827 0.307779,-1.851634 0.531598,-2.509964 H 6.2615716 c 0.2118636,-1.059318 1.0117509,-1.731541 2.7066597,-1.731541 h 3.6028747 0.529978 1.693659 L 14.736353,30.09279 H 13.678015 L 10.864388,25.467575 H 2.8142398 c -0.3177954,0 -0.1527032,-0.171611 -0.1212301,-0.262264 0.043467,-0.1252 0.3617931,-0.19762 0.3617931,-0.19762 1.588977,-4.449134 6.2493082,-8.581394 8.0501492,-9.958508 0.63559,0.847454 0.66507,1.482993 1.618456,1.906721 l 1.802248,0.848283 0.846019,-1.800876 c 0.317796,-0.635592 0.365851,-1.298788 1.045694,-1.298788 h 12.60601 c 6.68469,0 10.877097,4.077942 11.891873,10.399633 0.831122,0.382293 2.502062,1.056086 3.251872,1.574025 C 43.765929,18.457447 36.940883,11.978183 28.719979,11.978183 H 20.887516 C 21.311244,10.389206 21.099062,8.6937496 20.357539,7.1047726 20.145675,6.5751136 19.079579,6.2581996 18.54992,6.046336 18.020261,5.8344724 17.491266,5.940316 16.961608,6.1521799 16.008222,6.5759072 15.161246,7.3172892 14.525656,8.1647436 13.890065,7.3172892 13.042054,6.681839 11.982736,6.1521799 11.717906,6.046248 11.453409,5.9654416 11.18858,5.9389584 Z M 11.1351,8.0588996 c 1.271181,0.6355908 2.118608,1.6939752 2.648268,2.9651574 0.423726,1.271181 0.423275,2.648101 -0.212317,3.919283 -1.27118,-0.635591 -2.118607,-1.693975 -2.648266,-2.965157 C 10.499058,10.707002 10.605441,9.3300812 11.1351,8.0588996 Z m 6.674152,0 c 0.529659,1.2711816 0.634421,2.6481894 0.210694,3.8134394 h -1.905978 l -0.317663,-1.589188 c 0,-0.105932 -0.105349,-0.211688 -0.105349,-0.211688 0.423727,-0.8474542 1.164903,-1.4829044 2.118289,-2.0125634 z m 2.5413,21.3972944 -1.800628,1.165814 1.907596,3.072534 c 0.01059,0.02113 0.01586,0.04611 0.02431,0.06902 0.492895,-1.268378 1.156734,-2.467208 1.974045,-3.564937 h -1.680696 z m -10.275411,8.475163 c -3.0720221,0 -5.6141966,2.542293 -5.6141966,5.614315 H 7.339957 c 2.0146183,0 0.7700192,-2.943242 2.676791,-2.943242 h 9.418042 c 0,0 0.0064,-1.142183 -0.0065,-1.437764 0.01318,-0.412127 0.04346,-0.823567 0.09076,-1.233309 z"
       style="stroke-width:4.1269;stroke-dasharray:none"
       />
  </g>
  <g
     id="dlsymbolg"
     clip-path="url(#clipPath5)"
     transform="matrix(1.0593191,0,0,1.0593191,-0.60248982,-0.46293786)">
    <g
       id="dlsymbolg1">
      <g
         id="g3">
        <path
           class="z43Accent100"
           d="M 44,28 A 16,16 0 1 0 60,44 16.018,16.018 0 0 0 44,28 Z m 0,27.71 A 11.71,11.71 0 1 1 55.71,44 11.723,11.723 0 0 1 44,55.71 Z"
           id="dl1" />
        <path
           class="z43Accent100"
           d="m 39.093,46.347 3.5,5.169 a 1.7,1.7 0 0 0 1.4,0.746 v 0 a 1.7,1.7 0 0 0 1.405,-0.745 l 3.5,-5.17 A 1.672,1.672 0 0 0 49,44.6 1.7,1.7 0 0 0 47.5,43.7 H 46.29 V 38.083 A 2.316,2.316 0 0 0 44.109,35.74 h -0.112 a 2.291,2.291 0 0 0 -2.289,2.291 V 43.7 H 40.5 a 1.7,1.7 0 0 0 -1.4,2.648 z"
           id="dl2" />
      </g>
    </g>
  </g>
</svg>
