<?xml version="1.0" encoding="UTF-8" standalone="no"?>
<svg
   width="64"
   height="64"
   viewBox="0 0 64 64"
   version="1.1"
   id="svg3"
   sodipodi:docname="PhantomsDownload.svg"
   inkscape:version="1.3.2 (091e20e, 2023-11-25, custom)"
   xmlns:inkscape="http://www.inkscape.org/namespaces/inkscape"
   xmlns:sodipodi="http://sodipodi.sourceforge.net/DTD/sodipodi-0.dtd"
   xmlns="http://www.w3.org/2000/svg"
   xmlns:svg="http://www.w3.org/2000/svg"
   xmlns:rdf="http://www.w3.org/1999/02/22-rdf-syntax-ns#"
   xmlns:dc="http://purl.org/dc/elements/1.1/">
  <defs
     id="defs1">
    <style
       id="style1">
      .z43Main100 {
        fill: #030303;
      }

      .z43Accent100 {
        fill: #0090d0;
      }
    </style>
  </defs>
  <title
     id="title1">PhantomsDownload</title>
  <path
     class="z43Main100"
     d="m 24.989711,39.949112 a 20.823046,20.823046 0 0 1 4.16769,-8.137287 l 0.0099,-4.688239 a 7.8137321,7.8137321 0 1 0 -3.805618,0 l -0.01651,7.238157 0.0066,0.220105 a 1.4934133,1.4934133 0 0 1 -1.252398,1.663995 l -9.60869,1.680503 -4.48134,0.665818 A 1.4857096,1.4857096 0 0 1 8.6237939,37.099851 V 31.119595 A 1.9061104,1.9061104 0 0 0 6.7198845,29.216786 H 5.1725454 c -0.040719,0 -0.079238,0 -0.1100525,0 0.012106,-0.02971 0.027513,-0.06053 0.045122,-0.09575 l 3.281767,-6.279595 A 1.8631899,1.8631899 0 0 0 8.609487,21.944512 V 19.25923 A 14.317839,14.317839 0 0 1 16.878837,6.3236512 14.030602,14.030602 0 0 1 22.975749,4.9556978 14.2364,14.2364 0 0 1 34.892241,27.031142 20.76912,20.76912 0 0 1 40.090023,24.956651 17.968282,17.968282 0 0 0 22.975749,1.1852969 17.771288,17.771288 0 0 0 15.261064,2.9098206 18.124557,18.124557 0 0 0 4.8170757,19.293346 v 2.217559 l -3.0814719,5.885611 a 3.8727498,3.8727498 0 0 0 -0.050624,3.896962 3.8661466,3.8661466 0 0 0 3.1309954,1.760841 v 4.086251 a 5.3067347,5.3067347 0 0 0 5.3012318,5.300132 1.1720598,1.1720598 0 0 0 0.287237,-0.02531 l 4.6057,-0.685628 9.583378,-1.684904 c 0.143068,-0.01871 0.263025,-0.06603 0.396189,-0.09575 z M 23.245378,19.564075 a 4.0026118,4.0026118 0 1 1 4.002611,4.002612 4.0070139,4.0070139 0 0 1 -4.002611,-4.002612 z"
     id="path1"
     style="stroke-width:1.10053" />
  <g
     id="g3"
     transform="matrix(1.1005256,0,0,1.1005256,-3.2167616,-3.2168057)">
    <path
       class="z43Accent100"
       d="M 44,28 A 16,16 0 1 0 60,44 16.018,16.018 0 0 0 44,28 Z m 0,27.71 A 11.71,11.71 0 1 1 55.71,44 11.723,11.723 0 0 1 44,55.71 Z"
       id="path2" />
    <path
       class="z43Accent100"
       d="m 39.093,46.347 3.5,5.169 a 1.7,1.7 0 0 0 1.4,0.746 v 0 a 1.7,1.7 0 0 0 1.405,-0.745 l 3.5,-5.17 A 1.672,1.672 0 0 0 49,44.6 1.7,1.7 0 0 0 47.5,43.7 H 46.29 V 38.083 A 2.316,2.316 0 0 0 44.109,35.74 h -0.112 a 2.291,2.291 0 0 0 -2.289,2.291 V 43.7 H 40.5 a 1.7,1.7 0 0 0 -1.4,2.648 z"
       id="path3" />
  </g>
</svg>
