<?xml version="1.0" encoding="UTF-8" standalone="no"?>
<svg
   width="64"
   height="64"
   viewBox="0 0 64 64"
   version="1.1"
   id="svg3"
   xml:space="preserve"
   xmlns="http://www.w3.org/2000/svg"
   xmlns:svg="http://www.w3.org/2000/svg"
   xmlns:rdf="http://www.w3.org/1999/02/22-rdf-syntax-ns#">
   <defs
     id="defs1"><style
       id="style1">
      .z43Main100 {
        fill: #030303;
      }

      .z43Accent100 {
        fill: #0090d0;
      }
    </style><clipPath
       clipPathUnits="userSpaceOnUse"
       id="clipPath5"><use
         x="0"
         y="0"
         id="use5" /></clipPath></defs><title
     id="title1">ModelsDownload</title>
     <g
     id="g2"
     transform="matrix(1.2765772,0,0,1.3487798,1.3021433,-6.4767167)"><g
       id="g6"
       transform="matrix(0.18445798,0,0,0.1745836,-31.208457,0.22633655)"><path
         class="z43Main100"
         d="M 256,106.6 C 276.6,106.7 293.3,90 293.3,69.3 293.3,48.7 276.6,32 256,32 c -20.6,0 -37.3,16.7 -37.3,37.3 0,20.6 16.7,37.3 37.3,37.3 z"
         id="path1" /><path
         id="path2-0"
         class="z43Main100"
         d="M 218.60237 115.00015 C 190.4024 115.00015 171.99608 139.79806 171.99608 163.39804 L 171.99608 276.99829 C 171.99608 285.78115 176.9584 290.99571 182.89494 292.76596 L 192.11003 292.76596 C 198.04447 290.99433 203.00059 285.77883 203.00059 276.99829 L 203.00059 171.99934 L 208.99744 171.99934 L 208.99744 292.76596 L 302.99799 292.76596 L 302.99799 284.91116 A 84.115298 84.115301 0 0 1 273.93438 221.79899 A 84.115298 84.115301 0 0 1 334.65776 141.40956 C 327.24768 126.5876 312.56693 115.00015 293.40136 115.00015 L 256.00187 115.00015 L 218.60237 115.00015 z "
         transform="translate(1.500714e-6)" /></g></g><g
     id="g5"
     clip-path="url(#clipPath5)"
     transform="matrix(1.0593191,0,0,1.0593191,-0.60248982,-0.46293786)"><g
       id="g4"><g
         id="g3"><path
           class="z43Accent100"
           d="M 44,28 A 16,16 0 1 0 60,44 16.018,16.018 0 0 0 44,28 Z m 0,27.71 A 11.71,11.71 0 1 1 55.71,44 11.723,11.723 0 0 1 44,55.71 Z"
           id="path2" /><path
           class="z43Accent100"
           d="m 39.093,46.347 3.5,5.169 a 1.7,1.7 0 0 0 1.4,0.746 v 0 a 1.7,1.7 0 0 0 1.405,-0.745 l 3.5,-5.17 A 1.672,1.672 0 0 0 49,44.6 1.7,1.7 0 0 0 47.5,43.7 H 46.29 V 38.083 A 2.316,2.316 0 0 0 44.109,35.74 h -0.112 a 2.291,2.291 0 0 0 -2.289,2.291 V 43.7 H 40.5 a 1.7,1.7 0 0 0 -1.4,2.648 z"
           id="path3" /></g></g></g></svg>
