<?xml version="1.0" encoding="UTF-8" standalone="no"?>
<svg
   width="64"
   height="64"
   viewBox="0 0 64 64"
   version="1.1"
   id="svg3"
   xmlns:xlink="http://www.w3.org/1999/xlink"
   xmlns="http://www.w3.org/2000/svg"
   xmlns:svg="http://www.w3.org/2000/svg"
   xmlns:rdf="http://www.w3.org/1999/02/22-rdf-syntax-ns#">
  <defs
     id="defs1">
    <style
       id="style1">
      .z43Main100 {
        fill: #000000;
      }

      .z43Accent100 {
        fill: #000000;
      }
    </style>
    <clipPath
       clipPathUnits="userSpaceOnUse"
       id="clipPath5">
      <use
         x="0"
         y="0"
         xlink:href="#g4"
         id="use5" />
    </clipPath>
  </defs>
  <title
     id="title1">HumanPartsDownload</title>
  <path
     id="path3-9"
     class="z43Main100"
     d="m 20.396541,1.2752463 a 5.1382134,5.1382134 0 0 0 -3.722177,1.4355736 c -0.261809,0 -0.525133,0.00805 -0.784407,0.025789 A 7.5578356,7.5578356 0 0 0 8.4993312,9.072045 7.7698164,7.7698164 0 0 0 4.0077906,16.11882 7.443822,7.443822 0 0 0 4.1109456,17.406108 7.5164529,7.5164529 0 0 0 2.920365,28.383519 7.471692,7.471692 0 0 0 4.5579506,35.8773 a 1.6147706,1.6147706 0 0 0 0.1783722,0.219203 7.3010938,7.3010938 0 0 0 0.827389,0.704894 7.3939938,7.3939938 0 0 0 -0.1096022,1.28084 7.547701,7.547701 0 0 0 7.4336064,7.547508 7.510541,7.510541 0 0 0 5.957201,2.93347 h 0.01289 a 7.5831719,7.5831719 0 0 0 5.84545,-2.838912 7.6009074,7.6009074 0 0 0 1.244308,1.220668 19.805759,19.980575 0 0 1 -0.11605,-1.648331 19.805759,19.980575 0 0 1 0.565204,-4.523777 v -3.790945 a 2.6569395,2.6569395 0 0 1 1.145449,-2.060951 4.8637362,4.8637362 0 0 1 1.689164,-0.771514 19.805759,19.980575 0 0 1 2.873296,-3.384773 8.1785764,8.1785764 0 0 0 -5.697165,0.878967 v -7.925743 a 8.3365063,8.3365063 0 0 0 5.901326,1.276544 5.382287,5.382287 0 0 0 4.373342,2.273708 5.2201343,5.2201343 0 0 0 0.608184,-0.07952 19.805759,19.980575 0 0 1 1.534431,-0.597439 1.6902189,1.6902189 0 0 0 -1.661225,-2.767992 1.9424541,1.9424541 0 0 1 -2.357521,-1.33027 1.9356978,1.9356978 0 0 1 1.321673,-2.396204 1.6897228,1.6897228 0 0 0 -0.943438,-3.245085 5.3028997,5.3028997 0 0 0 -3.823183,4.843987 5.1035871,5.1035871 0 0 1 -4.947141,-2.970004 v -3.653406 a 4.7615463,4.7615463 0 0 0 3.457841,-0.348149 4.3122481,4.3122481 0 0 0 1.932007,-5.7766795 1.6891175,1.6891175 0 0 0 -3.023731,1.5064935 0.92899979,0.92899979 0 0 1 -0.416918,1.248605 1.5860561,1.5860561 0 0 1 -1.942752,-0.434111 V 7.3549438 a 2.6814313,2.6814313 0 0 1 0.793004,-1.9083674 2.7169022,2.7169022 0 0 1 1.962094,-0.790855 1.7558096,1.7558096 0 0 1 1.495747,0.7478736 1.706826,1.706826 0 0 0 1.506493,0.7134889 7.9302801,7.9302801 0 0 1 1.209922,0 c 0.04307,0 0.08587,0.00645 0.128944,0.00645 a 4.1669863,4.1669863 0 0 1 4.162734,4.1670321 1.240637,1.240637 0 0 1 -1.240009,1.23786 1.689163,1.689163 0 1 0 0,3.378326 4.6145953,4.6145953 0 0 0 3.939231,-2.219981 4.3823454,4.3823454 0 0 1 1.689163,3.468587 3.9752746,3.9752746 0 0 1 -0.266483,1.450616 1.6890906,1.6890906 0 0 0 0.844581,2.129721 4.1636082,4.1636082 0 0 1 1.80951,5.667077 19.805759,19.980575 0 0 1 1.181985,-0.08596 19.805759,19.980575 0 0 1 2.458527,0.161179 A 7.5164529,7.5164529 0 0 0 45.334256,17.436199 7.3382538,7.3382538 0 0 0 45.44171,16.161805 7.7757282,7.7757282 0 0 0 40.960914,9.0913903 7.5460119,7.5460119 0 0 0 33.585332,2.749507 C 33.325215,2.730927 33.064882,2.722414 32.803073,2.721569 A 5.0225107,5.0225107 0 0 0 29.13033,1.2859917 h -0.0043 a 6.043566,6.043566 0 0 0 -4.295975,1.7729764 c -0.0321,0.032093 -0.06032,0.068069 -0.09241,0.1010059 -0.03125,-0.032937 -0.06032,-0.068069 -0.09241,-0.1010059 A 6.0089396,6.0089396 0 0 0 20.396541,1.2752463 Z m -0.113901,3.376177 a 2.7371712,2.7371712 0 0 1 1.972839,0.7951531 2.6839649,2.6839649 0 0 1 0.788706,1.9105164 v 3.9134422 a 1.584367,1.584367 0 0 1 -1.940603,0.429813 0.92899979,0.92899979 0 0 1 -0.416918,-1.248605 1.6890906,1.6890906 0 1 0 -3.019433,-1.5107912 4.3071808,4.3071808 0 0 0 1.921262,5.7788282 4.9296108,4.9296108 0 0 0 2.215683,0.524372 5.0022416,5.0022416 0 0 0 1.242158,-0.163329 v 3.64481 a 5.1010534,5.1010534 0 0 1 -4.914906,2.963556 5.3020552,5.3020552 0 0 0 -3.870461,-4.854731 1.6890906,1.6890906 0 0 0 -0.911202,3.251531 1.9363619,1.9363619 0 1 1 -1.046594,3.728623 1.6890906,1.6890906 0 1 0 -0.911202,3.251532 5.3442824,5.3442824 0 0 0 1.44417,0.199863 5.2361807,5.2361807 0 0 0 4.328212,-2.280156 8.3381954,8.3381954 0 0 0 5.864791,-1.276543 v 7.93004 a 8.19969,8.19969 0 0 0 -6.03027,-0.844581 5.9033714,5.9033714 0 0 0 -2.172701,1.136854 7.5164529,7.5164529 0 0 0 -0.973526,-1.205624 1.6891342,1.6891342 0 1 0 -2.387608,2.389757 4.1163136,4.1163136 0 0 1 1.216369,2.944215 1.7102042,1.7102042 0 0 0 0.02579,0.264336 5.7952697,5.7952697 0 0 0 0.169775,1.500045 4.3443408,4.3443408 0 0 0 5.183539,3.311706 l 0.09886,-0.02364 a 1.6620651,1.6620651 0 0 0 1.214219,-2.013671 1.7144269,1.7144269 0 0 0 -2.039459,-1.261499 0.98389523,0.98389523 0 0 1 -1.166941,-0.788706 2.4576267,2.4576267 0 0 1 1.706355,-2.987197 4.8840053,4.8840053 0 0 1 4.005852,0.855327 2.6603176,2.6603176 0 0 1 1.143302,2.060951 v 4.033789 a 4.2269491,4.2269491 0 0 1 -4.177778,4.171331 h -0.0064 a 4.1272927,4.1272927 0 0 1 -3.606127,-2.121125 1.6950024,1.6950024 0 0 0 -1.751486,-0.844582 2.6594731,2.6594731 0 0 1 -0.444855,0.03439 4.3071808,4.3071808 0 0 1 -2.985048,-1.222816 4.1315154,4.1315154 0 0 1 -1.2056239,-2.828166 7.4201747,7.4201747 0 0 0 1.2249649,0.109602 1.689163,1.689163 0 0 0 0,-3.378326 A 4.1458727,4.1458727 0 0 1 8.1899163,34.458924 4.0386155,4.0386155 0 0 1 7.4592347,33.981833 C 7.3899817,33.925253 7.3187992,33.87202 7.2529247,33.812057 A 4.1492509,4.1492509 0 0 1 5.9118598,30.766829 c 0,-0.09459 0.010439,-0.187782 0.017193,-0.281527 a 7.5240538,7.5240538 0 0 0 2.6820296,0.507179 1.6891633,1.6891633 0 0 0 0,-3.378326 4.2725545,4.2725545 0 0 1 -3.7522626,-2.374714 4.1382718,4.1382718 0 0 1 1.9427524,-5.525239 1.6890906,1.6890906 0 0 0 0.8445815,-2.127572 4.0073673,4.0073673 0 0 1 -0.2664838,-1.46566 4.3730554,4.3730554 0 0 1 1.6891632,-3.453544 4.6137509,4.6137509 0 0 0 3.9392319,2.228577 1.689163,1.689163 0 0 0 0,-3.378325 1.240637,1.240637 0 0 1 -1.23786,-1.240009 4.1712091,4.1712091 0 0 1 4.179926,-4.1648833 c 0.05236,-0.0076 0.0841,7.743e-4 0.124644,-0.0043 a 8.424339,8.424339 0 0 1 1.212072,0 1.678956,1.678956 0 0 0 1.506493,-0.7113396 1.7735451,1.7735451 0 0 1 1.4893,-0.7457246 z"
     style="stroke-width:1.10032" />
  <g
     id="g5"
     clip-path="url(#clipPath5)"
     transform="matrix(1.1003199,0,0,1.1003199,-3.2044627,-3.214145)">
    <g
       id="g4">
      <g
         id="g3">
        <path
           class="z43Accent100"
           d="M 44,28 A 16,16 0 1 0 60,44 16.018,16.018 0 0 0 44,28 Z m 0,27.71 A 11.71,11.71 0 1 1 55.71,44 11.723,11.723 0 0 1 44,55.71 Z"
           id="path2" />
        <path
           class="z43Accent100"
           d="m 39.093,46.347 3.5,5.169 a 1.7,1.7 0 0 0 1.4,0.746 v 0 a 1.7,1.7 0 0 0 1.405,-0.745 l 3.5,-5.17 A 1.672,1.672 0 0 0 49,44.6 1.7,1.7 0 0 0 47.5,43.7 H 46.29 V 38.083 A 2.316,2.316 0 0 0 44.109,35.74 h -0.112 a 2.291,2.291 0 0 0 -2.289,2.291 V 43.7 H 40.5 a 1.7,1.7 0 0 0 -1.4,2.648 z"
           id="path3" />
      </g>
    </g>
  </g>
</svg>
