<?xml version="1.0" encoding="UTF-8" standalone="no"?>
<svg
   width="64"
   height="64"
   viewBox="0 0 64 64"
   version="1.1"
   id="svg3"
   xmlns="http://www.w3.org/2000/svg"
   xmlns:svg="http://www.w3.org/2000/svg"
   xmlns:rdf="http://www.w3.org/1999/02/22-rdf-syntax-ns#"
   xmlns:cc="http://creativecommons.org/ns#"
   xmlns:dc="http://purl.org/dc/elements/1.1/">
  <defs
     id="defs1">
    <style
       id="style1">
      .z43Main100 {
        fill: #030303;
      }

      .z43Accent100 {
        fill: #0090d0;
      }
    </style>
  </defs>
  <title
     id="title1">ModelsDownload</title>
  <g
     id="g3"
     transform="matrix(1.9389775,0,0,1.9389775,-53.312809,-53.312809)">
    <g
       id="path1">
      <path
         class="z43Accent100"
         d="m 45.785156,27.873047 c -4.574605,-0.526385 -9.450109,0.862219 -13.25,4.662109 -5.066521,5.066521 -5.846583,12.045665 -3.515625,17.673828 2.330959,5.628164 7.816499,10.011719 14.982422,10.011719 h 0.002 c 8.935516,-0.0099 16.206893,-7.281281 16.216797,-16.216797 v -0.002 c 0,-7.165923 -4.383555,-12.651463 -10.011719,-14.982422 -1.40704,-0.582739 -2.898959,-0.971023 -4.423828,-1.146484 z m -0.304687,2.734375 c 1.260347,0.152041 2.495448,0.480377 3.669922,0.966797 4.697896,1.945679 8.304687,6.376007 8.304687,12.427734 -0.0093,7.441861 -6.011264,13.44381 -13.453125,13.453125 -6.051727,0 -10.482055,-3.606791 -12.427734,-8.304687 -1.945679,-4.697897 -1.362621,-10.38152 2.916015,-14.660157 3.208978,-3.208977 7.209194,-4.338936 10.990235,-3.882812 z"
         id="path4" />
    </g>
    <path
       class="z43Accent100"
       d="m 39.093,49.101699 3.5,4.566537 c 0.314927,0.570617 0.838806,0.91354 1.4,0.916418 v 0 c 0.562777,-5.72e-4 1.088852,-0.343246 1.405,-0.915189 l 3.5,-4.567766 C 49.25836,48.467049 49.297789,47.637466 49,46.955611 48.70455,46.275094 48.12783,45.850014 47.5,45.850014 H 45.564171 V 37.16658 C 45.580711,35.645064 45.345586,34.376904 44.109,34.288341 h -0.112 c -1.264503,0.0014 -1.563171,1.260991 -1.563171,2.814361 v 8.747312 H 40.5 c -1.355473,0.01095 -2.155921,1.870729 -1.4,3.252913 z"
       id="path3"
       style="stroke-width:1.10835" />
  </g>
  <metadata
     id="metadata3">
    <rdf:RDF>
      <cc:Work
         rdf:about="">
        <dc:title>ModelsDownload</dc:title>
      </cc:Work>
    </rdf:RDF>
  </metadata>
</svg>
