<?xml version='1.0' encoding='UTF-8'?>
<!DOCTYPE svg PUBLIC "-//W3C//DTD SVG 1.0//EN" "http://www.w3.org/TR/2001/REC-SVG-20010904/DTD/svg10.dtd">
<svg viewBox="0 0 832 120" xmlns="http://www.w3.org/2000/svg" xmlns:inkspace="http://www.inkscape.org/namespaces/inkscape" xmlns:xlink="http://www.w3.org/1999/xlink">
  <defs id="defs_block">
    <filter height="1.504" id="filter_blur" inkspace:collect="always" width="1.1575" x="-0.07875" y="-0.252">
      <feGaussianBlur id="feGaussianBlur3780" inkspace:collect="always" stdDeviation="4.2" />
    </filter>
  </defs>
  <title>blockdiag</title>
  <desc />
  <polygon fill="rgb(0,0,0)" points="67,46 179,46 195,62 195,86 67,86 67,46" stroke="rgb(0,0,0)" style="filter:url(#filter_blur);opacity:0.7;fill-opacity:1" />
  <path d="M 663 62 A20,8 0 0 1 683 54 A20,6 0 0 1 733 54 A20,8 0 0 1 753 62 A20,8 0 0 1 753 78 A20,20 0 0 1 723 78 A20,20 0 0 1 693 78 A20,20 0 0 1 663 78 A20,8 0 0 1 663 62" fill="rgb(0,0,0)" stroke="rgb(0,0,0)" style="filter:url(#filter_blur);opacity:0.7;fill-opacity:1" />
  <rect fill="rgb(0,0,0)" height="40" stroke="rgb(0,0,0)" style="filter:url(#filter_blur);opacity:0.7;fill-opacity:1" width="128" x="259" y="46" />
  <rect fill="rgb(0,0,0)" height="40" stroke="rgb(0,0,0)" style="filter:url(#filter_blur);opacity:0.7;fill-opacity:1" width="128" x="451" y="46" />
  <polygon fill="rgb(255,255,255)" points="64,40 176,40 192,56 192,80 64,80 64,40" stroke="rgb(0,0,0)" />
  <path d="M 176 40 L 176 56" fill="none" stroke="rgb(0,0,0)" />
  <path d="M 176 56 L 192 56" fill="none" stroke="rgb(0,0,0)" />
  <text fill="rgb(0,0,0)" font-family="sans-serif" font-size="11" font-style="normal" font-weight="normal" text-anchor="middle" textLength="61" x="128" y="66">web/client</text>
  <path d="M 660 56 A20,8 0 0 1 680 48 A20,6 0 0 1 730 48 A20,8 0 0 1 750 56 A20,8 0 0 1 750 72 A20,20 0 0 1 720 72 A20,20 0 0 1 690 72 A20,20 0 0 1 660 72 A20,8 0 0 1 660 56" fill="rgb(255,255,255)" stroke="rgb(0,0,0)" />
  <text fill="rgb(0,0,0)" font-family="sans-serif" font-size="11" font-style="normal" font-weight="normal" text-anchor="middle" textLength="67" x="705" y="66">dy-services</text>
  <rect fill="rgb(255,255,255)" height="40" stroke="rgb(0,0,0)" width="128" x="256" y="40" />
  <text fill="rgb(0,0,0)" font-family="sans-serif" font-size="11" font-style="normal" font-weight="normal" text-anchor="middle" textLength="61" x="320" y="66">web/server</text>
  <rect fill="rgb(255,255,255)" height="40" stroke="rgb(0,0,0)" width="128" x="448" y="40" />
  <text fill="rgb(0,0,0)" font-family="sans-serif" font-size="11" font-style="normal" font-weight="normal" text-anchor="middle" textLength="49" x="512" y="66">director</text>
  <path d="M 200 60 L 248 60" fill="none" stroke="rgb(0,0,255)" />
  <polygon fill="rgb(0,0,255)" points="193,60 200,56 200,64 193,60" stroke="rgb(0,0,255)" />
  <polygon fill="rgb(0,0,255)" points="255,60 248,56 248,64 255,60" stroke="rgb(0,0,255)" />
  <path d="M 384 60 L 440 60" fill="none" stroke="rgb(0,0,0)" />
  <polygon fill="rgb(0,0,0)" points="447,60 440,56 440,64 447,60" stroke="rgb(0,0,0)" />
  <path d="M 576 60 L 632 60" fill="none" stroke="rgb(0,0,0)" />
  <polygon fill="rgb(0,0,0)" points="639,60 632,56 632,64 639,60" stroke="rgb(0,0,0)" />
  <rect fill="white" height="15" stroke="rgb(0,0,0)" width="41" x="204" y="38" />
  <text fill="rgb(0,0,0)" font-family="sans-serif" font-size="11" font-style="normal" font-weight="normal" text-anchor="middle" textLength="25" x="224" y="51">9081</text>
  <rect fill="white" height="15" stroke="rgb(0,0,0)" width="41" x="396" y="38" />
  <text fill="rgb(0,0,0)" font-family="sans-serif" font-size="11" font-style="normal" font-weight="normal" text-anchor="middle" textLength="25" x="416" y="51">8001</text>
</svg>
