<svg width="540px" height="540px" viewBox="0 0 540 540" version="1.1" xmlns="http://www.w3.org/2000/svg" xmlns:xlink="http://www.w3.org/1999/xlink">
    <defs>
        <path d="M278.319255,110.523433 C283.638606,110.574016 291.857806,111.929962 297.029441,113.429859 C302.201076,114.929756 306.66921,116.727501 313.294466,119.801337 C323.724516,124.638339 333.306675,130.758707 341.803141,138.410142 C346.112774,142.293396 350.098842,146.60574 354.067369,150.906381 C360.860253,158.267205 364.035464,167.149345 366.238035,176.400111 C368.159925,184.470883 368.520522,192.869323 369.47562,201.139036 C370.719195,211.901365 370.354699,222.681248 370.61199,233.45528 C370.748433,239.189468 368.970783,244.578434 367.288642,249.949847 C367.027452,250.782669 366.169814,251.46141 367.017706,252.276679 C367.988397,253.212873 369.18909,252.774032 370.031135,252.146002 C371.600224,250.973809 372.978292,249.548064 374.463566,248.256896 C377.82005,245.335191 380.644409,246.208972 382.04002,250.458902 C383.451225,254.757593 383.523345,258.477013 381.005007,262.824464 C377.350298,269.135971 378.00912,276.799108 376.582322,283.836166 C375.746125,287.961271 375.857228,292.279465 374.151697,296.223182 C372.383793,300.313179 370.939452,304.483143 369.882998,308.832544 C367.966956,316.72973 360.813473,320.197548 353.283799,317.086654 C351.979799,316.548342 351.250806,316.813597 350.751817,318.151574 C349.6057,321.215659 348.900098,324.400669 348.007374,327.534968 C344.953013,338.273892 342.703661,349.192254 340.347105,360.093062 C338.980732,366.412371 338.260497,372.812759 337.572437,379.227637 C337.168958,382.980215 336.559495,385.393486 336.101796,390.425745 C335.350617,398.684726 336.456546,404.490109 342.345013,409.317359 C351.221569,416.594316 361.899165,420.90861 372.038789,425.975759 C380.849073,430.377821 389.302011,432.239584 400.305766,434.081638 C411.309522,435.923693 420.088947,436.964686 430.12234,437.272499 C440.155733,437.580312 445.809324,436.925327 453.654765,438.542212 C457.568714,439.34968 457.048001,438.822225 464.782621,442.218724 C472.517242,445.615223 477.939709,449.302823 482.619238,453.229526 C487.298766,457.156229 496.981403,466.045398 499.407817,470.819448 C501.834231,475.593498 503.223809,480.728164 504.579335,485.302238 C507.491166,495.127898 509.987618,504.008641 511.396873,513.920594 C512.346123,520.596827 513.924442,527.896021 514.09678,534.660728 C514.139625,536.421592 512.354335,535.940129 511.272463,535.943438 C353.125433,536.427197 194.940385,535.937587 36.772397,536 C34.5074523,536 33.8427826,535.485093 34.0299037,533.230426 C34.2501608,530.548621 36.696379,512.967679 37.4292699,508.858178 C38.2771623,504.099192 40.2761041,496.502612 42.0751953,492.075195 C44.6130249,485.82415 47.3289795,479.983375 53.0556641,475.066406 C58.4802261,470.408841 61.8893155,467.790359 67.9941406,463.819336 C71.5572378,461.502256 77.7205511,458.623073 86.4840805,455.181787 C99.3431885,451.595304 106.7025,449.670736 108.562016,449.408082 C112.1563,448.900977 115.813875,448.082657 119.443244,447.636014 C123.922455,447.086 129.970873,447.112857 134.272708,446.180563 C144.349958,443.996111 152.738735,441.069936 162.164959,436.823906 C168.123596,434.14015 173.937993,431.222346 179.397641,427.403455 C186.480953,422.449429 193.765031,417.787963 200.228505,412.02647 C204.748648,407.996935 207.168313,403.307405 207.044271,396.564192 C206.920229,389.820979 205.890866,382.610476 203.994316,375.702145 C203.933192,375.479467 201.697531,361.849641 200.38249,355.287267 C199.17205,349.254667 199.394256,342.954862 196.076756,337.39426 C194.994962,335.582335 194.26402,333.544163 193.585706,331.476734 C191.782717,325.962942 190.882197,320.199498 188.566573,314.810532 C187.360032,312.005851 186.116457,312.275007 184.044481,313.414043 C182.758023,314.12204 181.309784,315.387852 179.900528,314.787127 C175.588947,312.947896 171.76466,310.371413 169.669294,305.910839 C167.034005,300.307328 166.388827,294.159654 165.016606,288.222625 C164.314902,285.189746 163.198023,282.203678 163.77498,278.868487 C164.455243,274.930621 164.81779,270.688493 163.375398,266.990527 C161.007147,260.916969 162.739966,254.669824 161.714699,248.594316 C161.601647,247.929228 161.726394,247.176372 161.923261,246.519086 C162.634711,244.145444 163.913372,242.09557 166.283572,241.173029 C168.780469,240.199777 170.616594,241.56701 172.185682,243.39844 C173.080355,244.443856 174.130962,245.376149 174.89504,246.507384 C175.479793,247.371413 176.045055,248.448036 177.087865,248.015046 C177.984487,247.640568 177.565413,246.341599 177.413378,245.559487 C176.015817,238.342992 174.807327,231.155754 174.830717,223.726665 C174.844361,219.112009 175.469703,209.744025 175.887173,206.112091 C176.304643,202.480157 176.572977,196.409932 178.214028,187.583739 C179.855079,178.757546 182.712105,172.153601 185.281792,165.578309 C187.851478,159.003017 194.207505,148.986791 200.286321,143.04421 C206.365137,137.101629 207.943761,135.527075 210.955241,133.133929 C217.85728,127.651343 221.426466,125.546811 230.961034,120.501993 C240.495603,115.457174 248.859949,112.433796 261.800316,110.973984 C265.659931,110.538578 272.999905,110.472851 278.319255,110.523433 Z" id="path-1"></path>
        <path d="M244.319255,0.0145328471 C249.638606,0.0651155261 257.857806,1.42106198 263.029441,2.92095876 C268.201076,4.42085555 272.66921,6.21860031 279.294466,9.29243703 C289.724516,14.129439 299.306675,20.2498068 307.803141,27.9012417 C312.112774,31.7844961 316.098842,36.0968394 320.067369,40.3974802 C326.860253,47.758305 330.035464,56.6404448 332.238035,65.8912111 C334.159925,73.9619829 334.520522,82.3604225 335.47562,90.6301356 C336.719195,101.392465 336.354699,112.172348 336.61199,122.94638 C336.748433,128.680567 334.970783,134.069534 333.288642,139.440946 C333.027452,140.273769 332.169814,140.952509 333.017706,141.767778 C333.988397,142.703972 335.18909,142.265131 336.031135,141.637101 C337.600224,140.464908 338.978292,139.039163 340.463566,137.747996 C343.82005,134.82629 346.644409,135.700071 348.04002,139.950002 C349.451225,144.248692 349.523345,147.968113 347.005007,152.315563 C343.350298,158.627071 344.00912,166.290208 342.582322,173.327266 C341.746125,177.45237 341.857228,181.770565 340.151697,185.714282 C338.383793,189.804279 336.939452,193.974243 335.882998,198.323643 C333.966956,206.220829 326.813473,209.688648 319.283799,206.577753 C317.979799,206.039442 317.250806,206.304697 316.751817,207.642674 C315.6057,210.706759 314.900098,213.891768 314.007374,217.026068 C310.953013,227.764992 308.703661,238.683354 306.347105,249.584162 C304.980732,255.903471 304.260497,262.303858 303.572437,268.718737 C303.168958,272.471314 302.559495,274.884586 302.101796,279.916845 C301.350617,288.175825 302.456546,293.981208 308.345013,298.808458 C317.221569,306.085416 327.899165,310.399709 338.038789,315.466859 C346.849073,319.868921 355.302011,321.730684 366.305766,323.572738 C377.309522,325.414792 386.088947,326.455786 396.12234,326.763599 C406.155733,327.071412 411.809324,326.416427 419.654765,328.033312 C423.568714,328.840779 423.048001,328.313324 430.782621,331.709823 C438.517242,335.106323 443.939709,338.793923 448.619238,342.720626 C453.298766,346.647329 462.981403,355.536498 465.407817,360.310548 C467.834231,365.084598 469.223809,370.219264 470.579335,374.793338 C473.491166,384.618997 475.987618,393.49974 477.396873,403.411694 C478.346123,410.087927 479.924442,417.387121 480.09678,424.151828 C480.139625,425.912692 478.354335,425.431229 477.272463,425.434538 C319.125433,425.918296 160.940385,425.428687 2.77239697,425.4911 C0.507452276,425.4911 -0.15721738,424.976193 0.0299036964,422.721526 C0.250160797,420.03972 2.69637903,402.458779 3.42926991,398.349277 C4.27716229,393.590292 6.27610413,385.993712 8.07519531,381.566295 C10.6130249,375.31525 13.3289795,369.474474 19.0556641,364.557506 C24.4802261,359.899941 27.8893155,357.281458 33.9941406,353.310436 C37.5572378,350.993356 43.7205511,348.114172 52.4840805,344.672886 C65.3431885,341.086404 72.7025004,339.161836 74.5620161,338.899181 C78.1563001,338.392076 81.8138745,337.573756 85.4432437,337.127114 C89.9224545,336.5771 95.9708729,336.603956 100.272708,335.671663 C110.349958,333.487211 118.738735,330.561036 128.164959,326.315006 C134.123596,323.63125 139.937993,320.713446 145.397641,316.894555 C152.480953,311.940528 159.765031,307.279063 166.228505,301.517569 C170.748648,297.488035 173.168313,292.798504 173.044271,286.055291 C172.920229,279.312078 171.890866,272.101576 169.994316,265.193245 C169.933192,264.970567 167.697531,251.340741 166.38249,244.778366 C165.17205,238.745767 165.394256,232.445962 162.076756,226.88536 C160.994962,225.073435 160.26402,223.035262 159.585706,220.967834 C157.782717,215.454042 156.882197,209.690598 154.566573,204.301632 C153.360032,201.496951 152.116457,201.766107 150.044481,202.905143 C148.758023,203.613139 147.309784,204.878951 145.900528,204.278227 C141.588947,202.438996 137.76466,199.862512 135.669294,195.401938 C133.034005,189.798428 132.388827,183.650754 131.016606,177.713724 C130.314902,174.680846 129.198023,171.694778 129.77498,168.359587 C130.455243,164.421721 130.81779,160.179592 129.375398,156.481626 C127.007147,150.408068 128.739966,144.160924 127.714699,138.085416 C127.601647,137.420328 127.726394,136.667472 127.923261,136.010186 C128.634711,133.636544 129.913372,131.586669 132.283572,130.664128 C134.780469,129.690877 136.616594,131.05811 138.185682,132.889539 C139.080355,133.934956 140.130962,134.867249 140.89504,135.998483 C141.479793,136.862512 142.045055,137.939135 143.087865,137.506146 C143.984487,137.131668 143.565413,135.832699 143.413378,135.050587 C142.015817,127.834092 140.807327,120.646853 140.830717,113.217764 C140.844361,108.603109 141.469703,99.2351244 141.887173,95.6031904 C142.304643,91.9712565 142.572977,85.9010313 144.214028,77.0748385 C145.855079,68.2486457 148.712105,61.6447005 151.281792,55.0694086 C153.851478,48.4941167 160.207505,38.4778902 166.286321,32.5353093 C172.365137,26.5927285 173.943761,25.0181744 176.955241,22.6250287 C183.85728,17.142443 187.426466,15.0379111 196.961034,9.99309228 C206.495603,4.94827345 214.859949,1.9248952 227.800316,0.465083234 C231.659931,0.0296773529 238.999905,-0.0360498319 244.319255,0.0145328471 Z" id="path-3"></path>
    </defs>
    <g id="s4l/safari-pinned-tab" stroke="none" stroke-width="1" fill="none" fill-rule="evenodd">
        <mask id="mask-2" fill="white">
            <use xlink:href="#path-1"></use>
        </mask>
        <use id="Path-Copy" stroke="#000000" stroke-width="15" fill="#000000" fill-rule="nonzero" xlink:href="#path-1"></use>
        <g id="Rectangle" mask="url(#mask-2)">
            <g transform="translate(34, 110.5089)">
                <mask id="mask-4" fill="white">
                    <use xlink:href="#path-3"></use>
                </mask>
                <use id="Path-Copy-2" stroke="none" fill="#000000" fill-rule="nonzero" xlink:href="#path-3"></use>
                <rect id="Rectangle" stroke="none" fill="#103CDF" fill-rule="evenodd" mask="url(#mask-4)" x="-34" y="-119.5089" width="270" height="293"></rect>
                <rect id="Rectangle-Copy" stroke="none" fill="#0ABDFF" fill-rule="evenodd" mask="url(#mask-4)" x="236" y="-119.5089" width="270" height="293"></rect>
                <rect id="Rectangle-Copy-2" stroke="none" fill="#FF001E" fill-rule="evenodd" mask="url(#mask-4)" x="236" y="173.4911" width="270" height="270"></rect>
                <rect id="Rectangle-Copy-3" stroke="none" fill="#F2FF1A" fill-rule="evenodd" mask="url(#mask-4)" x="-34" y="173.4911" width="270" height="270"></rect>
            </g>
        </g>
    </g>
</svg>