<svg width="540px" height="540px" viewBox="0 0 540 540" version="1.1" xmlns="http://www.w3.org/2000/svg" xmlns:xlink="http://www.w3.org/1999/xlink">
    <defs>
        <path d="M275.228971,118 L277.028062,118 C277.277557,118.518807 277.753156,118.600724 278.257993,118.692393 C283.12704,119.570075 288.046765,120.237113 292.84759,121.399554 C299.915309,123.112009 306.66921,125.727501 313.294466,128.801337 C323.724516,133.638339 333.306675,139.758707 341.803141,147.410142 C346.112774,151.293396 350.098842,155.60574 354.067369,159.906381 C360.860253,167.267205 364.035464,176.149345 366.238035,185.400111 C368.159925,193.470883 368.520522,201.869323 369.47562,210.139036 C370.719195,220.901365 370.354699,231.681248 370.61199,242.45528 C370.748433,248.189468 368.970783,253.578434 367.288642,258.949847 C367.027452,259.782669 366.169814,260.46141 367.017706,261.276679 C367.988397,262.212873 369.18909,261.774032 370.031135,261.146002 C371.600224,259.973809 372.978292,258.548064 374.463566,257.256896 C377.82005,254.335191 380.644409,255.208972 382.04002,259.458902 C383.451225,263.757593 383.523345,267.477013 381.005007,271.824464 C377.350298,278.135971 378.00912,285.799108 376.582322,292.836166 C375.746125,296.961271 375.857228,301.279465 374.151697,305.223182 C372.383793,309.313179 370.939452,313.483143 369.882998,317.832544 C367.966956,325.72973 360.813473,329.197548 353.283799,326.086654 C351.979799,325.548342 351.250806,325.813597 350.751817,327.151574 C349.6057,330.215659 348.900098,333.400669 348.007374,336.534968 C344.953013,347.273892 342.703661,358.192254 340.347105,369.093062 C338.980732,375.412371 338.24979,381.803845 337.56173,388.218724 C337.15825,391.971301 337.127064,395.918919 336.101796,399.425745 C333.756935,407.445807 336.456546,413.490109 342.345013,418.317359 C351.221569,425.594316 361.899165,429.90861 372.038789,434.975759 C380.849073,439.377821 390.821067,440.548064 400.305766,443.081638 C410.170555,445.716634 420.228313,444.68097 430.12234,446.272499 C437.823542,447.511006 445.809324,445.925327 453.654765,447.542212 C457.568714,448.34968 461.410543,449.02842 464.782621,451.218724 C470.733461,455.082474 476.419213,459.400669 482.588361,462.864586 C489.895829,466.970187 495.078693,472.913068 499.407817,479.819448 C502.230226,484.322931 502.561587,489.803566 504.672546,494.476734 C508.9315,503.906938 509.436337,513.967122 510.845593,523.879075 C511.794842,530.555308 513.724528,537.110616 513.556899,543.942881 C513.553001,544.073558 513.825886,544.210086 513.970125,544.342714 C513.83953,544.528002 514.272247,544.968794 513.669951,544.949289 C512.870789,544.923934 512.071626,544.943438 511.272463,544.943438 C353.106424,544.943438 194.940385,544.937587 36.772397,545 C34.5074523,545 33.8427826,544.485093 34.0299037,542.230426 C34.2501608,539.548621 34.0825315,536.833658 34.0825315,534.132349 C35.6828065,533.324882 35.480092,531.643633 35.9439964,530.286152 C37.320116,526.246865 36.696379,521.967679 37.4292699,517.858178 C38.2771623,513.099192 40.2497303,508.681527 42.0488215,504.25411 C44.5866511,498.003065 45.8711593,491.305378 51.5978439,486.388409 C57.0224059,481.730844 61.5659396,476.037615 67.6707647,472.066592 C73.0154104,468.590972 78.0988663,464.678462 83.6208872,461.520758 C88.6224777,458.661466 94.3257721,457.945667 100.101186,458.082196 C102.935291,458.148509 105.814227,458.271385 108.6035,457.877403 C112.197784,457.370298 115.723847,456.467261 119.353216,456.020619 C123.832427,455.470605 128.453928,456.207857 132.755763,455.275564 C142.833013,453.091112 152.738735,450.069936 162.164959,445.823906 C168.123596,443.14015 173.937993,440.222346 179.397641,436.403455 C186.480953,431.449429 193.765031,426.787963 200.228505,421.02647 C204.748648,416.996935 208.647004,412.251602 207.341055,405.721649 C205.947392,398.750906 205.890866,391.610476 203.994316,384.702145 C202.165987,378.041516 201.743016,371.076623 200.38249,364.287267 C199.17205,358.254667 199.394256,351.954862 196.076756,346.39426 C194.994962,344.582335 194.26402,342.544163 193.585706,340.476734 C191.782717,334.962942 190.882197,329.199498 188.566573,323.810532 C187.360032,321.005851 186.116457,321.275007 184.044481,322.414043 C182.758023,323.12204 181.309784,324.387852 179.900528,323.787127 C175.588947,321.947896 171.76466,319.371413 169.669294,314.910839 C167.034005,309.307328 166.388827,303.159654 165.016606,297.222625 C164.314902,294.189746 163.198023,291.203678 163.77498,287.868487 C164.455243,283.930621 164.81779,279.688493 163.375398,275.990527 C161.007147,269.916969 162.739966,263.669824 161.714699,257.594316 C161.601647,256.929228 161.726394,256.176372 161.923261,255.519086 C162.634711,253.145444 163.913372,251.09557 166.283572,250.173029 C168.780469,249.199777 170.616594,250.56701 172.185682,252.39844 C173.080355,253.443856 174.130962,254.376149 174.89504,255.507384 C175.479793,256.371413 176.045055,257.448036 177.087865,257.015046 C177.984487,256.640568 177.565413,255.341599 177.413378,254.559487 C176.015817,247.342992 174.807327,240.155754 174.830717,232.726665 C174.844361,228.112009 174.493509,223.427138 175.253688,218.921705 C175.719542,216.159933 176.084038,213.532739 175.81895,210.767066 C175.725389,209.791864 176.00802,208.785456 176.00802,207.7927 C176.00802,203.999164 178.276863,200.757593 178.204744,196.811925 C178.079996,189.852884 180.348839,183.233213 182.298017,176.590137 C184.243297,169.960713 189.810149,165.576205 192.437641,159.360267 C193.969694,155.736417 197.445079,153.596824 200.351303,151.0691 C203.259476,148.539426 205.894765,145.676233 208.906244,143.283087 C215.808283,137.800502 223.891524,134.301477 231.812983,130.702981 C243.586017,125.353023 255.914567,121.610198 268.763548,119.612984 C270.878406,119.283366 273.270047,119.283366 275.23092,118 L275.228971,118 Z" id="path-1"></path>
    </defs>
    <g id="s4l/safari-pinned-tab" stroke="none" stroke-width="1" fill="none" fill-rule="evenodd">
        <g id="Rectangle">
            <mask id="mask-2" fill="white">
                <use xlink:href="#path-1"></use>
            </mask>
            <use id="Path" fill="#000000" fill-rule="nonzero" xlink:href="#path-1"></use>
            <rect fill="#103CDF" mask="url(#mask-2)" x="0" y="0" width="270" height="293"></rect>
            <rect id="Rectangle-Copy" fill="#0ABDFF" mask="url(#mask-2)" x="270" y="0" width="270" height="293"></rect>
            <rect id="Rectangle-Copy-2" fill="#FF001E" mask="url(#mask-2)" x="270" y="293" width="270" height="270"></rect>
            <rect id="Rectangle-Copy-3" fill="#F2FF1A" mask="url(#mask-2)" x="0" y="293" width="270" height="270"></rect>
        </g>
    </g>
</svg>
