<svg xmlns:xlink="http://www.w3.org/1999/xlink" xmlns="http://www.w3.org/2000/svg" stroke-width="0.501" stroke-linejoin="bevel" fill-rule="evenodd" version="1.1" width="841.892" height="297.639" style=""><rect id="backgroundrect" width="100%" height="100%" x="0" y="0" fill="none" stroke="none"/>
 <defs>
	</defs>

<g class="currentLayer" style=""><title>Layer 1</title><g id="Document" fill="#eb1a1a" stroke="black" font-family="Times New Roman" font-size="16" transform="scale(1,-1) " class="selected" fill-opacity="1">
  <g id="Spread" fill="#eb1a1a" fill-opacity="1">
   <g id="Layer 1" fill="#eb1a1a" fill-opacity="1">
    <g id="Group" fill-rule="nonzero" stroke-linejoin="miter" stroke="none" stroke-width="0.933" fill="#eb1a1a" fill-opacity="1">
     <path d="M412.288,-189.9390075683594 L412.288,-126.18800756835938 C412.288,-125.21400756835936 411.799,-124.72100756835937 410.817,-124.72100756835937 L345.181,-124.72100756835937 C344.203,-124.72100756835937 343.714,-125.21400756835936 343.714,-126.18800756835938 L343.714,-189.9390075683594 C343.714,-190.92500756835938 344.203,-191.4100075683594 345.181,-191.4100075683594 L410.817,-191.4100075683594 C411.799,-191.4100075683594 412.288,-190.92500756835938 412.288,-189.9390075683594 zM410.817,-97.25100756835937 C418.792,-97.25100756835937 425.605,-100.07700756835936 431.265,-105.74000756835937 C436.928,-111.40400756835936 439.766,-118.22100756835937 439.766,-126.18800756835938 L439.766,-189.9390075683594 C439.766,-197.9100075683594 436.928,-204.73100756835936 431.265,-210.38700756835937 C425.605,-216.04600756835936 418.792,-218.88000756835936 410.817,-218.88000756835936 L343.714,-218.88000756835936 L343.714,-267.1150075683594 L316.24,-267.1150075683594 L316.24,-97.25100756835937 L410.817,-97.25100756835937 z" fill="#eb1a1a" marker-start="none" marker-end="none" id="svg_1" fill-opacity="1"/>
     <path d="M561.604,-191.4100075683594 L561.604,-171.90700756835938 L493.029,-171.90700756835938 L493.029,-189.9390075683594 C493.029,-190.92500756835938 493.519,-191.4100075683594 494.497,-191.4100075683594 L561.604,-191.4100075683594 zM560.133,-97.25100756835937 C568.104,-97.25100756835937 574.917,-100.07700756835936 580.584,-105.74400756835936 C586.244,-111.40400756835936 589.074,-118.22100756835937 589.074,-126.18800756835938 L589.074,-218.88000756835936 L494.497,-218.88000756835936 C486.53,-218.88000756835936 479.709,-216.05000756835938 474.049,-210.38700756835937 C468.386,-204.73100756835936 465.556,-197.9100075683594 465.556,-189.9390075683594 L465.556,-144.22400756835938 L561.604,-144.22400756835938 L561.604,-126.18800756835938 C561.604,-125.21700756835938 561.111,-124.72500756835939 560.133,-124.72500756835939 L465.556,-124.72500756835939 L465.556,-97.25100756835937 L560.133,-97.25100756835937 z" fill="#eb1a1a" marker-start="none" marker-end="none" id="svg_2" fill-opacity="1"/>
     <path d="M650.45,-97.25100756835937 L717.976,-97.25100756835937 L717.976,-124.72100756835937 L650.45,-124.72100756835937 C649.469,-124.72100756835937 648.979,-125.21400756835936 648.979,-126.18800756835938 L648.979,-218.88000756835936 L621.509,-218.88000756835936 L621.509,-126.18800756835938 C621.509,-118.22100756835937 624.339,-111.40400756835936 629.999,-105.74000756835937 C635.663,-100.07700756835936 642.48,-97.25100756835937 650.45,-97.25100756835937 z" fill="#eb1a1a" marker-start="none" marker-end="none" id="svg_3" fill-opacity="1"/>
     <path d="M836.756,-191.4100075683594 L753.973,-191.4100075683594 C752.995,-191.4100075683594 752.509,-190.92500756835938 752.509,-189.9390075683594 L752.509,-126.18800756835938 C752.509,-125.21700756835938 752.995,-124.72500756835939 753.973,-124.72500756835939 L836.756,-124.72500756835939 L836.756,-97.25100756835937 L753.973,-97.25100756835937 C746.002,-97.25100756835937 739.192,-100.07700756835936 733.529,-105.74400756835936 C727.865,-111.40400756835936 725.032,-118.22100756835937 725.032,-126.18800756835938 L725.032,-189.9390075683594 C725.032,-197.9100075683594 727.865,-204.73100756835936 733.529,-210.38700756835937 C739.192,-216.05000756835938 746.002,-218.88000756835936 753.973,-218.88000756835936 L836.756,-218.88000756835936 L836.756,-191.4100075683594 z" fill="#eb1a1a" marker-start="none" marker-end="none" id="svg_4" fill-opacity="1"/>
     <path d="M206.815,-123.89200756835936 C206.516,-116.55200756835939 203.78,-110.21300756835939 198.546,-104.91500756835939 C192.998,-99.28900756835938 186.196,-96.48500756835938 178.15,-96.48500756835938 L112.996,-96.48500756835938 C105.085,-96.48500756835938 98.323,-99.28900756835938 92.701,-104.91500756835939 C87.082,-110.53000756835937 84.271,-117.29900756835937 84.271,-125.21000756835937 L84.271,-141.85700756835936 C84.271,-149.77200756835938 87.082,-156.53300756835938 92.701,-162.15900756835939 C98.323,-167.77400756835937 105.085,-170.58500756835937 112.996,-170.58500756835937 L178.15,-170.58500756835937 C179.121,-170.58500756835937 179.606,-171.00300756835938 179.606,-171.83200756835936 L179.606,-188.49000756835937 C179.606,-189.45700756835936 179.121,-189.94300756835938 178.15,-189.94300756835938 L84.331,-189.80500756835937 C84.629,-197.14400756835937 87.4,-203.48400756835937 92.701,-208.78100756835937 C98.323,-214.40400756835936 105.085,-217.21100756835938 112.996,-217.21100756835938 L178.15,-217.21100756835938 C186.196,-217.21100756835938 192.998,-214.40400756835936 198.546,-208.78100756835937 C204.093,-203.16300756835938 206.875,-196.3980075683594 206.875,-188.49000756835937 L206.875,-171.83200756835936 C206.875,-163.92900756835937 204.093,-157.16000756835936 198.546,-151.53800756835938 C192.998,-145.92300756835937 186.196,-143.10800756835937 178.15,-143.10800756835937 L112.996,-143.10800756835937 C112.025,-143.10800756835937 111.54,-142.69300756835938 111.54,-141.85700756835936 L111.54,-125.21000756835937 C111.54,-124.23900756835937 112.025,-123.75000756835936 112.996,-123.75000756835936 L206.815,-123.89200756835936 z" fill="#eb1a1a" marker-start="none" marker-end="none" id="svg_5" fill-opacity="1"/>
     <path d="M316.699,-19.466007568359373 C316.837,-16.050007568359376 318.11,-13.101007568359364 320.548,-10.637007568359365 C323.132,-8.020007568359347 326.294,-6.713007568359387 330.038,-6.713007568359387 L360.357,-6.713007568359387 C364.042,-6.713007568359387 367.185,-8.020007568359347 369.806,-10.637007568359365 C372.419,-13.250007568359365 373.726,-16.401007568359375 373.726,-20.078007568359396 L373.726,-27.829007568359373 C373.726,-31.514007568359375 372.419,-34.65700756835935 369.806,-37.278007568359385 C367.185,-39.891007568359385 364.042,-41.1980075683594 360.357,-41.1980075683594 L330.038,-41.1980075683594 C329.587,-41.1980075683594 329.363,-41.39200756835936 329.363,-41.780007568359366 L329.363,-49.53100756835937 C329.363,-49.98300756835937 329.587,-50.20700756835939 330.038,-50.20700756835939 L373.7,-50.143007568359366 C373.558,-53.55900756835936 372.27,-56.50900756835938 369.806,-58.97300756835938 C367.185,-61.58600756835938 364.042,-62.89600756835938 360.357,-62.89600756835938 L330.038,-62.89600756835938 C326.294,-62.89600756835938 323.132,-61.58600756835938 320.548,-58.97300756835938 C317.965,-56.359007568359374 316.673,-53.20800756835936 316.673,-49.53100756835937 L316.673,-41.780007568359366 C316.673,-38.09600756835937 317.965,-34.9480075683594 320.548,-32.33100756835938 C323.132,-29.718007568359383 326.294,-28.411007568359366 330.038,-28.411007568359366 L360.357,-28.411007568359366 C360.812,-28.411007568359366 361.036,-28.21700756835935 361.036,-27.829007568359373 L361.036,-20.078007568359396 C361.036,-19.63000756835936 360.812,-19.399007568359366 360.357,-19.399007568359366 L316.699,-19.466007568359373 z" fill="#eb1a1a" marker-start="none" marker-end="none" id="svg_6" fill-opacity="1"/>
     <path d="M159.215,-46.163007568359376 C159.827,-46.242007568359384 160.443,-46.30500756835937 161.051,-46.395007568359375 L161.051,-7.702007568359363 C160.443,-7.639007568359375 159.827,-7.590007568359397 159.215,-7.531007568359371 L159.215,-46.163007568359376 z" fill="#eb1a1a" marker-start="none" marker-end="none" id="svg_7" fill-opacity="1"/>
     <path d="M116.434,-49.464007568359364 C117.939,-49.01900756835937 119.462,-48.601007568359364 120.996,-48.22400756835938 L120.996,-8.987007568359388 C119.473,-9.248007568359355 117.942,-9.498007568359355 116.434,-9.800007568359376 L116.434,-49.464007568359364 z" fill="#eb1a1a" marker-start="none" marker-end="none" id="svg_8" fill-opacity="1"/>
     <path d="M144.953,-6.907007568359347 L144.953,-45.27500756835937 C145.181,-45.27100756835938 145.405,-45.256007568359365 145.636,-45.256007568359365 C146.331,-45.256007568359365 147.01,-45.29700756835936 147.697,-45.30900756835936 L147.697,-6.941007568359396 C147.007,-6.933007568359358 146.327,-6.892007568359361 145.636,-6.892007568359361 C145.405,-6.892007568359361 145.181,-6.907007568359347 144.953,-6.907007568359347 z" fill="#eb1a1a" marker-start="none" marker-end="none" id="svg_9" fill-opacity="1"/>
     <path d="M45.131,-141.81600756835937 C46.221,-128.67100756835939 49.357,-116.35100756835936 54.24,-105.19900756835938 L54.24,-40.0370075683594 C51.081,-42.73600756835938 48.035,-45.56600756835937 45.131,-48.54200756835937 L45.131,-141.81600756835937 z" fill="#eb1a1a" marker-start="none" marker-end="none" id="svg_10" fill-opacity="1"/>
     <path d="M59.392,-95.00700756835937 C61.871,-90.68800756835938 64.626,-86.58800756835939 67.646,-82.73500756835938 L67.646,-29.95700756835936 C64.824,-31.824007568359377 62.065,-33.78400756835936 59.392,-35.84800756835938 L59.392,-95.00700756835937 z" fill="#eb1a1a" marker-start="none" marker-end="none" id="svg_11" fill-opacity="1"/>
     <path d="M102.173,-54.94400756835938 C103.965,-54.089007568359364 105.79,-53.290007568359385 107.646,-52.540007568359385 L107.646,-11.914007568359352 C105.809,-12.406007568359371 103.976,-12.92200756835939 102.173,-13.489007568359398 L102.173,-54.94400756835938 z" fill="#eb1a1a" marker-start="none" marker-end="none" id="svg_12" fill-opacity="1"/>
     <path d="M73.709,-75.69100756835937 C75.99,-73.28600756835937 78.384,-71.00200756835937 80.885,-68.84700756835937 L80.885,-22.236007568359355 C78.451,-23.480007568359383 76.058,-24.790007568359385 73.709,-26.171007568359357 L73.709,-75.69100756835937 z" fill="#eb1a1a" marker-start="none" marker-end="none" id="svg_13" fill-opacity="1"/>
     <path d="M87.971,-63.300007568359376 C90.017,-61.84400756835939 92.134,-60.48500756835938 94.295,-59.189007568359386 L94.295,-16.2630075683594 C92.16,-17.081007568359382 90.05,-17.950007568359354 87.971,-18.865007568359374 L87.971,-63.300007568359376 z" fill="#eb1a1a" marker-start="none" marker-end="none" id="svg_14" fill-opacity="1"/>
     <path d="M130.751,-46.32800756835937 C131.942,-46.16000756835936 133.141,-46.00300756835938 134.347,-45.87200756835938 L134.347,-7.359007568359402 C133.152,-7.456007568359382 131.942,-7.5160075683593845 130.751,-7.635007568359356 L130.751,-46.32800756835937 z" fill="#eb1a1a" marker-start="none" marker-end="none" id="svg_15" fill-opacity="1"/>
     <path d="M5.135,-168.55100756835938 C6.221,-179.31000756835937 8.398,-189.6480075683594 11.515,-199.48500756835938 L11.515,-105.03900756835938 C8.398,-114.87600756835937 6.221,-125.21700756835938 5.135,-135.97300756835938 L5.135,-168.55100756835938 z" fill="#eb1a1a" marker-start="none" marker-end="none" id="svg_16" fill-opacity="1"/>
     <path d="M39.978,-54.13000756835939 C37.115,-57.405007568359366 34.393,-60.81300756835938 31.836,-64.36000756835938 L31.836,-240.16400756835938 C34.393,-243.71100756835938 37.115,-247.11900756835936 39.978,-250.39000756835938 L39.978,-54.13000756835939 z" fill="#eb1a1a" marker-start="none" marker-end="none" id="svg_17" fill-opacity="1"/>
     <path d="M172.621,-48.82500756835938 C173.525,-49.07200756835937 174.421,-49.32900756835937 175.309,-49.59800756835938 L175.309,-9.909007568359357 C174.421,-9.722007568359402 173.517,-9.569007568359382 172.621,-9.401007568359375 L172.621,-48.82500756835938 z" fill="#eb1a1a" marker-start="none" marker-end="none" id="svg_18" fill-opacity="1"/>
     <path d="M212.676,-70.91600756835936 C214.543,-72.62900756835938 216.357,-74.40300756835939 218.093,-76.26200756835937 L218.093,-26.48100756835936 C216.313,-25.421007568359357 214.509,-24.39400756835937 212.676,-23.4120075683594 L212.676,-70.91600756835936 z" fill="#eb1a1a" marker-start="none" marker-end="none" id="svg_19" fill-opacity="1"/>
     <path d="M25.661,-73.76800756835937 C23.051,-78.07200756835937 20.647,-82.53400756835939 18.486,-87.15200756835938 L18.486,-217.37500756835936 C20.647,-221.9940075683594 23.051,-226.4510075683594 25.661,-230.76000756835936 L25.661,-73.76800756835937 z" fill="#eb1a1a" marker-start="none" marker-end="none" id="svg_20" fill-opacity="1"/>
     <path d="M232.351,-36.22900756835935 C230.287,-34.61600756835935 228.185,-33.04800756835937 226.027,-31.55900756835939 L226.027,-85.94600756835936 C228.3,-89.09300756835938 230.421,-92.37500756835936 232.351,-95.80200756835939 L232.351,-36.22900756835935 z" fill="#eb1a1a" marker-start="none" marker-end="none" id="svg_21" fill-opacity="1"/>
     <path d="M185.975,-53.49900756835939 C187.189,-54.030007568359366 188.387,-54.59300756835938 189.571,-55.16800756835937 L189.571,-13.653007568359385 C188.383,-13.276007568359375 187.177,-12.92200756835939 185.975,-12.574007568359377 L185.975,-53.49900756835939 z" fill="#eb1a1a" marker-start="none" marker-end="none" id="svg_22" fill-opacity="1"/>
     <path d="M199.27,-60.58200756835939 C200.823,-61.57500756835938 202.342,-62.61600756835938 203.832,-63.69200756835937 L203.832,-19.100007568359388 C202.324,-18.428007568359362 200.804,-17.782007568359347 199.27,-17.159007568359357 L199.27,-60.58200756835939 z" fill="#eb1a1a" marker-start="none" marker-end="none" id="svg_23" fill-opacity="1"/>
     <path d="M232.351,-208.90400756835936 C230.421,-212.33900756835936 228.3,-215.61300756835936 226.027,-218.75700756835937 L226.027,-272.97600756835936 C228.185,-271.48300756835937 230.287,-269.9150075683594 232.351,-268.3020075683594 L232.351,-208.90400756835936 z" fill="#eb1a1a" marker-start="none" marker-end="none" id="svg_24" fill-opacity="1"/>
     <path d="M246.613,-255.48900756835937 L246.613,-49.038007568359376 C244.29,-46.63400756835938 241.868,-44.34200756835938 239.381,-42.11600756835938 L239.381,-111.06800756835938 C244.037,-123.63400756835938 246.586,-137.50400756835938 246.586,-152.26200756835937 C246.586,-167.11700756835938 244.037,-181.03900756835938 239.381,-193.62800756835938 L239.381,-262.41100756835937 C241.868,-260.19000756835936 244.29,-257.89700756835936 246.613,-255.48900756835937 z" fill="#eb1a1a" marker-start="none" marker-end="none" id="svg_25" fill-opacity="1"/>
     <path d="M218.093,-228.4220075683594 C216.357,-230.27400756835937 214.543,-232.04400756835938 212.676,-233.75400756835938 L212.676,-281.1150075683594 C214.509,-280.13700756835937 216.313,-279.1100075683594 218.093,-278.0500075683594 L218.093,-228.4220075683594 z" fill="#eb1a1a" marker-start="none" marker-end="none" id="svg_26" fill-opacity="1"/>
     <path d="M203.832,-240.94800756835937 C202.342,-242.01900756835937 200.823,-243.05400756835937 199.27,-244.04300756835937 L199.27,-287.3650075683594 C200.804,-286.7490075683594 202.324,-286.1030075683594 203.832,-285.4270075683594 L203.832,-240.94800756835937 z" fill="#eb1a1a" marker-start="none" marker-end="none" id="svg_27" fill-opacity="1"/>
     <path d="M189.571,-249.4340075683594 C188.383,-250.00100756835937 187.189,-250.56500756835936 185.975,-251.0880075683594 L185.975,-291.9610075683594 C187.177,-291.60600756835936 188.383,-291.2590075683594 189.571,-290.88200756835937 L189.571,-249.4340075683594 z" fill="#eb1a1a" marker-start="none" marker-end="none" id="svg_28" fill-opacity="1"/>
     <path d="M284.338,-123.31300756835938 C283.289,-117.63100756835937 281.926,-112.09500756835936 280.288,-106.70400756835937 L280.288,-197.82800756835937 C281.926,-192.43700756835938 283.289,-186.8930075683594 284.338,-181.21800756835938 L284.338,-123.31300756835938 z" fill="#eb1a1a" marker-start="none" marker-end="none" id="svg_29" fill-opacity="1"/>
     <path d="M175.309,-254.9630075683594 C174.421,-255.2320075683594 173.525,-255.48900756835937 172.621,-255.72800756835937 L172.621,-295.1260075683594 C173.521,-294.96200756835935 174.421,-294.8090075683594 175.309,-294.6220075683594 L175.309,-254.9630075683594 z" fill="#eb1a1a" marker-start="none" marker-end="none" id="svg_30" fill-opacity="1"/>
     <path d="M275.076,-92.33000756835938 C272.462,-86.14400756835937 269.465,-80.20100756835939 266.082,-74.53300756835938 L266.082,-229.99000756835937 C269.465,-224.32700756835936 272.462,-218.38300756835937 275.076,-212.19400756835938 L275.076,-92.33000756835938 z" fill="#eb1a1a" marker-start="none" marker-end="none" id="svg_31" fill-opacity="1"/>
     <path d="M260.874,-66.46500756835937 C258.324,-62.788007568359376 255.606,-59.24500756835937 252.732,-55.84800756835938 L252.732,-248.68000756835937 C255.606,-245.28200756835938 258.324,-241.74300756835936 260.874,-238.06200756835938 L260.874,-66.46500756835937 z" fill="#eb1a1a" marker-start="none" marker-end="none" id="svg_32" fill-opacity="1"/>
     <path d="M67.646,-221.96000756835937 C64.622,-218.11500756835937 61.867,-214.01900756835937 59.392,-209.70300756835937 L59.392,-268.6790075683594 C62.061,-270.74800756835936 64.82,-272.7080075683594 67.646,-274.5780075683594 L67.646,-221.96000756835937 z" fill="#eb1a1a" marker-start="none" marker-end="none" id="svg_33" fill-opacity="1"/>
     <path d="M94.291,-245.43200756835938 C92.13,-244.14000756835938 90.013,-242.78800756835938 87.967,-241.34000756835937 L87.967,-285.6700075683594 C90.047,-286.5850075683594 92.156,-287.4540075683594 94.291,-288.27200756835936 L94.291,-245.43200756835938 z" fill="#eb1a1a" marker-start="none" marker-end="none" id="svg_34" fill-opacity="1"/>
     <path d="M161.051,-258.14700756835936 C160.443,-258.23300756835937 159.827,-258.30100756835935 159.215,-258.3790075683594 L159.215,-297.0010075683594 C159.827,-296.94500756835936 160.443,-296.89200756835936 161.051,-296.8290075683594 L161.051,-258.14700756835936 z" fill="#eb1a1a" marker-start="none" marker-end="none" id="svg_35" fill-opacity="1"/>
     <path d="M80.885,-235.81100756835937 C78.384,-233.66400756835938 75.987,-231.39000756835938 73.709,-228.9940075683594 L73.709,-278.35600756835936 C76.058,-279.74100756835935 78.447,-281.0520075683594 80.885,-282.2950075683594 L80.885,-235.81100756835937 z" fill="#eb1a1a" marker-start="none" marker-end="none" id="svg_36" fill-opacity="1"/>
     <path d="M54.24,-264.4900075683594 L54.24,-199.50000756835936 C49.357,-188.3450075683594 46.224,-175.9870075683594 45.131,-162.77100756835938 L45.131,-255.98600756835938 C48.035,-258.9650075683594 51.081,-261.79100756835936 54.24,-264.4900075683594 z" fill="#eb1a1a" marker-start="none" marker-end="none" id="svg_37" fill-opacity="1"/>
     <path d="M107.646,-252.04000756835939 C105.79,-251.2970075683594 103.965,-250.50200756835937 102.173,-249.64700756835938 L102.173,-291.0350075683594 C103.98,-291.60600756835936 105.809,-292.1170075683594 107.646,-292.61800756835936 L107.646,-252.04000756835939 z" fill="#eb1a1a" marker-start="none" marker-end="none" id="svg_38" fill-opacity="1"/>
     <path d="M147.701,-297.58700756835935 L147.701,-259.2230075683594 C147.01,-259.2340075683594 146.331,-259.2680075683594 145.636,-259.2680075683594 C145.409,-259.2680075683594 145.185,-259.2560075683594 144.957,-259.25300756835935 L144.957,-297.62000756835937 C145.185,-297.6240075683594 145.409,-297.6390075683594 145.636,-297.6390075683594 C146.331,-297.6390075683594 147.01,-297.59400756835936 147.701,-297.58700756835935 z" fill="#eb1a1a" marker-start="none" marker-end="none" id="svg_39" fill-opacity="1"/>
     <path d="M134.347,-258.66600756835936 C133.141,-258.53900756835935 131.942,-258.3830075683594 130.751,-258.2150075683594 L130.751,-296.8960075683594 C131.939,-297.0160075683594 133.148,-297.0790075683594 134.347,-297.16900756835935 L134.347,-258.66600756835936 z" fill="#eb1a1a" marker-start="none" marker-end="none" id="svg_40" fill-opacity="1"/>
     <path d="M120.996,-256.3330075683594 C119.458,-255.96000756835937 117.939,-255.54500756835938 116.434,-255.10100756835936 L116.434,-294.73100756835936 C117.942,-295.0370075683594 119.473,-295.2870075683594 120.996,-295.5450075683594 L120.996,-256.3330075683594 z" fill="#eb1a1a" marker-start="none" marker-end="none" id="svg_41" fill-opacity="1"/>
    </g>
   </g>
  </g>
 </g></g></svg>
