<svg width="1220" height="370" xmlns="http://www.w3.org/2000/svg" preserveAspectRatio="xMidYMid meet" version="1.0">
 <g fill="#000000">
  <title>Layer 1</title>
  <path id="svg_2" d="m438.20001,63.29999l-2.2,2.3l0,83.5l0,83.5l3.3,3.2l3.3,3.2l29.5,0c27.4,0 29.7,-0.1 31.2,-1.8c2.2,-2.5 2.1,-7.5 -0.1,-9.5c-1.6,-1.5 -5.1,-1.7 -28,-1.7l-26.2,0l0,-80.3l0,-80.4l-2.3,-2.1c-3,-2.8 -5.8,-2.8 -8.5,0.1z"/>
  <path id="svg_3" d="m205,65.3l-2,2.3l0,65.4l0,65.4l2.7,2.8l2.7,2.8l72.3,0l72.30001,0l0,51.3l0,51.4l2.3,2.1c3.3,3.1 9.6,3 12.5,-0.1l2.2,-2.3l0,-119.1l0,-119.1l-3.1,-2.6c-3.9,-3.30001 -6.9,-3.30001 -10.8,0l-3.1,2.6l0,58.9l0,58.9l-67.00001,0l-67,0l0,-59.3l0,-59.4l-2.3,-2.1c-3.2,-3.00001 -8.9,-2.90001 -11.7,0.1z"/>
  <path id="svg_4" d="m618.00001,74.5l0,3.5l60,0l60.1,0l-3.1,4.2c-4.5,6.2 -8.7,11.8 -36,47.9c-13.4,17.8 -30.8,40.8 -38.5,51c-7.7,10.2 -20,26.5 -27.2,36.1c-7.3,9.7 -13.3,18.3 -13.3,19.2c0,1.5 6.5,1.6 72.8,1.6l72.9,0l2,-2.3c1.1,-1.2 7.8,-9.9 14.9,-19.2c7,-9.4 17.6,-23.2 23.4,-30.8c5.8,-7.7 12.1,-16 14,-18.7c3,-4.1 23,-30.6 34.3,-45.3l3.7,-4.9l0,60.7l0,60.6l14.2,-0.3l14.2,-0.3l6.1,-8c9.9,-12.9 39.9,-52.7 52.8,-70c6.6,-8.8 13.2,-17.5 14.6,-19.3c6.5,-8.3 12.4,-16.2 16.1,-21.4c2.2,-3.1 4.4,-6 5,-6.3c0.7,-0.4 1,20.5 1,62.4l0,63.1l13.8,0l13.8,0l3.6,-3.8c2,-2 7.2,-8.7 11.7,-14.7c4.5,-6.1 9.9,-13.3 12.1,-16c3.8,-4.7 5.7,-7.3 14,-18.5c1.9,-2.6 9.8,-13 17.5,-23.1c36.6,-48.3 40.2,-53 47.5,-62.9c2.2,-3 5.6,-7.5 7.6,-10c1.9,-2.5 4.6,-6 6,-7.8l2.5,-3.2l34.4,0l34.5,0l0,-3.5l0,-3.5l-105.5,0l-105.5,0l0,3.5l0,3.5l57.4,0.2l57.4,0.3l-24.9,33c-13.7,18.1 -26.7,35.5 -28.9,38.5c-2.2,3 -6.3,8.4 -9,12c-2.7,3.6 -6.8,9 -9,12c-2.2,3 -6.3,8.4 -9,12c-2.7,3.6 -6.8,9 -9,12c-4,5.4 -6.7,8.9 -18.3,24.3c-3.2,4.3 -6.2,7.7 -6.7,7.7c-0.6,0 -1,-29.2 -1,-79c0,-67.8 -0.2,-79 -1.4,-79c-1.7,0 -5.7,4.7 -16.4,19c-4.3,5.8 -14.3,19 -22.2,29.5c-7.9,10.4 -22.5,29.8 -32.4,43c-9.9,13.2 -18.3,24.2 -18.6,24.5c-0.4,0.3 -2.1,2.6 -3.8,5.2c-1.8,2.5 -3.8,5.2 -4.5,6c-0.7,0.7 -2.9,3.6 -4.9,6.5c-2,2.8 -4.4,6 -5.2,7c-0.8,1 -3.7,4.7 -6.3,8.3l-4.8,6.5l-0.3,-78.3c-0.2,-62 -0.5,-78.3 -1.5,-78c-1,0.4 -16.8,20.5 -28.7,36.8c-4.9,6.7 -8.5,11.4 -26.5,35.2c-7.7,10.1 -25.4,33.6 -39.3,52.1l-25.3,33.7l-48.4,0l-48.4,0l11.5,-15.3c6.4,-8.3 16.1,-21.2 21.7,-28.6c5.6,-7.3 11.8,-15.5 13.7,-18.1c4.2,-5.7 37.8,-50.1 56.1,-73.9c10.7,-13.9 13.8,-18.5 13.9,-20.4c0,-1.6 -4.2,-1.7 -74.5,-1.7l-74.5,0l0,3.5z"/>
  <path id="svg_5" d="m19.2,140.3c-2.1,2.3 -2.2,3.1 -2.2,26.8c0,24.4 0,24.6 2.3,26.7l2.3,2.2l52.2,0l52.2,0l0,15.5l0,15.5l-51.8,0c-49,0 -52,0.1 -53.5,1.8c-2.3,2.5 -2.2,8.5 0.1,10.5c1.7,1.5 7,1.7 56.3,1.7l54.5,0l3.2,-3.3l3.2,-3.3l0,-23.4l0,-23.4l-2.7,-2.8l-2.7,-2.8l-51.3,0l-51.3,0l0,-15l0,-15l51.8,0c49,0 52,-0.1 53.5,-1.8c2.3,-2.5 2.2,-8.5 -0.1,-10.5c-1.7,-1.5 -7.2,-1.7 -57.9,-1.7l-56,0l-2.1,2.3z"/>
  <g stroke="null">
   <!-- Font Awesome Pro 5.15.4 by @fontawesome - https://fontawesome.com License - https://fontawesome.com/license (Commercial License) -->
   <path stroke="null" d="m1217.57664,146.89777c-16.54284,1.13736 -132.76441,12.20426 -140.88886,91.88654c-0.9872,8.51742 -1.5463,17.07318 -1.9137,25.63533l57.14595,-57.08844c1.99677,-1.99677 5.23952,-1.99677 7.23629,0s1.99677,5.23313 0,7.2299l-82.90587,82.82281c-2.99675,2.99356 -2.99675,7.8497 0,10.84326c2.99675,2.99356 7.85609,2.99356 10.85604,0l18.25207,-18.2329c13.44704,-0.04473 26.88451,-0.80829 40.24209,-2.3514c17.08596,-1.73799 30.99625,-8.45672 42.35707,-18.06358l-32.25182,0l46.89693,-15.61634c3.59419,-4.7571 6.82735,-9.81133 9.72826,-15.05405l-25.92286,0l34.03773,-16.9997c13.38954,-32.56492 16.55242,-66.62182 17.13069,-75.01144z"/>
  </g>
 </g>

</svg>