<?xml version="1.0" encoding="utf-8"?>
<!-- Generator: Adobe Illustrator 27.0.0, SVG Export Plug-In . SVG Version: 6.00 Build 0)  -->
<svg version="1.1" xmlns="http://www.w3.org/2000/svg" xmlns:xlink="http://www.w3.org/1999/xlink" x="0px" y="0px"
	 viewBox="0 0 595.28 381.18" style="enable-background:new 0 0 595.28 381.18;" xml:space="preserve">
<style type="text/css">
	.st0{fill:#FFFFFF;stroke:#FFFFFF;stroke-width:0.75;stroke-miterlimit:10;}
	.st1{fill:#F8DB27;stroke:#F8DB27;stroke-width:6;stroke-miterlimit:10;}
	.st2{fill:#FFFFFF;stroke:#FFFFFF;stroke-width:1.5;stroke-miterlimit:10;}
	.st3{display:none;fill:#FFFFFF;stroke:#FFFFFF;stroke-width:3;stroke-miterlimit:10;}
	.st4{fill:#F8DB27;}
</style>
<g id="Layer_1">
	<path class="st0" d="M139.16,163.34H65.11c-1.61,0-2.68-1.3-2.68-3.26v-33.06c0-1.63,1.34-3.26,2.54-3.26h0.13h76.73
		c1.47,0,2.68,1.47,2.68,3.26c0,1.95-1.07,3.26-2.68,3.26H67.79v26.55h74.05c1.61,0,2.68,1.3,2.68,3.26v32.9
		c0,1.95-1.07,3.26-2.68,3.26H65.11c-1.61,0-2.68-1.3-2.68-3.26s1.07-3.26,2.68-3.26h74.05V163.34z"/>
	<path class="st1" d="M241.71,105.05c-1.55,0-2.59,1.04-2.59,2.59v49.98h-67.33v-49.98c0-1.42-1.17-2.59-2.72-2.59
		c-1.55,0-2.59,1.04-2.59,2.59v52.7c0,1.68,1.04,2.72,2.59,2.72h70.05v42.87c0,1.55,1.04,2.59,2.59,2.59c1.56,0,2.72-1.04,2.72-2.59
		v-98.29C244.43,106.21,243.26,105.05,241.71,105.05z"/>
	<path class="st2" d="M326.82,191.18c1.76,0,2.93,0.93,2.93,2.32c0,1.39-1.17,2.31-2.93,2.31h-44.07c-1.76,0-2.93-0.92-2.93-2.31
		v-88c0-1.39,1.17-2.32,2.93-2.32c1.76,0,2.93,0.93,2.93,2.32v85.68H326.82z"/>
	<path class="st3" d="M288.22,193.8c0,1.13,0.87,1.96,2.07,1.96h43.84c1.3,0,2.17-0.83,2.17-1.96c0-1.23-0.87-2.06-2.17-2.06h-43.84
		C289.09,191.74,288.22,192.56,288.22,193.8z"/>
</g>
<g id="feather">
	<g>
		<path class="st4" d="M339.48,164.6c0,0,7.26,3.5,15.9,3.76l-8.26-2.95c0,0,7.39,2.4,16.08-0.49c0,0-6.53,0.35-12.05-1.34
			c0,0,12.47,2.66,22.57-3.89l-8.93-3.23c0,0,15.66-1.11,19.88-7.75c0,0-7.49-2.08-11.98-3.52c0,0,14.34-3.15,19.35-7.98
			c5.01-4.83,12.2-16.81,13.04-21.95l-7.65-0.14c0,0,5.23-4.08,6.07-10.17c0.84-6.09,2.21-11.79,5.88-14.2l-5.55,2.95
			c0,0,5.84-6.7,6.99-16.96c0,0-5,8.23-8.21,16.5c-3.22,8.27-6.86,19.25-8.86,22.26c-1.99,3.02-15.43,24.12-31.31,35.19
			c-15.89,11.07-37.03,17.13-36.49,18.06c0.54,0.93,1.4,2.05,4.06,0.88C332.68,168.45,337.37,165.34,339.48,164.6z"/>
		<path class="st4" d="M410.84,76.72c0,0-1.77-1.53-7.9,2.26L396,97.06l0.04-14.23c0,0-4.95,0.25-11.53,10.57
			c0,0-1.62,15.53-2.71,20.74c0,0-1.37-12.4-3.9-17.93c0,0,2.92,4.07-2.32,10.47c-5.25,6.4-7.92,21.3-7.25,27.91
			c0,0-2.98-18.06-1.04-23.65c0,0-6.9,10.14-7.87,13.41c-0.97,3.27-1.37,9.51-1.37,9.51l6.95-6.36c0,0-13.3,10.34-12.42,19.62
			c0,0,1.05-7.47-0.07-13.59c-0.67-3.67,0.36-5.41,0.36-5.41s0,0-3.22,5.41c-3.22,5.41-4.31,10.62-4.31,10.62l-0.95-7.62
			c0,0-2.7,4.85-3.61,10.69l-0.22-6.47c0,0-4.78,8.99-3.14,19c0,0,0.61,1.19,2.86,0c2.25-1.19,19.73-8.69,28.73-17.69
			c14.35-14.35,27-36,30.31-39.97C408.4,91.17,410.84,76.72,410.84,76.72z"/>
		<path class="st4" d="M341.46,159.16l-14.17,8.15c0.66,2.04-1.31,1.12-1.33,1.43c0,0-2.61-1.52,13.03-9.62L341.46,159.16z"/>
	</g>
</g>
</svg>
