<?xml version="1.0" encoding="UTF-8"?>
<svg id="Layer_2" data-name="Layer 2" xmlns="http://www.w3.org/2000/svg" xmlns:xlink="http://www.w3.org/1999/xlink" viewBox="0 0 323.26 64.25">
  <defs>
    <style>
      .cls-1 {
        clip-path: url(#clippath);
      }

      .cls-2, .cls-3 {
        fill: none;
      }

      .cls-2, .cls-4, .cls-5 {
        stroke-width: 0px;
      }

      .cls-6 {
        clip-path: url(#clippath-1);
      }

      .cls-3 {
        stroke: #fede0f;
        stroke-miterlimit: 10;
        stroke-width: 1.59px;
      }

      .cls-4 {
        fill: #fede0f;
      }

      .cls-5 {
        fill: #fff;
      }
    </style>
    <clipPath id="clippath">
      <rect class="cls-2" y="0" width="323.26" height="63.24"/>
    </clipPath>
    <clipPath id="clippath-1">
      <rect class="cls-2" y="0" width="323.26" height="63.24"/>
    </clipPath>
  </defs>
  <g id="Layer_1-2" data-name="Layer 1">
    <g>
      <g class="cls-1">
        <path class="cls-4" d="m167.38.79c-.94,0-1.57.63-1.57,1.57v30.27h-40.78V2.36c0-.86-.71-1.57-1.65-1.57s-1.57.63-1.57,1.57v31.92c0,1.02.63,1.65,1.57,1.65h42.43v25.96c0,.94.63,1.57,1.57,1.57s1.65-.63,1.65-1.57V2.36c0-.86-.7-1.57-1.65-1.57h0Z"/>
        <path class="cls-3" d="m167.38.79c-.94,0-1.57.63-1.57,1.57v30.27h-40.78V2.36c0-.86-.71-1.57-1.65-1.57s-1.57.63-1.57,1.57v31.92c0,1.02.63,1.65,1.57,1.65h42.43v25.96c0,.94.63,1.57,1.57,1.57s1.65-.63,1.65-1.57V2.36c0-.86-.7-1.57-1.65-1.57h0Z"/>
      </g>
      <path class="cls-5" d="m32.1,33.86H1.12c-.67,0-1.12-.45-1.12-1.12v-11.37c0-.56.56-1.12,1.06-1.12h32.15c.62,0,1.12.5,1.12,1.12,0,.67-.45,1.12-1.12,1.12H2.24v9.13h30.98c.67,0,1.12.45,1.12,1.12v11.31c0,.67-.45,1.12-1.12,1.12H1.12c-.67,0-1.12-.45-1.12-1.12s.45-1.12,1.12-1.12h30.98v-9.07h0Z"/>
      <path class="cls-5" d="m73.94,43.77c0,.67-.45,1.12-1.12,1.12s-1.12-.45-1.12-1.12v-22.46c0-.62.45-1.12,1.12-1.12h31.87c.62,0,1.06.5,1.06,1.12v22.46c0,.67-.45,1.12-1.12,1.12-.62,0-1.06-.45-1.06-1.12v-21.34h-13.72v21.34c0,.67-.45,1.12-1.12,1.12s-1.12-.45-1.12-1.12v-21.34h-13.67v21.34h0Z"/>
      <g class="cls-6">
        <path class="cls-5" d="m209.83,42.65c.67,0,1.12.45,1.12,1.12s-.45,1.12-1.12,1.12h-16.86c-.67,0-1.12-.45-1.12-1.12V1.2c0-.67.45-1.12,1.12-1.12s1.12.45,1.12,1.12v41.45h15.74Z"/>
        <path class="cls-5" d="m279.23,38.75c.62,0,1.06.45,1.06,1.12s-.45,1.12-1.06,1.12h-30.92v21.45c0,.67-.45,1.12-1.12,1.12s-1.12-.45-1.12-1.12V19.87c0-.67.45-1.12,1.12-1.12h31.98c.62,0,1.06.45,1.06,1.12s-.45,1.12-1.06,1.12h-30.86v17.76h30.92Z"/>
      </g>
      <path class="cls-5" d="m291.27,20.99h29.8v10.17h-29.8v-10.17h0Zm30.92,12.33c.62,0,1.06-.26,1.06-.65v-13.17c0-.39-.39-.65-1.06-.65h-31.98c-.73,0-1.18.26-1.18.65v24.83c0,.39.5.65,1.18.65h31.98c.62,0,1.06-.65,1.06-1.05s-.39-1.29-1-1.29h-30.98v-9.33h30.92Z"/>
      <path class="cls-5" d="m53.94,18.76c-.62,0-1.06.47-1.06,1.12v23.83c0,.71.45,1.18,1.06,1.18.67,0,1.12-.47,1.12-1.18v-23.83c0-.65-.45-1.12-1.12-1.12h0Z"/>
      <path class="cls-5" d="m229.55,18.69c-.62,0-1.06.47-1.06,1.13v23.89c0,.71.45,1.19,1.06,1.19.67,0,1.12-.47,1.12-1.19v-23.89c0-.65-.45-1.13-1.12-1.13h0Z"/>
    </g>
  </g>
</svg>
