<svg xmlns="http://www.w3.org/2000/svg" viewBox="0 0 384 512" fill="#D8D8D8"><!--!Font Awesome Free 6.7.2 by @fontawesome - https://fontawesome.com License - https://fontawesome.com/license/free Copyright 2025 Fonticons, Inc.--><path d="M224 136V0H24C10.7 0 0 10.7 0 24v464c0 13.3 10.7 24 24 24h336c13.3 0 24-10.7 24-24V160H248c-13.2 0-24-10.8-24-24zm76.5 211.4l-96.4 95.7c-6.7 6.6-17.4 6.6-24 0l-96.4-95.7C73.4 337.3 80.5 320 94.8 320H160v-80c0-8.8 7.2-16 16-16h32c8.8 0 16 7.2 16 16v80h65.2c14.3 0 21.4 17.3 11.3 27.4zM377 105L279.1 7c-4.5-4.5-10.6-7-17-7H256v128h128v-6.1c0-6.3-2.5-12.4-7-16.9z"/></svg>
